<svg width="64" height="63" viewBox="0 0 64 63" fill="none" xmlns="http://www.w3.org/2000/svg">
<g filter="url(#filter0_d_290_26)">
<rect x="4" width="56" height="54" rx="26.5" fill="#122F6A"/>
<rect x="5" y="1" width="54" height="52" rx="25.5" stroke="white" stroke-width="2"/>
</g>
<path d="M44.9734 29.3504V22.743C44.3489 16.7116 39.0099 12 32.5157 12C25.9131 12 20.5059 16.8711 20.0311 23.0468V24.3544H20.0214V29.4325C20.0071 29.6637 20 29.8969 20 30.132C20 30.3671 20.0071 30.6003 20.0214 30.8316C20.3657 36.4545 24.8333 41.0274 30.5965 41.8634C31.2265 41.9544 31.8628 42.0001 32.5 42C33.1372 42.0001 33.7735 41.9544 34.4035 41.8634C40.1386 41.0309 44.5904 36.4993 44.9734 30.9141C44.9912 30.6558 45 30.3948 45 30.1322C45 29.8697 44.9912 29.6086 44.9734 29.3504ZM39.5476 31.1844L35.9702 33.0615C35.771 33.166 35.6073 33.3231 35.4984 33.5141L33.5418 36.9462C33.0915 37.7365 31.9083 37.7365 31.4577 36.9462L29.5012 33.5141C29.3923 33.3231 29.2285 33.166 29.0294 33.0615L25.452 31.1844C24.6285 30.7523 24.6285 29.6172 25.452 29.1852L29.0294 27.3081C29.2285 27.2036 29.3922 27.0465 29.5012 26.8555L29.7562 26.4086C29.1127 25.9829 28.5866 25.4136 28.2233 24.7496C27.86 24.0856 27.6704 23.3468 27.6708 22.5969C27.6708 20.0382 29.8328 17.964 32.4998 17.964C35.1668 17.964 37.3288 20.0382 37.3288 22.5969C37.3292 23.3468 37.1396 24.0855 36.7764 24.7495C36.4131 25.4135 35.8871 25.9829 35.2436 26.4086L35.4984 26.8555C35.6073 27.0465 35.7711 27.2036 35.9702 27.3081L39.5476 29.1852C40.372 29.6172 40.3715 30.7521 39.5476 31.1844Z" fill="#60CBE8"/>
<defs>
<filter id="filter0_d_290_26" x="0" y="0" width="64" height="63" filterUnits="userSpaceOnUse" color-interpolation-filters="sRGB">
<feFlood flood-opacity="0" result="BackgroundImageFix"/>
<feColorMatrix in="SourceAlpha" type="matrix" values="0 0 0 0 0 0 0 0 0 0 0 0 0 0 0 0 0 0 127 0" result="hardAlpha"/>
<feOffset dy="5"/>
<feGaussianBlur stdDeviation="2"/>
<feComposite in2="hardAlpha" operator="out"/>
<feColorMatrix type="matrix" values="0 0 0 0 0.461838 0 0 0 0 0.66584 0 0 0 0 0.669298 0 0 0 1 0"/>
<feBlend mode="normal" in2="BackgroundImageFix" result="effect1_dropShadow_290_26"/>
<feBlend mode="normal" in="SourceGraphic" in2="effect1_dropShadow_290_26" result="shape"/>
</filter>
</defs>
</svg>
