<svg width="66" height="63" viewBox="0 0 66 63" fill="none" xmlns="http://www.w3.org/2000/svg">
<g filter="url(#filter0_d_279_17)">
<rect x="4" width="58" height="54" rx="10" fill="#1E4491"/>
</g>
<path d="M44.1895 30.0422L47.9055 20.8824C47.9855 20.6861 48.0154 20.4735 47.9926 20.2632C47.9698 20.0528 47.8951 19.8512 47.7749 19.676C47.6547 19.5009 47.4927 19.3574 47.3032 19.2583C47.1137 19.1592 46.9024 19.1074 46.6879 19.1076H23.4628L22.1236 14.6695C21.9762 14.1884 21.6762 13.7666 21.2677 13.4661C20.8592 13.1656 20.3637 13.0022 19.854 13H16.988C16.726 13 16.4747 13.1026 16.2894 13.2853C16.1041 13.468 16 13.7158 16 13.9742C16 14.2325 16.1041 14.4803 16.2894 14.663C16.4747 14.8457 16.726 14.9483 16.988 14.9483H19.854C19.9384 14.9487 20.0204 14.9757 20.088 15.0254C20.1557 15.075 20.2055 15.1448 20.23 15.2244L26.0868 34.6369C26.2294 35.1014 26.5144 35.511 26.9025 35.8095C27.2907 36.108 27.7631 36.2807 28.2548 36.304C27.924 36.5829 27.6879 36.9551 27.5782 37.3703C27.4684 37.7856 27.4904 38.2241 27.641 38.6267C27.7916 39.0293 28.0637 39.3767 28.4207 39.6223C28.7776 39.8678 29.2023 39.9996 29.6375 40C30.0727 40.0004 30.4976 39.8693 30.855 39.6243C31.2124 39.3794 31.4851 39.0324 31.6364 38.6301C31.7878 38.2277 31.8105 37.7893 31.7015 37.3739C31.5925 36.9584 31.357 36.5858 31.0267 36.3063H38.6267C38.2968 36.5858 38.0615 36.9581 37.9526 37.3733C37.8437 37.7884 37.8663 38.2266 38.0174 38.6287C38.1685 39.0308 38.4409 39.3777 38.7979 39.6226C39.1549 39.8676 39.5794 39.9989 40.0143 39.9989C40.4493 39.9989 40.8738 39.8676 41.2308 39.6226C41.5878 39.3777 41.8601 39.0308 42.0112 38.6287C42.1624 38.2266 42.185 37.7884 42.076 37.3733C41.9671 36.9581 41.7318 36.5858 41.4019 36.3063H43.9287C44.0601 36.3089 44.1907 36.2857 44.3129 36.2379C44.435 36.1901 44.5463 36.1188 44.6401 36.0281C44.734 35.9374 44.8086 35.8291 44.8595 35.7097C44.9104 35.5902 44.9366 35.4619 44.9366 35.3324C44.9366 35.2028 44.9104 35.0745 44.8595 34.9551C44.8086 34.8356 44.734 34.7273 44.6401 34.6366C44.5463 34.5459 44.435 34.4746 44.3129 34.4268C44.1907 34.3791 44.0601 34.3558 43.9287 34.3584H28.3568C28.2724 34.358 28.1903 34.331 28.1226 34.2813C28.0549 34.2317 28.005 34.1619 27.9804 34.0823L27.1452 31.3125H42.2855C42.6953 31.3126 43.0957 31.1916 43.4351 30.9652C43.7744 30.7388 44.0372 30.4173 44.1895 30.0422ZM32.0967 27.9913C32.0967 28.1482 32.0335 28.2987 31.921 28.4096C31.8085 28.5206 31.6559 28.5829 31.4967 28.5829C31.3376 28.5829 31.185 28.5206 31.0725 28.4096C30.96 28.2987 30.8967 28.1482 30.8967 27.9913V22.6449C30.8967 22.488 30.96 22.3375 31.0725 22.2266C31.185 22.1156 31.3376 22.0533 31.4967 22.0533C31.6559 22.0533 31.8085 22.1156 31.921 22.2266C32.0335 22.3375 32.0967 22.488 32.0967 22.6449V27.9913ZM38.7955 27.9913C38.7955 28.1482 38.7323 28.2987 38.6198 28.4096C38.5073 28.5206 38.3546 28.5829 38.1955 28.5829C38.0364 28.5829 37.8838 28.5206 37.7713 28.4096C37.6587 28.2987 37.5955 28.1482 37.5955 27.9913V22.6449C37.5955 22.488 37.6587 22.3375 37.7713 22.2266C37.8838 22.1156 38.0364 22.0533 38.1955 22.0533C38.3546 22.0533 38.5073 22.1156 38.6198 22.2266C38.7323 22.3375 38.7955 22.488 38.7955 22.6449V27.9913Z" fill="#F9FAFF"/>
<defs>
<filter id="filter0_d_279_17" x="0" y="0" width="66" height="63" filterUnits="userSpaceOnUse" color-interpolation-filters="sRGB">
<feFlood flood-opacity="0" result="BackgroundImageFix"/>
<feColorMatrix in="SourceAlpha" type="matrix" values="0 0 0 0 0 0 0 0 0 0 0 0 0 0 0 0 0 0 127 0" result="hardAlpha"/>
<feOffset dy="5"/>
<feGaussianBlur stdDeviation="2"/>
<feComposite in2="hardAlpha" operator="out"/>
<feColorMatrix type="matrix" values="0 0 0 0 0.462745 0 0 0 0 0.666667 0 0 0 0 0.670588 0 0 0 1 0"/>
<feBlend mode="normal" in2="BackgroundImageFix" result="effect1_dropShadow_279_17"/>
<feBlend mode="normal" in="SourceGraphic" in2="effect1_dropShadow_279_17" result="shape"/>
</filter>
</defs>
</svg>
