<svg width="272" height="89" viewBox="0 0 272 89" fill="none" xmlns="http://www.w3.org/2000/svg">
<g filter="url(#filter0_d_279_4)">
<rect x="35" y="18" width="172" height="54" rx="26.5" fill="#122F6A"/>
<rect x="36" y="19" width="170" height="52" rx="25.5" stroke="white" stroke-width="2"/>
</g>
<path d="M77.9734 47.3504V40.743C77.3489 34.7116 72.0099 30 65.5157 30C58.9131 30 53.5059 34.8711 53.0311 41.0468V42.3544H53.0214V47.4325C53.0071 47.6637 53 47.8969 53 48.132C53 48.3671 53.0071 48.6003 53.0214 48.8316C53.3657 54.4545 57.8333 59.0274 63.5965 59.8634C64.2265 59.9544 64.8628 60.0001 65.5 60C66.1372 60.0001 66.7735 59.9544 67.4035 59.8634C73.1386 59.0309 77.5904 54.4993 77.9734 48.9141C77.9912 48.6558 78 48.3948 78 48.1322C78 47.8697 77.9912 47.6086 77.9734 47.3504ZM72.5476 49.1844L68.9702 51.0615C68.771 51.166 68.6073 51.3231 68.4984 51.5141L66.5418 54.9462C66.0915 55.7365 64.9083 55.7365 64.4577 54.9462L62.5012 51.5141C62.3923 51.3231 62.2285 51.166 62.0294 51.0615L58.452 49.1844C57.6285 48.7523 57.6285 47.6172 58.452 47.1852L62.0294 45.3081C62.2285 45.2036 62.3922 45.0465 62.5012 44.8555L62.7562 44.4086C62.1127 43.9829 61.5866 43.4136 61.2233 42.7496C60.86 42.0856 60.6704 41.3468 60.6708 40.5969C60.6708 38.0382 62.8328 35.964 65.4998 35.964C68.1668 35.964 70.3288 38.0382 70.3288 40.5969C70.3292 41.3468 70.1396 42.0855 69.7764 42.7495C69.4131 43.4135 68.8871 43.9829 68.2436 44.4086L68.4984 44.8555C68.6073 45.0465 68.7711 45.2036 68.9702 45.3081L72.5476 47.1852C73.372 47.6172 73.3715 48.7521 72.5476 49.1844Z" fill="#60CBE8"/>
<path d="M92.4355 37.48H97.2955C102.616 37.48 104.516 40.64 104.516 44.3C104.516 48.2 102.216 51 97.8755 51H92.4355V45.06H90.8355V42.84H92.4355V37.48ZM95.1555 48.56H97.3955C98.6755 48.56 101.676 48.26 101.676 44.26C101.676 40.42 99.0755 39.92 97.2955 39.92H95.1555V42.84H97.0155V45.06H95.1555V48.56ZM110.679 40.26C109.239 40.26 108.419 39.82 107.939 39.28V37.46C108.479 37.98 109.239 38.56 110.679 38.56C112.119 38.56 112.879 37.98 113.439 37.46V39.28C112.939 39.82 112.119 40.26 110.679 40.26ZM115.499 49C115.839 49 116.199 48.78 116.419 48.56V50.68C116.179 50.86 115.639 51.2 114.659 51.2C112.899 51.2 112.359 50.2 112.359 49.24V48.88C111.959 50.06 110.699 51.2 108.679 51.2C107.159 51.2 106.039 50.52 106.039 48.88C106.059 46.48 108.399 45.8 112.219 44.92V44.74C112.219 44 111.579 43.4 110.299 43.4C108.559 43.4 107.339 44.22 106.619 45.24V42.84C107.119 42.08 108.339 41.22 110.539 41.22C112.659 41.22 114.899 42.1 114.899 44.86V48.08C114.899 48.42 114.959 49 115.499 49ZM109.839 49.24C111.219 49.24 112.219 48.1 112.219 46.8V46.42C110.019 46.94 108.759 47.34 108.759 48.3C108.759 48.9 109.079 49.24 109.839 49.24ZM120.607 51H117.947V41.5H120.527V43.64C120.927 42.22 122.027 41.2 123.727 41.2C125.867 41.2 127.227 42.58 127.227 45.04V51H124.567V45.86C124.567 44.64 124.247 43.54 122.707 43.54C121.447 43.54 120.607 44.68 120.607 46.14V51ZM129.263 46.26C129.263 43.4 130.683 41.22 133.463 41.22C134.883 41.22 135.963 41.84 136.563 43.06V41.5H139.223V50.84C139.223 53.9 137.423 55.6 133.943 55.6C131.663 55.6 130.423 54.84 129.883 54.22V51.6C130.563 52.48 131.783 53.32 133.743 53.32C136.263 53.32 136.543 51.9 136.543 50.78V49.48C135.983 50.66 134.943 51.26 133.483 51.26C130.683 51.26 129.263 49.08 129.263 46.26ZM132.003 46.24C132.003 47.98 132.843 49.08 134.303 49.08C135.803 49.08 136.703 48.04 136.703 46.24C136.703 44.36 135.783 43.38 134.303 43.38C132.843 43.38 132.003 44.5 132.003 46.24ZM148.674 51H146.014V41.5H148.594V43.64C148.994 42.22 150.094 41.2 151.794 41.2C153.934 41.2 155.294 42.58 155.294 45.04V51H152.634V45.86C152.634 44.64 152.314 43.54 150.774 43.54C149.514 43.54 148.674 44.68 148.674 46.14V51ZM160.529 51H157.869V37.08H160.529V43.36C160.989 42.12 162.049 41.2 163.649 41.2C165.829 41.2 167.149 42.58 167.149 45.06V51H164.489V45.98C164.489 44.72 164.229 43.54 162.629 43.54C161.389 43.54 160.529 44.66 160.529 46.14V51ZM174.425 39.86C175.891 39.86 177.011 40.18 177.785 40.82C178.571 41.4467 178.965 42.4133 178.965 43.72V51H176.885L176.305 49.52H176.225C175.918 49.9067 175.598 50.2267 175.265 50.48C174.945 50.7333 174.571 50.9133 174.145 51.02C173.731 51.14 173.218 51.2 172.605 51.2C171.965 51.2 171.385 51.08 170.865 50.84C170.358 50.5867 169.958 50.2067 169.665 49.7C169.371 49.18 169.225 48.5267 169.225 47.74C169.225 46.58 169.631 45.7267 170.445 45.18C171.258 44.62 172.478 44.3133 174.105 44.26L176.005 44.2V43.72C176.005 43.1467 175.851 42.7267 175.545 42.46C175.251 42.1933 174.838 42.06 174.305 42.06C173.771 42.06 173.251 42.14 172.745 42.3C172.238 42.4467 171.731 42.6333 171.225 42.86L170.245 40.84C170.831 40.5333 171.478 40.2933 172.185 40.12C172.905 39.9467 173.651 39.86 174.425 39.86ZM174.845 45.98C173.885 46.0067 173.218 46.18 172.845 46.5C172.471 46.82 172.285 47.24 172.285 47.76C172.285 48.2133 172.418 48.54 172.685 48.74C172.951 48.9267 173.298 49.02 173.725 49.02C174.365 49.02 174.905 48.8333 175.345 48.46C175.785 48.0733 176.005 47.5333 176.005 46.84V45.94L174.845 45.98ZM176.185 35.68C176.371 35.9733 176.611 36.3067 176.905 36.68C177.211 37.04 177.525 37.3933 177.845 37.74C178.165 38.0867 178.445 38.38 178.685 38.62V38.88H176.705C176.358 38.6667 175.978 38.42 175.565 38.14C175.151 37.8467 174.771 37.52 174.425 37.16C174.078 37.52 173.705 37.84 173.305 38.12C172.905 38.4 172.531 38.6533 172.185 38.88H170.205V38.62C170.458 38.3667 170.738 38.0733 171.045 37.74C171.365 37.3933 171.671 37.04 171.965 36.68C172.271 36.3067 172.518 35.9733 172.705 35.68H176.185ZM174.185 55.2C173.731 55.2 173.345 55.0933 173.025 54.88C172.718 54.6667 172.565 54.2867 172.565 53.74C172.565 53.18 172.718 52.7933 173.025 52.58C173.345 52.38 173.731 52.28 174.185 52.28C174.625 52.28 175.005 52.38 175.325 52.58C175.645 52.7933 175.805 53.18 175.805 53.74C175.805 54.2867 175.645 54.6667 175.325 54.88C175.005 55.0933 174.625 55.2 174.185 55.2ZM184.455 55.4H181.795V41.5H184.335V43.34C184.895 41.9 186.015 41.22 187.615 41.22C190.295 41.22 191.755 43.4 191.755 46.26C191.755 49.08 190.315 51.26 187.615 51.26C186.135 51.26 185.075 50.72 184.455 49.48V55.4ZM186.735 49.08C188.175 49.08 189.015 47.98 189.015 46.24C189.015 44.5 188.175 43.38 186.735 43.38C185.255 43.38 184.315 44.36 184.315 46.24C184.315 48.04 185.235 49.08 186.735 49.08Z" fill="white"/>
<defs>
<filter id="filter0_d_279_4" x="31" y="18" width="180" height="63" filterUnits="userSpaceOnUse" color-interpolation-filters="sRGB">
<feFlood flood-opacity="0" result="BackgroundImageFix"/>
<feColorMatrix in="SourceAlpha" type="matrix" values="0 0 0 0 0 0 0 0 0 0 0 0 0 0 0 0 0 0 127 0" result="hardAlpha"/>
<feOffset dy="5"/>
<feGaussianBlur stdDeviation="2"/>
<feComposite in2="hardAlpha" operator="out"/>
<feColorMatrix type="matrix" values="0 0 0 0 0.461838 0 0 0 0 0.66584 0 0 0 0 0.669298 0 0 0 1 0"/>
<feBlend mode="normal" in2="BackgroundImageFix" result="effect1_dropShadow_279_4"/>
<feBlend mode="normal" in="SourceGraphic" in2="effect1_dropShadow_279_4" result="shape"/>
</filter>
</defs>
</svg>
