<svg width="180" height="63" viewBox="0 0 180 63" fill="none" xmlns="http://www.w3.org/2000/svg">
<g filter="url(#filter0_d_279_32)">
<rect x="4" width="172" height="54" rx="26.5" fill="#122F6A"/>
<rect x="5" y="1" width="170" height="52" rx="25.5" stroke="white" stroke-width="2"/>
</g>
<path d="M46.9734 29.3504V22.743C46.3489 16.7116 41.0099 12 34.5157 12C27.9131 12 22.5059 16.8711 22.0311 23.0468V24.3544H22.0214V29.4325C22.0071 29.6637 22 29.8969 22 30.132C22 30.3671 22.0071 30.6003 22.0214 30.8316C22.3657 36.4545 26.8333 41.0274 32.5965 41.8634C33.2265 41.9544 33.8628 42.0001 34.5 42C35.1372 42.0001 35.7735 41.9544 36.4035 41.8634C42.1386 41.0309 46.5904 36.4993 46.9734 30.9141C46.9912 30.6558 47 30.3948 47 30.1322C47 29.8697 46.9912 29.6086 46.9734 29.3504ZM41.5476 31.1844L37.9702 33.0615C37.771 33.166 37.6073 33.3231 37.4984 33.5141L35.5418 36.9462C35.0915 37.7365 33.9083 37.7365 33.4577 36.9462L31.5012 33.5141C31.3923 33.3231 31.2285 33.166 31.0294 33.0615L27.452 31.1844C26.6285 30.7523 26.6285 29.6172 27.452 29.1852L31.0294 27.3081C31.2285 27.2036 31.3922 27.0465 31.5012 26.8555L31.7562 26.4086C31.1127 25.9829 30.5866 25.4136 30.2233 24.7496C29.86 24.0856 29.6704 23.3468 29.6708 22.5969C29.6708 20.0382 31.8328 17.964 34.4998 17.964C37.1668 17.964 39.3288 20.0382 39.3288 22.5969C39.3292 23.3468 39.1396 24.0855 38.7764 24.7495C38.4131 25.4135 37.8871 25.9829 37.2436 26.4086L37.4984 26.8555C37.6073 27.0465 37.7711 27.2036 37.9702 27.3081L41.5476 29.1852C42.372 29.6172 42.3715 30.7521 41.5476 31.1844Z" fill="#60CBE8"/>
<defs>
<filter id="filter0_d_279_32" x="0" y="0" width="180" height="63" filterUnits="userSpaceOnUse" color-interpolation-filters="sRGB">
<feFlood flood-opacity="0" result="BackgroundImageFix"/>
<feColorMatrix in="SourceAlpha" type="matrix" values="0 0 0 0 0 0 0 0 0 0 0 0 0 0 0 0 0 0 127 0" result="hardAlpha"/>
<feOffset dy="5"/>
<feGaussianBlur stdDeviation="2"/>
<feComposite in2="hardAlpha" operator="out"/>
<feColorMatrix type="matrix" values="0 0 0 0 0.461838 0 0 0 0 0.66584 0 0 0 0 0.669298 0 0 0 1 0"/>
<feBlend mode="normal" in2="BackgroundImageFix" result="effect1_dropShadow_279_32"/>
<feBlend mode="normal" in="SourceGraphic" in2="effect1_dropShadow_279_32" result="shape"/>
</filter>
</defs>
</svg>
