<svg width="360" height="57" viewBox="0 0 360 57" fill="none" xmlns="http://www.w3.org/2000/svg">
<rect width="360" height="57" rx="27.5" fill="#68E5E3"/>
<rect x="1.5" y="1.5" width="357" height="54" rx="26" stroke="white" stroke-opacity="0.98" stroke-width="3"/>
<path d="M44.01 31.552L43.36 30.642H39.07V34.49H43.36L44.01 33.58V31.552ZM44.01 24.22L43.36 23.31H39.07V27.158H43.36L44.01 26.248V24.22ZM48.04 35.088L45.96 38H35.04V19.8H45.96L48.04 22.712V27.47L46.558 28.692L48.04 29.914V35.088ZM57.818 23.83H55.556L54.516 30.564L55.166 31.474H58.208L58.858 30.564L57.818 23.83ZM54.152 33.398L53.372 38H49.342L52.8 20.71L53.45 19.8H59.95L60.6 20.71L64.058 38H60.028L59.248 33.398L58.598 34.308H54.802L54.152 33.398ZM51.89 14.6V12.91L53.45 12.416L61.224 11.844V13.014L53.45 14.6H51.89ZM53.294 18.812L51.24 16.888V15.588H53.138L54.568 16.81H58.546L59.976 15.588H61.874V16.888L59.82 18.812H53.294ZM66.6044 25H64.3164V22.712L66.3964 19.8H76.0424L78.1224 22.712V25H75.8344L73.2344 23.05V38H69.2044V23.05L66.6044 25ZM93.735 23.83H89.445V27.678H91.655V30.33H89.445V33.97H93.735L94.385 33.06V24.74L93.735 23.83ZM85.415 27.678V19.8H96.335L98.415 22.712V35.088L96.335 38H85.415V30.33H83.855V27.678H85.415ZM108.193 23.83H105.931L104.891 30.564L105.541 31.474H108.583L109.233 30.564L108.193 23.83ZM104.527 33.398L103.747 38H99.717L103.175 20.71L103.825 19.8H110.325L110.975 20.71L114.433 38H110.403L109.623 33.398L108.973 34.308H105.177L104.527 33.398ZM103.825 14.028L102.265 13.534V11.844H103.825L111.599 13.43V14.6L103.825 14.028ZM103.513 18.812H101.615V17.512L103.669 15.588H110.195L112.249 17.512V18.812H110.351L108.921 17.59H104.943L103.513 18.812ZM115.731 35.088V19.8H119.761V33.06L120.411 33.97H124.909L125.559 33.06V19.8H129.589V35.088L127.509 38H117.811L115.731 35.088ZM141.173 28.328L137.923 21.828V19.8H141.823L144.813 27.08L147.933 19.8H151.833V21.828L148.583 28.328L151.833 35.972V38H147.933L144.813 30.72L141.823 38H137.923V35.972L141.173 28.328ZM161.615 23.83H159.353L158.313 30.564L158.963 31.474H162.005L162.655 30.564L161.615 23.83ZM157.949 33.398L157.169 38H153.139L156.597 20.71L157.247 19.8H163.747L164.397 20.71L167.855 38H163.825L163.045 33.398L162.395 34.308H158.599L157.949 33.398ZM156.935 18.812H155.037V17.512L157.091 15.588H163.617L165.671 17.512V18.812H163.773L162.343 17.59H158.365L156.935 18.812ZM172.247 30.824L168.243 21.828V19.8H171.883L174.249 26.638L176.589 19.8H180.229V21.828L176.277 30.824V38H172.247V30.824ZM195.62 24.74L194.97 23.83H191.668V27.99H194.97L195.62 27.08V24.74ZM191.668 32.02V38H187.638V19.8H197.57L199.65 22.712V29.108L197.57 32.02H191.668ZM205.759 38H201.729V19.8H205.759V25.65L206.409 26.56H210.049L210.699 25.65V19.8H214.729V38H210.699V31.5L210.049 30.59H206.409L205.759 31.5V38ZM226.171 23.83H221.491L220.841 24.74V33.06L221.491 33.97H226.171L226.821 33.06V24.74L226.171 23.83ZM218.891 38L216.811 35.088V22.712L218.891 19.8H228.771L230.851 22.712V35.088L228.771 38H218.891ZM220.477 18.24L218.917 17.746V16.056H220.477L228.251 17.642V18.812L220.477 18.24ZM241.697 19.8H245.727V35.088L243.647 38H241.697L237.615 28.9H236.965V38H232.935V22.712L235.015 19.8H236.965L241.047 28.9H241.697V19.8ZM256.887 38H247.813V19.8H258.083L260.163 22.712V24.74H256.783L256.133 23.83H251.843V33.97H256.133V31.63H253.845V27.6H260.163V38H258.187L257.537 37.09L256.887 38ZM277.243 19.8H281.273V35.088L279.193 38H277.243L273.161 28.9H272.511V38H268.481V22.712L270.561 19.8H272.511L276.593 28.9H277.243V19.8ZM292.434 38H283.36V19.8H293.63L295.71 22.712V24.74H292.33L291.68 23.83H287.39V33.97H291.68V31.63H289.392V27.6H295.71V38H293.734L293.084 37.09L292.434 38ZM305.478 23.83H303.216L302.176 30.564L302.826 31.474H305.868L306.518 30.564L305.478 23.83ZM301.812 33.398L301.032 38H297.002L300.46 20.71L301.11 19.8H307.61L308.26 20.71L311.718 38H307.688L306.908 33.398L306.258 34.308H302.462L301.812 33.398ZM316.111 30.824L312.107 21.828V19.8H315.747L318.113 26.638L320.453 19.8H324.093V21.828L320.141 30.824V38H316.111V30.824Z" fill="#122F6A"/>
</svg>
