<svg width="342" height="83" viewBox="0 0 342 83" fill="none" xmlns="http://www.w3.org/2000/svg">
<g filter="url(#filter0_di_297_303)">
<rect x="4" width="334" height="73" rx="36.5" fill="url(#paint0_linear_297_303)"/>
<rect x="5.5" y="1.5" width="331" height="70" rx="35" stroke="white" stroke-width="3"/>
</g>
<path d="M49.8664 42.52L49.6144 37.284L58.9944 27.4H64.0344L55.5784 36.5L53.0584 39.188L49.8664 42.52ZM45.8064 47V27.4H50.3144V47H45.8064ZM59.2184 47L52.2464 38.46L55.2144 35.24L64.5104 47H59.2184ZM79.973 27.4H84.509V47H79.973V27.4ZM71.069 47H66.533V27.4H71.069V47ZM80.309 38.964H70.733V35.128H80.309V38.964ZM86.5703 47L95.3063 27.4H99.7863L108.55 47H103.79L96.6223 29.696H98.4143L91.2183 47H86.5703ZM90.9383 42.8L92.1423 39.356H102.222L103.454 42.8H90.9383ZM94.9983 25.804L98.7783 21.772H103.482L98.4143 25.804H94.9983ZM110.584 47V27.4H114.336L122.68 41.232H120.692L128.896 27.4H132.62L132.676 47H128.42L128.392 33.924H129.176L122.624 44.928H120.58L113.888 33.924H114.84V47H110.584ZM145.256 47V27.4H153.74C155.494 27.4 157.006 27.6893 158.276 28.268C159.545 28.828 160.525 29.64 161.216 30.704C161.906 31.768 162.252 33.0373 162.252 34.512C162.252 35.968 161.906 37.228 161.216 38.292C160.525 39.356 159.545 40.1773 158.276 40.756C157.006 41.316 155.494 41.596 153.74 41.596H147.776L149.792 39.552V47H145.256ZM149.792 40.056L147.776 37.9H153.488C154.888 37.9 155.933 37.6013 156.624 37.004C157.314 36.4067 157.66 35.576 157.66 34.512C157.66 33.4293 157.314 32.5893 156.624 31.992C155.933 31.3947 154.888 31.096 153.488 31.096H147.776L149.792 28.94V40.056ZM178.93 27.4H183.466V47H178.93V27.4ZM170.026 47H165.49V27.4H170.026V47ZM179.266 38.964H169.69V35.128H179.266V38.964ZM185.527 47L194.263 27.4H198.743L207.507 47H202.747L195.579 29.696H197.371L190.175 47H185.527ZM189.895 42.8L191.099 39.356H201.179L202.411 42.8H189.895ZM193.955 25.804L197.735 21.772H202.439L197.371 25.804H193.955ZM217.47 47V27.4H221.222L232.786 41.512H230.966V27.4H235.446V47H231.722L220.13 32.888H221.95V47H217.47ZM249.548 47.336C247.998 47.336 246.57 47.0933 245.264 46.608C243.976 46.104 242.846 45.3947 241.876 44.48C240.924 43.5653 240.177 42.492 239.636 41.26C239.113 40.028 238.852 38.6747 238.852 37.2C238.852 35.7253 239.113 34.372 239.636 33.14C240.177 31.908 240.933 30.8347 241.904 29.92C242.874 29.0053 244.013 28.3053 245.32 27.82C246.626 27.316 248.064 27.064 249.632 27.064C251.368 27.064 252.926 27.3533 254.308 27.932C255.708 28.5107 256.884 29.3507 257.836 30.452L254.924 33.14C254.214 32.3933 253.44 31.8427 252.6 31.488C251.76 31.1147 250.845 30.928 249.856 30.928C248.904 30.928 248.036 31.0773 247.252 31.376C246.468 31.6747 245.786 32.104 245.208 32.664C244.648 33.224 244.209 33.8867 243.892 34.652C243.593 35.4173 243.444 36.2667 243.444 37.2C243.444 38.1147 243.593 38.9547 243.892 39.72C244.209 40.4853 244.648 41.1573 245.208 41.736C245.786 42.296 246.458 42.7253 247.224 43.024C248.008 43.3227 248.866 43.472 249.8 43.472C250.696 43.472 251.564 43.332 252.404 43.052C253.262 42.7533 254.093 42.2587 254.896 41.568L257.472 44.844C256.408 45.6467 255.166 46.2627 253.748 46.692C252.348 47.1213 250.948 47.336 249.548 47.336ZM253.328 44.256V36.892H257.472V44.844L253.328 44.256ZM259.109 47L267.845 27.4H272.325L281.089 47H276.329L269.161 29.696H270.953L263.757 47H259.109ZM263.477 42.8L264.681 39.356H274.761L275.993 42.8H263.477ZM286.792 47V38.992L287.828 41.736L279.204 27.4H284.02L290.628 38.404H287.856L294.492 27.4H298.944L290.32 41.736L291.328 38.992V47H286.792Z" fill="white"/>
<defs>
<filter id="filter0_di_297_303" x="0" y="0" width="342" height="83" filterUnits="userSpaceOnUse" color-interpolation-filters="sRGB">
<feFlood flood-opacity="0" result="BackgroundImageFix"/>
<feColorMatrix in="SourceAlpha" type="matrix" values="0 0 0 0 0 0 0 0 0 0 0 0 0 0 0 0 0 0 127 0" result="hardAlpha"/>
<feOffset dy="6"/>
<feGaussianBlur stdDeviation="2"/>
<feComposite in2="hardAlpha" operator="out"/>
<feColorMatrix type="matrix" values="0 0 0 0 0.0232805 0 0 0 0 0.105455 0 0 0 0 0.402547 0 0 0 0.5 0"/>
<feBlend mode="normal" in2="BackgroundImageFix" result="effect1_dropShadow_297_303"/>
<feBlend mode="normal" in="SourceGraphic" in2="effect1_dropShadow_297_303" result="shape"/>
<feColorMatrix in="SourceAlpha" type="matrix" values="0 0 0 0 0 0 0 0 0 0 0 0 0 0 0 0 0 0 127 0" result="hardAlpha"/>
<feMorphology radius="3" operator="erode" in="SourceAlpha" result="effect2_innerShadow_297_303"/>
<feOffset dy="4"/>
<feGaussianBlur stdDeviation="2.3"/>
<feComposite in2="hardAlpha" operator="arithmetic" k2="-1" k3="1"/>
<feColorMatrix type="matrix" values="0 0 0 0 0 0 0 0 0 0 0 0 0 0 0 0 0 0 0.5 0"/>
<feBlend mode="normal" in2="shape" result="effect2_innerShadow_297_303"/>
</filter>
<linearGradient id="paint0_linear_297_303" x1="4" y1="36.5" x2="338" y2="36.5" gradientUnits="userSpaceOnUse">
<stop stop-color="#746FFC"/>
<stop offset="1" stop-color="#61B6FF"/>
</linearGradient>
</defs>
</svg>
