<svg width="289" height="67" viewBox="0 0 289 67" fill="none" xmlns="http://www.w3.org/2000/svg">
<rect width="289" height="66.1401" rx="27.5" fill="#68E5E3"/>
<rect x="1.5" y="1.5" width="286" height="63.1401" rx="26" stroke="white" stroke-opacity="0.98" stroke-width="3"/>
<path d="M68.0998 30.7906H63.1498V35.2306H65.6998V38.2906H63.1498V42.4906H68.0998L68.8498 41.4406V31.8406L68.0998 30.7906ZM58.4998 35.2306V26.1406H71.0998L73.4998 29.5006V43.7806L71.0998 47.1406H58.4998V38.2906H56.6998V35.2306H58.4998ZM78.0921 25.0006H75.9021V23.5006L78.2721 21.2806H85.8021L88.1721 23.5006V25.0006H85.9821L84.3321 23.5906H79.7421L78.0921 25.0006ZM87.4221 47.1406H75.9021V26.1406H87.4221L89.8221 29.5006V31.8406H86.1921L85.4421 30.7906H80.5521V34.8406H86.1921V38.4406H80.5521V42.4906H85.4421L86.1921 41.4406H89.8221V43.7806L87.4221 47.1406ZM77.2521 18.1906L79.0521 17.6206L88.0221 16.9606V18.3106L79.0521 20.1406H77.2521V18.1906ZM102.331 26.1406H106.981V43.7806L104.581 47.1406H102.331L97.6205 36.6406H96.8705V47.1406H92.2205V29.5006L94.6205 26.1406H96.8705L101.581 36.6406H102.331V26.1406ZM116.596 26.1406H129.196L131.596 29.5006V43.7806L129.196 47.1406H116.596V26.1406ZM121.246 30.7906V42.4906H126.196L126.946 41.4406V31.8406L126.196 30.7906H121.246ZM133.998 47.1406V26.1406H138.648V47.1406H133.998ZM154.978 43.7806L152.578 47.1406H141.058V26.1406H152.578L154.978 29.5006V31.8406H151.348L150.598 30.7906H145.708V34.8406H151.348V38.4406H145.708V42.4906H150.598L151.348 41.4406H154.978V43.7806ZM150.538 20.1406L145.108 18.2506L142.108 20.1406H141.058V18.0406L145.108 15.9706L150.538 17.8606L152.578 16.8406H153.328V18.9406L150.538 20.1406ZM144.898 23.5906L143.248 25.0006H141.058V23.5006L143.428 21.2806H150.958L153.328 23.5006V25.0006H151.138L149.488 23.5906H144.898ZM167.487 26.1406H172.137V43.7806L169.737 47.1406H167.487L162.777 36.6406H162.027V47.1406H157.377V29.5006L159.777 26.1406H162.027L166.737 36.6406H167.487V26.1406ZM191.352 30.7906H186.402V35.2306H188.952V38.2906H186.402V42.4906H191.352L192.102 41.4406V31.8406L191.352 30.7906ZM181.752 35.2306V26.1406H194.352L196.752 29.5006V43.7806L194.352 47.1406H181.752V38.2906H179.952V35.2306H181.752ZM208.034 30.7906H205.424L204.224 38.5606L204.974 39.6106H208.484L209.234 38.5606L208.034 30.7906ZM203.804 41.8306L202.904 47.1406H198.254L202.244 27.1906L202.994 26.1406H210.494L211.244 27.1906L215.234 47.1406H210.584L209.684 41.8306L208.934 42.8806H204.554L203.804 41.8306ZM202.994 24.3406L201.194 23.7706V21.8206H202.994L211.964 23.6506V25.0006L202.994 24.3406ZM226.842 26.1406H231.492V43.7806L229.092 47.1406H226.842L222.132 36.6406H221.382V47.1406H216.732V29.5006L219.132 26.1406H221.382L226.092 36.6406H226.842V26.1406Z" fill="#122F6A"/>
</svg>
