<svg width="289" height="67" viewBox="0 0 289 67" fill="none" xmlns="http://www.w3.org/2000/svg">
<rect width="289" height="66.1401" rx="27.5" fill="#68E5E3"/>
<rect x="1.5" y="1.5" width="286" height="63.1401" rx="26" stroke="white" stroke-opacity="0.98" stroke-width="3"/>
<path d="M41.8738 35.9806L38.1238 28.4806V26.1406H42.6238L46.0738 34.5406L49.6738 26.1406H54.1738V28.4806L50.4238 35.9806L54.1738 44.8006V47.1406H49.6738L46.0738 38.7406L42.6238 47.1406H38.1238V44.8006L41.8738 35.9806ZM65.4609 30.7906H62.8509L61.6509 38.5606L62.4009 39.6106H65.9109L66.6609 38.5606L65.4609 30.7906ZM61.2309 41.8306L60.3309 47.1406H55.6809L59.6709 27.1906L60.4209 26.1406H67.9209L68.6709 27.1906L72.6609 47.1406H68.0109L67.1109 41.8306L66.3609 42.8806H61.9809L61.2309 41.8306ZM60.0609 25.0006H57.8709V23.5006L60.2409 21.2806H67.7709L70.1409 23.5006V25.0006H67.9509L66.3009 23.5906H61.7109L60.0609 25.0006ZM77.729 38.8606L73.109 28.4806V26.1406H77.309L80.039 34.0306L82.739 26.1406H86.939V28.4806L82.379 38.8606V47.1406H77.729V38.8606ZM104.697 31.8406L103.947 30.7906H100.137V35.5906H103.947L104.697 34.5406V31.8406ZM100.137 40.2406V47.1406H95.4871V26.1406H106.947L109.347 29.5006V36.8806L106.947 40.2406H100.137ZM116.397 47.1406H111.747V26.1406H116.397V32.8906L117.147 33.9406H121.347L122.097 32.8906V26.1406H126.747V47.1406H122.097V39.6406L121.347 38.5906H117.147L116.397 39.6406V47.1406ZM139.949 30.7906H134.549L133.799 31.8406V41.4406L134.549 42.4906H139.949L140.699 41.4406V31.8406L139.949 30.7906ZM131.549 47.1406L129.149 43.7806V29.5006L131.549 26.1406H142.949L145.349 29.5006V43.7806L142.949 47.1406H131.549ZM133.379 24.3406L131.579 23.7706V21.8206H133.379L142.349 23.6506V25.0006L133.379 24.3406ZM157.863 26.1406H162.513V43.7806L160.113 47.1406H157.863L153.153 36.6406H152.403V47.1406H147.753V29.5006L150.153 26.1406H152.403L157.113 36.6406H157.863V26.1406ZM175.391 47.1406H164.921V26.1406H176.771L179.171 29.5006V31.8406H175.271L174.521 30.7906H169.571V42.4906H174.521V39.7906H171.881V35.1406H179.171V47.1406H176.891L176.141 46.0906L175.391 47.1406ZM198.878 26.1406H203.528V43.7806L201.128 47.1406H198.878L194.168 36.6406H193.418V47.1406H188.768V29.5006L191.168 26.1406H193.418L198.128 36.6406H198.878V26.1406ZM216.406 47.1406H205.936V26.1406H217.786L220.186 29.5006V31.8406H216.286L215.536 30.7906H210.586V42.4906H215.536V39.7906H212.896V35.1406H220.186V47.1406H217.906L217.156 46.0906L216.406 47.1406ZM231.457 30.7906H228.847L227.647 38.5606L228.397 39.6106H231.907L232.657 38.5606L231.457 30.7906ZM227.227 41.8306L226.327 47.1406H221.677L225.667 27.1906L226.417 26.1406H233.917L234.667 27.1906L238.657 47.1406H234.007L233.107 41.8306L232.357 42.8806H227.977L227.227 41.8306ZM243.725 38.8606L239.105 28.4806V26.1406H243.305L246.035 34.0306L248.735 26.1406H252.935V28.4806L248.375 38.8606V47.1406H243.725V38.8606Z" fill="#122F6A"/>
</svg>
