<svg width="55" height="83" viewBox="0 0 55 83" fill="none" xmlns="http://www.w3.org/2000/svg">
<rect x="1" y="4.27734" width="45.8487" height="63.5462" stroke="white" stroke-width="2"/>
<path d="M42.6055 57.6302L33.4441 63.5798H5.24414V7.86548H42.6055V57.6302Z" fill="white"/>
<rect x="9.83203" y="15.7311" width="15.0756" height="12.4538" fill="#6380BE"/>
<rect x="26.2188" y="15.7312" width="11.7983" height="2.62185" fill="#6380BE"/>
<rect x="26.2188" y="19.6639" width="11.7983" height="0.655462" fill="#6380BE"/>
<rect x="26.2188" y="23.5968" width="11.7983" height="0.655462" fill="#6380BE"/>
<rect x="26.2188" y="21.6304" width="11.7983" height="0.655462" fill="#6380BE"/>
<rect x="9.83203" y="30.8068" width="15.0756" height="12.4538" fill="#6380BE"/>
<rect x="26.2188" y="30.8068" width="11.7983" height="2.62185" fill="#6380BE"/>
<rect x="26.2188" y="34.7395" width="11.7983" height="0.655462" fill="#6380BE"/>
<rect x="26.2188" y="38.6722" width="11.7983" height="0.655462" fill="#6380BE"/>
<rect x="26.2188" y="36.7058" width="11.7983" height="0.655462" fill="#6380BE"/>
<rect x="9.83203" y="30.8069" width="15.0756" height="12.4538" fill="#6380BE"/>
<rect x="26.2188" y="30.8069" width="11.7983" height="2.62185" fill="#6380BE"/>
<rect x="26.2188" y="34.7396" width="11.7983" height="0.655462" fill="#6380BE"/>
<rect x="26.2188" y="38.6724" width="11.7983" height="0.655462" fill="#6380BE"/>
<rect x="26.2188" y="36.7059" width="11.7983" height="0.655462" fill="#6380BE"/>
<rect x="9.83203" y="46.5381" width="15.0756" height="12.4538" fill="#6380BE"/>
<rect x="26.2188" y="46.5381" width="11.7983" height="2.62185" fill="#6380BE"/>
<rect x="26.2188" y="50.4708" width="11.7983" height="0.655462" fill="#6380BE"/>
<rect x="26.2188" y="54.4036" width="11.7983" height="0.655462" fill="#6380BE"/>
<rect x="26.2188" y="52.4373" width="11.7983" height="0.655462" fill="#6380BE"/>
<rect x="13.1094" width="22.2857" height="9.83193" fill="#6380BE"/>
<path d="M34.0002 56.5186L40.8143 57.6017L32.3551 63.2193L34.0002 56.5186Z" fill="#D9D9D9"/>
<rect x="51.0612" y="53.5208" width="2.53847" height="26.5319" transform="rotate(35.995 51.0612 53.5208)" stroke="white" stroke-width="2.53847"/>
<path d="M32.9794 80.574L33.2787 76.4215L36.836 79.0055L32.9794 80.574Z" fill="white"/>
</svg>
