<svg width="133" height="44" viewBox="0 0 133 44" fill="none" xmlns="http://www.w3.org/2000/svg">
<rect width="133" height="43.2517" rx="7" fill="#1F3C75"/>
<path d="M47.152 26V17.6H50.968C51.88 17.6 52.684 17.776 53.38 18.128C54.076 18.472 54.62 18.956 55.012 19.58C55.404 20.204 55.6 20.944 55.6 21.8C55.6 22.648 55.404 23.388 55.012 24.02C54.62 24.644 54.076 25.132 53.38 25.484C52.684 25.828 51.88 26 50.968 26H47.152ZM49.096 24.404H50.872C51.432 24.404 51.916 24.3 52.324 24.092C52.74 23.876 53.06 23.572 53.284 23.18C53.516 22.788 53.632 22.328 53.632 21.8C53.632 21.264 53.516 20.804 53.284 20.42C53.06 20.028 52.74 19.728 52.324 19.52C51.916 19.304 51.432 19.196 50.872 19.196H49.096V24.404ZM46.024 22.364V21.068H51.208V22.364H46.024ZM60.0024 26.096C59.3144 26.096 58.7024 25.952 58.1664 25.664C57.6384 25.376 57.2184 24.984 56.9064 24.488C56.6024 23.984 56.4504 23.412 56.4504 22.772C56.4504 22.124 56.6024 21.552 56.9064 21.056C57.2184 20.552 57.6384 20.16 58.1664 19.88C58.7024 19.592 59.3144 19.448 60.0024 19.448C60.6824 19.448 61.2904 19.592 61.8264 19.88C62.3624 20.16 62.7824 20.548 63.0864 21.044C63.3904 21.54 63.5424 22.116 63.5424 22.772C63.5424 23.412 63.3904 23.984 63.0864 24.488C62.7824 24.984 62.3624 25.376 61.8264 25.664C61.2904 25.952 60.6824 26.096 60.0024 26.096ZM60.0024 24.56C60.3144 24.56 60.5944 24.488 60.8424 24.344C61.0904 24.2 61.2864 23.996 61.4304 23.732C61.5744 23.46 61.6464 23.14 61.6464 22.772C61.6464 22.396 61.5744 22.076 61.4304 21.812C61.2864 21.548 61.0904 21.344 60.8424 21.2C60.5944 21.056 60.3144 20.984 60.0024 20.984C59.6904 20.984 59.4104 21.056 59.1624 21.2C58.9144 21.344 58.7144 21.548 58.5624 21.812C58.4184 22.076 58.3464 22.396 58.3464 22.772C58.3464 23.14 58.4184 23.46 58.5624 23.732C58.7144 23.996 58.9144 24.2 59.1624 24.344C59.4104 24.488 59.6904 24.56 60.0024 24.56ZM57.5664 18.716L59.1624 17.348H60.7944L62.3904 18.716H61.0104L59.3904 17.636H60.5664L58.9464 18.716H57.5664ZM62.1384 17.564L60.2544 16.112H62.1624L63.4824 17.564H62.1384ZM70.8321 26.096C70.0721 26.096 69.4801 25.904 69.0561 25.52C68.6321 25.128 68.4201 24.548 68.4201 23.78V18.116H70.2921V23.756C70.2921 24.028 70.3641 24.24 70.5081 24.392C70.6521 24.536 70.8481 24.608 71.0961 24.608C71.3921 24.608 71.6441 24.528 71.8521 24.368L72.3561 25.688C72.1641 25.824 71.9321 25.928 71.6601 26C71.3961 26.064 71.1201 26.096 70.8321 26.096ZM67.4241 20.984V19.544H71.9001V20.984H67.4241ZM73.407 26V19.544H75.195V21.368L74.943 20.84C75.135 20.384 75.443 20.04 75.867 19.808C76.291 19.568 76.807 19.448 77.415 19.448V21.176C77.335 21.168 77.263 21.164 77.199 21.164C77.135 21.156 77.067 21.152 76.995 21.152C76.483 21.152 76.067 21.3 75.747 21.596C75.435 21.884 75.279 22.336 75.279 22.952V26H73.407ZM82.0662 26V24.74L81.9462 24.464V22.208C81.9462 21.808 81.8222 21.496 81.5742 21.272C81.3342 21.048 80.9622 20.936 80.4582 20.936C80.1142 20.936 79.7742 20.992 79.4382 21.104C79.1102 21.208 78.8302 21.352 78.5982 21.536L77.9262 20.228C78.2782 19.98 78.7022 19.788 79.1982 19.652C79.6942 19.516 80.1982 19.448 80.7102 19.448C81.6942 19.448 82.4582 19.68 83.0022 20.144C83.5462 20.608 83.8182 21.332 83.8182 22.316V26H82.0662ZM80.0982 26.096C79.5942 26.096 79.1622 26.012 78.8022 25.844C78.4422 25.668 78.1662 25.432 77.9742 25.136C77.7822 24.84 77.6862 24.508 77.6862 24.14C77.6862 23.756 77.7782 23.42 77.9622 23.132C78.1542 22.844 78.4542 22.62 78.8622 22.46C79.2702 22.292 79.8022 22.208 80.4582 22.208H82.1742V23.3H80.6622C80.2222 23.3 79.9182 23.372 79.7502 23.516C79.5902 23.66 79.5102 23.84 79.5102 24.056C79.5102 24.296 79.6022 24.488 79.7862 24.632C79.9782 24.768 80.2382 24.836 80.5662 24.836C80.8782 24.836 81.1582 24.764 81.4062 24.62C81.6542 24.468 81.8342 24.248 81.9462 23.96L82.2342 24.824C82.0982 25.24 81.8502 25.556 81.4902 25.772C81.1302 25.988 80.6662 26.096 80.0982 26.096ZM85.5124 26V19.544H87.3004V21.332L86.9644 20.792C87.1964 20.36 87.5284 20.028 87.9604 19.796C88.3924 19.564 88.8844 19.448 89.4364 19.448C89.9484 19.448 90.4044 19.552 90.8044 19.76C91.2124 19.96 91.5324 20.272 91.7644 20.696C91.9964 21.112 92.1124 21.648 92.1124 22.304V26H90.2404V22.592C90.2404 22.072 90.1244 21.688 89.8924 21.44C89.6684 21.192 89.3484 21.068 88.9324 21.068C88.6364 21.068 88.3684 21.132 88.1284 21.26C87.8964 21.38 87.7124 21.568 87.5764 21.824C87.4484 22.08 87.3844 22.408 87.3844 22.808V26H85.5124ZM96.8922 28.424C96.2842 28.424 95.6962 28.348 95.1282 28.196C94.5682 28.052 94.1002 27.832 93.7242 27.536L94.4682 26.192C94.7402 26.416 95.0842 26.592 95.5002 26.72C95.9242 26.856 96.3402 26.924 96.7482 26.924C97.4122 26.924 97.8922 26.776 98.1882 26.48C98.4922 26.184 98.6442 25.744 98.6442 25.16V24.188L98.7642 22.568L98.7402 20.936V19.544H100.516V24.92C100.516 26.12 100.204 27.004 99.5802 27.572C98.9562 28.14 98.0602 28.424 96.8922 28.424ZM96.6042 25.688C96.0042 25.688 95.4602 25.56 94.9722 25.304C94.4922 25.04 94.1042 24.676 93.8082 24.212C93.5202 23.74 93.3762 23.192 93.3762 22.568C93.3762 21.936 93.5202 21.388 93.8082 20.924C94.1042 20.452 94.4922 20.088 94.9722 19.832C95.4602 19.576 96.0042 19.448 96.6042 19.448C97.1482 19.448 97.6282 19.56 98.0442 19.784C98.4602 20 98.7842 20.34 99.0162 20.804C99.2482 21.26 99.3642 21.848 99.3642 22.568C99.3642 23.28 99.2482 23.868 99.0162 24.332C98.7842 24.788 98.4602 25.128 98.0442 25.352C97.6282 25.576 97.1482 25.688 96.6042 25.688ZM96.9762 24.152C97.3042 24.152 97.5962 24.088 97.8522 23.96C98.1082 23.824 98.3082 23.636 98.4522 23.396C98.5962 23.156 98.6682 22.88 98.6682 22.568C98.6682 22.248 98.5962 21.972 98.4522 21.74C98.3082 21.5 98.1082 21.316 97.8522 21.188C97.5962 21.052 97.3042 20.984 96.9762 20.984C96.6482 20.984 96.3562 21.052 96.1002 21.188C95.8442 21.316 95.6402 21.5 95.4882 21.74C95.3442 21.972 95.2722 22.248 95.2722 22.568C95.2722 22.88 95.3442 23.156 95.4882 23.396C95.6402 23.636 95.8442 23.824 96.1002 23.96C96.3562 24.088 96.6482 24.152 96.9762 24.152ZM108.297 26.096C107.537 26.096 106.945 25.904 106.521 25.52C106.097 25.128 105.885 24.548 105.885 23.78V18.116H107.757V23.756C107.757 24.028 107.829 24.24 107.973 24.392C108.117 24.536 108.313 24.608 108.561 24.608C108.857 24.608 109.109 24.528 109.317 24.368L109.821 25.688C109.629 25.824 109.397 25.928 109.125 26C108.861 26.064 108.585 26.096 108.297 26.096ZM104.889 20.984V19.544H109.365V20.984H104.889ZM110.872 26V19.544H112.66V21.368L112.408 20.84C112.6 20.384 112.908 20.04 113.332 19.808C113.756 19.568 114.272 19.448 114.88 19.448V21.176C114.8 21.168 114.728 21.164 114.664 21.164C114.6 21.156 114.532 21.152 114.46 21.152C113.948 21.152 113.532 21.3 113.212 21.596C112.9 21.884 112.744 22.336 112.744 22.952V26H110.872ZM116.005 26V19.544H117.877V26H116.005ZM115.849 18.716L117.469 16.988H119.485L117.313 18.716H115.849Z" fill="white"/>
<path d="M25.908 10.6796L26.7591 13.5643C26.8025 13.7118 26.8812 13.8466 26.9886 13.9569C27.0959 14.0672 27.2285 14.1497 27.3749 14.1973C27.5213 14.2449 27.6772 14.2561 27.8289 14.23C27.9807 14.2039 28.1238 14.1413 28.2459 14.0476L30.6324 12.213C31.381 11.6392 32.4196 12.3912 32.1029 13.2801L31.0937 16.1134C31.0421 16.2583 31.0266 16.4135 31.0485 16.5657C31.0705 16.7179 31.1293 16.8624 31.2198 16.9868C31.3103 17.1112 31.4297 17.2117 31.5679 17.2796C31.706 17.3475 31.8586 17.3808 32.0125 17.3765L35.0227 17.2935C35.9672 17.2672 36.364 18.4865 35.5843 19.0199L33.1016 20.7179C32.9746 20.8048 32.8707 20.9213 32.7989 21.0573C32.7271 21.1933 32.6896 21.3448 32.6896 21.4985C32.6896 21.6523 32.7271 21.8037 32.7989 21.9397C32.8707 22.0757 32.9746 22.1922 33.1016 22.2791L35.5859 23.9789C36.3656 24.5123 35.9688 25.7307 35.0242 25.7053L32.014 25.6223C31.8601 25.6181 31.7075 25.6513 31.5694 25.7192C31.4312 25.7872 31.3118 25.8877 31.2213 26.012C31.1308 26.1364 31.072 26.281 31.0501 26.4331C31.0281 26.5853 31.0436 26.7405 31.0952 26.8854L32.1044 29.7184C32.4211 30.6076 31.3825 31.3612 30.634 30.7855L28.2459 28.9525C28.1238 28.8587 27.9807 28.7961 27.8289 28.77C27.6772 28.7439 27.5213 28.7551 27.3749 28.8027C27.2285 28.8503 27.0959 28.9328 26.9886 29.0431C26.8812 29.1534 26.8025 29.2882 26.7591 29.4357L25.908 32.3204C25.6412 33.2265 24.3573 33.2265 24.0903 32.3204L23.2392 29.4357C23.1958 29.2882 23.117 29.1534 23.0097 29.0431C22.9024 28.9328 22.7698 28.8503 22.6234 28.8027C22.4769 28.7551 22.3211 28.7439 22.1693 28.77C22.0176 28.7961 21.8745 28.8587 21.7524 28.9525L19.3661 30.7867C18.6173 31.3624 17.5787 30.6088 17.8953 29.7196L18.9049 26.8866C18.9565 26.7417 18.972 26.5865 18.95 26.4343C18.928 26.2822 18.8693 26.1376 18.7788 26.0133C18.6883 25.8889 18.5688 25.7884 18.4307 25.7205C18.2926 25.6525 18.14 25.6193 17.9861 25.6235L14.9759 25.7066C14.0313 25.7325 13.6345 24.5135 14.4139 23.9801L16.8982 22.2803C17.0253 22.1935 17.1292 22.077 17.201 21.941C17.2728 21.8049 17.3104 21.6535 17.3104 21.4997C17.3104 21.3459 17.2728 21.1945 17.201 21.0585C17.1292 20.9225 17.0253 20.806 16.8982 20.7191L14.4139 19.0196C13.6345 18.4862 14.0313 17.2678 14.9759 17.2932L17.9861 17.3762C18.14 17.3805 18.2926 17.3472 18.4307 17.2793C18.5688 17.2114 18.6883 17.1109 18.7788 16.9865C18.8693 16.8621 18.928 16.7176 18.95 16.5654C18.972 16.4132 18.9565 16.258 18.9049 16.1131L17.8953 13.2798C17.5787 12.3909 18.6173 11.6373 19.3661 12.2127L21.7524 14.0473C21.8745 14.141 22.0176 14.2036 22.1693 14.2297C22.3211 14.2558 22.4769 14.2446 22.6234 14.197C22.7698 14.1494 22.9024 14.0669 23.0097 13.9566C23.117 13.8463 23.1958 13.7115 23.2392 13.564L24.0903 10.6793C24.3573 9.77351 25.6412 9.77351 25.908 10.6796Z" fill="#68E5E3"/>
</svg>
