<svg width="133" height="44" viewBox="0 0 133 44" fill="none" xmlns="http://www.w3.org/2000/svg">
<rect width="133" height="43.2517" rx="7" fill="#1F3C75"/>
<path d="M56.892 27L60.636 18.6H62.556L66.312 27H64.272L61.2 19.584H61.968L58.884 27H56.892ZM58.764 25.2L59.28 23.724H63.6L64.128 25.2H58.764ZM60.504 17.916L62.124 16.188H64.14L61.968 17.916H60.504ZM67.0515 27V20.544H68.8395V22.332L68.5035 21.792C68.7355 21.36 69.0675 21.028 69.4995 20.796C69.9315 20.564 70.4235 20.448 70.9755 20.448C71.4875 20.448 71.9435 20.552 72.3435 20.76C72.7515 20.96 73.0715 21.272 73.3035 21.696C73.5355 22.112 73.6515 22.648 73.6515 23.304V27H71.7795V23.592C71.7795 23.072 71.6635 22.688 71.4315 22.44C71.2075 22.192 70.8875 22.068 70.4715 22.068C70.1755 22.068 69.9075 22.132 69.6675 22.26C69.4355 22.38 69.2515 22.568 69.1155 22.824C68.9875 23.08 68.9235 23.408 68.9235 23.808V27H67.0515ZM75.3484 27V18.096H77.2204V22.332L76.8004 21.792C77.0324 21.36 77.3644 21.028 77.7964 20.796C78.2284 20.564 78.7204 20.448 79.2724 20.448C79.7844 20.448 80.2404 20.552 80.6404 20.76C81.0484 20.96 81.3684 21.272 81.6004 21.696C81.8324 22.112 81.9484 22.648 81.9484 23.304V27H80.0764V23.592C80.0764 23.072 79.9604 22.688 79.7284 22.44C79.5044 22.192 79.1844 22.068 78.7684 22.068C78.4724 22.068 78.2044 22.132 77.9644 22.26C77.7324 22.38 77.5484 22.568 77.4124 22.824C77.2844 23.08 77.2204 23.408 77.2204 23.808V27H75.3484ZM89.2157 27.096C88.6637 27.096 88.1317 27.032 87.6197 26.904C87.1157 26.768 86.7157 26.6 86.4197 26.4L87.0437 25.056C87.3397 25.24 87.6877 25.392 88.0877 25.512C88.4957 25.624 88.8957 25.68 89.2877 25.68C89.7197 25.68 90.0237 25.628 90.1997 25.524C90.3837 25.42 90.4757 25.276 90.4757 25.092C90.4757 24.94 90.4037 24.828 90.2597 24.756C90.1237 24.676 89.9397 24.616 89.7077 24.576C89.4757 24.536 89.2197 24.496 88.9397 24.456C88.6677 24.416 88.3917 24.364 88.1117 24.3C87.8317 24.228 87.5757 24.124 87.3437 23.988C87.1117 23.852 86.9237 23.668 86.7797 23.436C86.6437 23.204 86.5757 22.904 86.5757 22.536C86.5757 22.128 86.6917 21.768 86.9237 21.456C87.1637 21.144 87.5077 20.9 87.9557 20.724C88.4037 20.54 88.9397 20.448 89.5637 20.448C90.0037 20.448 90.4517 20.496 90.9077 20.592C91.3637 20.688 91.7437 20.828 92.0477 21.012L91.4237 22.344C91.1117 22.16 90.7957 22.036 90.4757 21.972C90.1637 21.9 89.8597 21.864 89.5637 21.864C89.1477 21.864 88.8437 21.92 88.6517 22.032C88.4597 22.144 88.3637 22.288 88.3637 22.464C88.3637 22.624 88.4317 22.744 88.5677 22.824C88.7117 22.904 88.8997 22.968 89.1317 23.016C89.3637 23.064 89.6157 23.108 89.8877 23.148C90.1677 23.18 90.4477 23.232 90.7277 23.304C91.0077 23.376 91.2597 23.48 91.4837 23.616C91.7157 23.744 91.9037 23.924 92.0477 24.156C92.1917 24.38 92.2637 24.676 92.2637 25.044C92.2637 25.444 92.1437 25.8 91.9037 26.112C91.6637 26.416 91.3157 26.656 90.8597 26.832C90.4117 27.008 89.8637 27.096 89.2157 27.096ZM97.3787 27V25.74L97.2587 25.464V23.208C97.2587 22.808 97.1347 22.496 96.8867 22.272C96.6467 22.048 96.2747 21.936 95.7707 21.936C95.4267 21.936 95.0867 21.992 94.7507 22.104C94.4227 22.208 94.1427 22.352 93.9107 22.536L93.2387 21.228C93.5907 20.98 94.0147 20.788 94.5107 20.652C95.0067 20.516 95.5107 20.448 96.0227 20.448C97.0067 20.448 97.7707 20.68 98.3147 21.144C98.8587 21.608 99.1307 22.332 99.1307 23.316V27H97.3787ZM95.4107 27.096C94.9067 27.096 94.4747 27.012 94.1147 26.844C93.7547 26.668 93.4787 26.432 93.2867 26.136C93.0947 25.84 92.9987 25.508 92.9987 25.14C92.9987 24.756 93.0907 24.42 93.2747 24.132C93.4667 23.844 93.7667 23.62 94.1747 23.46C94.5827 23.292 95.1147 23.208 95.7707 23.208H97.4867V24.3H95.9747C95.5347 24.3 95.2307 24.372 95.0627 24.516C94.9027 24.66 94.8227 24.84 94.8227 25.056C94.8227 25.296 94.9147 25.488 95.0987 25.632C95.2907 25.768 95.5507 25.836 95.8787 25.836C96.1907 25.836 96.4707 25.764 96.7187 25.62C96.9667 25.468 97.1467 25.248 97.2587 24.96L97.5467 25.824C97.4107 26.24 97.1627 26.556 96.8027 26.772C96.4427 26.988 95.9787 27.096 95.4107 27.096ZM95.1227 19.716L96.7427 17.988H98.7587L96.5867 19.716H95.1227ZM100.825 27V20.544H102.613V22.332L102.277 21.792C102.509 21.36 102.841 21.028 103.273 20.796C103.705 20.564 104.197 20.448 104.749 20.448C105.261 20.448 105.717 20.552 106.117 20.76C106.525 20.96 106.845 21.272 107.077 21.696C107.309 22.112 107.425 22.648 107.425 23.304V27H105.553V23.592C105.553 23.072 105.437 22.688 105.205 22.44C104.981 22.192 104.661 22.068 104.245 22.068C103.949 22.068 103.681 22.132 103.441 22.26C103.209 22.38 103.025 22.568 102.889 22.824C102.761 23.08 102.697 23.408 102.697 23.808V27H100.825ZM112.205 29.424C111.597 29.424 111.009 29.348 110.441 29.196C109.881 29.052 109.413 28.832 109.037 28.536L109.781 27.192C110.053 27.416 110.397 27.592 110.813 27.72C111.237 27.856 111.653 27.924 112.061 27.924C112.725 27.924 113.205 27.776 113.501 27.48C113.805 27.184 113.957 26.744 113.957 26.16V25.188L114.077 23.568L114.053 21.936V20.544H115.829V25.92C115.829 27.12 115.517 28.004 114.893 28.572C114.269 29.14 113.373 29.424 112.205 29.424ZM111.917 26.688C111.317 26.688 110.773 26.56 110.285 26.304C109.805 26.04 109.417 25.676 109.121 25.212C108.833 24.74 108.689 24.192 108.689 23.568C108.689 22.936 108.833 22.388 109.121 21.924C109.417 21.452 109.805 21.088 110.285 20.832C110.773 20.576 111.317 20.448 111.917 20.448C112.461 20.448 112.941 20.56 113.357 20.784C113.773 21 114.097 21.34 114.329 21.804C114.561 22.26 114.677 22.848 114.677 23.568C114.677 24.28 114.561 24.868 114.329 25.332C114.097 25.788 113.773 26.128 113.357 26.352C112.941 26.576 112.461 26.688 111.917 26.688ZM112.289 25.152C112.617 25.152 112.909 25.088 113.165 24.96C113.421 24.824 113.621 24.636 113.765 24.396C113.909 24.156 113.981 23.88 113.981 23.568C113.981 23.248 113.909 22.972 113.765 22.74C113.621 22.5 113.421 22.316 113.165 22.188C112.909 22.052 112.617 21.984 112.289 21.984C111.961 21.984 111.669 22.052 111.413 22.188C111.157 22.316 110.953 22.5 110.801 22.74C110.657 22.972 110.585 23.248 110.585 23.568C110.585 23.88 110.657 24.156 110.801 24.396C110.953 24.636 111.157 24.824 111.413 24.96C111.669 25.088 111.961 25.152 112.289 25.152Z" fill="white"/>
<path fill-rule="evenodd" clip-rule="evenodd" d="M37.1103 27.4346C36.5996 30.3316 34.0578 32.5332 31 32.5332C27.9421 32.5332 25.4015 30.3315 24.8906 27.4346H37.1103ZM37.3642 12V14.3555C37.3642 14.39 37.3629 14.4246 37.3593 14.459L44.247 21.1143C46.1609 22.9637 44.2045 25.5047 40.8671 25.5049H21.1328C17.795 25.5049 15.839 22.9638 17.7529 21.1143L24.791 14.3135V12H37.3642Z" fill="#68E5E3"/>
</svg>
