<svg width="133" height="44" viewBox="0 0 133 44" fill="none" xmlns="http://www.w3.org/2000/svg">
<rect width="133" height="44" rx="8" fill="#1F3C75"/>
<path d="M38.5 17.667H26.583V26.4414C27.28 26.3711 28.0052 26.333 28.75 26.333C34.1343 26.333 38.4992 28.2731 38.5 30.666C38.5 33.0592 34.1348 35 28.75 35L28.248 34.9941C23.0965 34.878 19 32.9844 19 30.666C19.0006 28.9648 21.2069 27.4931 24.417 26.7842V10C24.417 9.44772 24.8647 9 25.417 9H38.5V17.667ZM28.75 28.333C27.9934 28.333 27.2676 28.3755 26.583 28.4521V30.75C26.583 31.3023 26.1353 31.75 25.583 31.75H25.417C24.8647 31.75 24.417 31.3023 24.417 30.75V28.8398C23.7606 29.0063 23.1723 29.2056 22.668 29.4297C21.9387 29.7538 21.4719 30.0883 21.2148 30.3584C21.0533 30.5282 21.0118 30.6305 21.002 30.666C21.0113 30.7006 21.0519 30.8034 21.2148 30.9746C21.4719 31.2447 21.9387 31.5792 22.668 31.9033C24.1218 32.5494 26.2706 33 28.75 33C31.2294 33 33.3782 32.5494 34.832 31.9033C35.5613 31.5792 36.0281 31.2447 36.2852 30.9746C36.4477 30.8038 36.4876 30.7009 36.4971 30.666C36.4871 30.6303 36.4463 30.5278 36.2852 30.3584C36.0281 30.0883 35.5613 29.7538 34.832 29.4297C33.3782 28.7836 31.2294 28.333 28.75 28.333Z" fill="#68E5E3"/>
<path d="M57.996 26V17.6H59.94V24.416H64.152V26H57.996ZM68.1548 26.096C67.4668 26.096 66.8548 25.952 66.3188 25.664C65.7908 25.376 65.3708 24.984 65.0588 24.488C64.7548 23.984 64.6028 23.412 64.6028 22.772C64.6028 22.124 64.7548 21.552 65.0588 21.056C65.3708 20.552 65.7908 20.16 66.3188 19.88C66.8548 19.592 67.4668 19.448 68.1548 19.448C68.8348 19.448 69.4428 19.592 69.9788 19.88C70.5148 20.16 70.9348 20.548 71.2388 21.044C71.5428 21.54 71.6948 22.116 71.6948 22.772C71.6948 23.412 71.5428 23.984 71.2388 24.488C70.9348 24.984 70.5148 25.376 69.9788 25.664C69.4428 25.952 68.8348 26.096 68.1548 26.096ZM68.1548 24.56C68.4668 24.56 68.7468 24.488 68.9948 24.344C69.2428 24.2 69.4388 23.996 69.5828 23.732C69.7268 23.46 69.7988 23.14 69.7988 22.772C69.7988 22.396 69.7268 22.076 69.5828 21.812C69.4388 21.548 69.2428 21.344 68.9948 21.2C68.7468 21.056 68.4668 20.984 68.1548 20.984C67.8428 20.984 67.5628 21.056 67.3148 21.2C67.0668 21.344 66.8668 21.548 66.7148 21.812C66.5708 22.076 66.4988 22.396 66.4988 22.772C66.4988 23.14 66.5708 23.46 66.7148 23.732C66.8668 23.996 67.0668 24.2 67.3148 24.344C67.5628 24.488 67.8428 24.56 68.1548 24.56ZM68.1308 28.7C67.8348 28.7 67.5908 28.604 67.3988 28.412C67.2148 28.22 67.1228 27.976 67.1228 27.68C67.1228 27.392 67.2148 27.152 67.3988 26.96C67.5908 26.768 67.8348 26.672 68.1308 26.672C68.4188 26.672 68.6588 26.768 68.8508 26.96C69.0428 27.152 69.1388 27.392 69.1388 27.68C69.1388 27.976 69.0428 28.22 68.8508 28.412C68.6588 28.604 68.4188 28.7 68.1308 28.7ZM65.7188 18.716L67.3027 16.988H68.9588L70.5428 18.716H69.1748L67.5188 17.276H68.7428L67.0868 18.716H65.7188ZM78.9845 26.096C78.2245 26.096 77.6325 25.904 77.2085 25.52C76.7845 25.128 76.5725 24.548 76.5725 23.78V18.116H78.4445V23.756C78.4445 24.028 78.5165 24.24 78.6605 24.392C78.8045 24.536 79.0005 24.608 79.2485 24.608C79.5445 24.608 79.7965 24.528 80.0045 24.368L80.5085 25.688C80.3165 25.824 80.0845 25.928 79.8125 26C79.5485 26.064 79.2725 26.096 78.9845 26.096ZM75.5765 20.984V19.544H80.0525V20.984H75.5765ZM81.5593 26V19.544H83.3473V21.368L83.0953 20.84C83.2873 20.384 83.5953 20.04 84.0193 19.808C84.4433 19.568 84.9593 19.448 85.5673 19.448V21.176C85.4873 21.168 85.4153 21.164 85.3513 21.164C85.2873 21.156 85.2193 21.152 85.1473 21.152C84.6353 21.152 84.2193 21.3 83.8993 21.596C83.5873 21.884 83.4313 22.336 83.4313 22.952V26H81.5593ZM86.6921 26V19.544H88.5641V26H86.6921ZM87.2561 18.716L85.0841 16.988H87.1001L88.7201 18.716H87.2561ZM90.3015 26V19.544H92.0895V21.332L91.7535 20.792C91.9855 20.36 92.3175 20.028 92.7495 19.796C93.1815 19.564 93.6735 19.448 94.2255 19.448C94.7375 19.448 95.1935 19.552 95.5935 19.76C96.0015 19.96 96.3215 20.272 96.5535 20.696C96.7855 21.112 96.9015 21.648 96.9015 22.304V26H95.0295V22.592C95.0295 22.072 94.9135 21.688 94.6815 21.44C94.4575 21.192 94.1375 21.068 93.7215 21.068C93.4255 21.068 93.1575 21.132 92.9175 21.26C92.6855 21.38 92.5015 21.568 92.3655 21.824C92.2375 22.08 92.1735 22.408 92.1735 22.808V26H90.3015ZM98.5984 26V17.096H100.47V21.332L100.05 20.792C100.282 20.36 100.614 20.028 101.046 19.796C101.478 19.564 101.97 19.448 102.522 19.448C103.034 19.448 103.49 19.552 103.89 19.76C104.298 19.96 104.618 20.272 104.85 20.696C105.082 21.112 105.198 21.648 105.198 22.304V26H103.326V22.592C103.326 22.072 103.21 21.688 102.978 21.44C102.754 21.192 102.434 21.068 102.018 21.068C101.722 21.068 101.454 21.132 101.214 21.26C100.982 21.38 100.798 21.568 100.662 21.824C100.534 22.08 100.47 22.408 100.47 22.808V26H98.5984Z" fill="white"/>
</svg>
