<svg width="422" height="44" viewBox="0 0 422 44" fill="none" xmlns="http://www.w3.org/2000/svg">
<path d="M415 0C418.866 0 422 3.13401 422 7V36.252C422 40.1178 418.866 43.252 415 43.252H7C3.13409 43.252 0.000128113 40.1178 0 36.252V7C2.92729e-07 3.13401 3.13401 1.40931e-07 7 0H415Z" fill="url(#paint0_linear_209_23)" fill-opacity="0.9"/>
<path d="M54.024 26L57.864 17.6H58.74L62.58 26H61.644L58.116 18.116H58.476L54.948 26H54.024ZM55.536 23.756L55.8 23.036H60.684L60.948 23.756H55.536ZM58.308 17.192L58.008 16.82C58.248 16.708 58.424 16.584 58.536 16.448C58.656 16.312 58.716 16.152 58.716 15.968C58.716 15.8 58.656 15.66 58.536 15.548C58.416 15.436 58.256 15.38 58.056 15.38C57.808 15.38 57.568 15.456 57.336 15.608L57.132 15.188C57.268 15.084 57.424 15.008 57.6 14.96C57.784 14.904 57.96 14.876 58.128 14.876C58.352 14.876 58.548 14.92 58.716 15.008C58.892 15.088 59.028 15.204 59.124 15.356C59.22 15.508 59.268 15.692 59.268 15.908C59.268 16.188 59.188 16.436 59.028 16.652C58.876 16.86 58.636 17.04 58.308 17.192ZM63.7896 26V19.7H64.6056V21.428L64.4736 21.104C64.6736 20.648 64.9936 20.292 65.4336 20.036C65.8736 19.772 66.3976 19.64 67.0056 19.64C67.5176 19.64 67.9656 19.74 68.3496 19.94C68.7416 20.132 69.0456 20.428 69.2616 20.828C69.4856 21.228 69.5976 21.732 69.5976 22.34V26H68.7456V22.424C68.7456 21.76 68.5776 21.26 68.2416 20.924C67.9136 20.58 67.4496 20.408 66.8496 20.408C66.4016 20.408 66.0096 20.5 65.6736 20.684C65.3456 20.86 65.0896 21.12 64.9056 21.464C64.7296 21.8 64.6416 22.208 64.6416 22.688V26H63.7896ZM71.8989 26V17.096H72.7509V21.428L72.5829 21.104C72.7829 20.648 73.1029 20.292 73.5429 20.036C73.9829 19.772 74.5069 19.64 75.1149 19.64C75.6269 19.64 76.0749 19.74 76.4589 19.94C76.8509 20.132 77.1549 20.428 77.3709 20.828C77.5949 21.228 77.7069 21.732 77.7069 22.34V26H76.8549V22.424C76.8549 21.76 76.6869 21.26 76.3509 20.924C76.0229 20.58 75.5589 20.408 74.9589 20.408C74.5109 20.408 74.1189 20.5 73.7829 20.684C73.4549 20.86 73.1989 21.12 73.0149 21.464C72.8389 21.8 72.7509 22.208 72.7509 22.688V26H71.8989ZM85.1409 26.06C84.5489 26.06 84.0929 25.9 83.7729 25.58C83.4529 25.26 83.2929 24.808 83.2929 24.224V18.308H84.1449V24.176C84.1449 24.544 84.2369 24.828 84.4209 25.028C84.6129 25.228 84.8849 25.328 85.2369 25.328C85.6129 25.328 85.9249 25.22 86.1729 25.004L86.4729 25.616C86.3049 25.768 86.1009 25.88 85.8609 25.952C85.6289 26.024 85.3889 26.06 85.1409 26.06ZM82.1649 20.408V19.7H86.0649V20.408H82.1649ZM88.0239 26V19.7H88.8759V26H88.0239ZM89.1399 18.644C88.9719 18.644 88.8239 18.604 88.6959 18.524C88.5759 18.444 88.4639 18.352 88.3599 18.248C88.2639 18.136 88.1719 18.04 88.0839 17.96C88.0039 17.872 87.9119 17.828 87.8079 17.828C87.6719 17.828 87.5639 17.896 87.4839 18.032C87.4119 18.168 87.3759 18.356 87.3759 18.596H86.8599C86.8599 18.18 86.9399 17.856 87.0999 17.624C87.2679 17.392 87.4919 17.276 87.7719 17.276C87.9479 17.276 88.0959 17.32 88.2159 17.408C88.3359 17.488 88.4439 17.58 88.5399 17.684C88.6439 17.788 88.7359 17.88 88.8159 17.96C88.9039 18.04 88.9999 18.08 89.1039 18.08C89.2399 18.08 89.3439 18.016 89.4159 17.888C89.4959 17.752 89.5359 17.572 89.5359 17.348H90.0519C90.0519 17.748 89.9719 18.064 89.8119 18.296C89.6519 18.528 89.4279 18.644 89.1399 18.644ZM91.2466 26V19.7H92.0626V21.428L91.9306 21.104C92.1306 20.648 92.4506 20.292 92.8906 20.036C93.3306 19.772 93.8546 19.64 94.4626 19.64C94.9746 19.64 95.4226 19.74 95.8066 19.94C96.1986 20.132 96.5026 20.428 96.7186 20.828C96.9426 21.228 97.0546 21.732 97.0546 22.34V26H96.2026V22.424C96.2026 21.76 96.0346 21.26 95.6986 20.924C95.3706 20.58 94.9066 20.408 94.3066 20.408C93.8586 20.408 93.4666 20.5 93.1306 20.684C92.8026 20.86 92.5466 21.12 92.3626 21.464C92.1866 21.8 92.0986 22.208 92.0986 22.688V26H91.2466ZM99.356 26V17.096H100.208V21.428L100.04 21.104C100.24 20.648 100.56 20.292 101 20.036C101.44 19.772 101.964 19.64 102.572 19.64C103.084 19.64 103.532 19.74 103.916 19.94C104.308 20.132 104.612 20.428 104.828 20.828C105.052 21.228 105.164 21.732 105.164 22.34V26H104.312V22.424C104.312 21.76 104.144 21.26 103.808 20.924C103.48 20.58 103.016 20.408 102.416 20.408C101.968 20.408 101.576 20.5 101.24 20.684C100.912 20.86 100.656 21.12 100.472 21.464C100.296 21.8 100.208 22.208 100.208 22.688V26H99.356Z" fill="white"/>
<path d="M392.083 27.2V15.3H395.933V27.2H392.083ZM387.833 23.075V19.425H400.158V23.075H387.833Z" fill="white"/>
<path d="M19 10V33.286H40.2609V10H19ZM38.0958 18.5893C38.0908 18.5923 38.0859 18.5949 38.081 18.5982C37.9137 18.7051 37.7732 18.861 37.7243 19.0574C37.7093 19.1174 37.6913 19.1766 37.6702 19.2348C37.6266 19.3223 37.5765 19.4065 37.5203 19.4866C37.4411 19.5788 37.3546 19.6645 37.2615 19.743C37.1434 19.8253 37.0184 19.8973 36.8877 19.9583C36.745 20.0108 36.5977 20.0505 36.4478 20.0767C36.2546 20.0939 36.0603 20.0928 35.8674 20.0734C35.6012 20.0283 35.3404 19.9559 35.0894 19.8574C34.8664 19.7582 34.6513 19.6425 34.4459 19.5113C34.5508 19.4428 34.6501 19.3659 34.7485 19.2874C34.8398 19.2146 34.9244 19.1339 35.0014 19.0462C35.1194 18.9139 35.2261 18.772 35.3204 18.6222C35.4126 18.4721 35.4792 18.3111 35.5469 18.1489C35.591 18.0439 35.6277 17.9361 35.6568 17.8262C35.6863 17.7139 35.709 17.6001 35.725 17.4853C35.7536 17.3043 35.7729 17.1221 35.7829 16.9393C35.7914 16.6955 35.7796 16.4514 35.7474 16.2095C35.7113 15.9001 35.6553 15.5933 35.5799 15.2909C35.514 15.0409 35.4342 14.7947 35.3409 14.5534C35.215 14.2272 35.0762 13.8937 34.8746 13.6036C34.7608 13.4334 34.6302 13.2748 34.4847 13.1301C34.3892 13.0434 34.2885 12.9622 34.1834 12.8871C34.1289 12.8458 34.072 12.8078 34.013 12.7732C33.8416 12.6734 33.6579 12.5959 33.4665 12.5427C33.3397 12.508 33.2077 12.4945 33.0774 12.4786C33.0113 12.4705 32.9447 12.4677 32.8781 12.4702C32.7467 12.4762 32.616 12.4933 32.4876 12.5215C32.4256 12.5355 32.365 12.5546 32.3062 12.5786C32.1959 12.6231 32.0818 12.666 31.979 12.7272C31.8788 12.7907 31.7832 12.8607 31.6926 12.937C31.5538 13.0476 31.4491 13.1879 31.3421 13.328C31.2711 13.4217 31.2091 13.5219 31.1572 13.6272C31.019 13.8989 30.9179 14.1877 30.8565 14.4858C30.7462 15.0436 30.7241 15.6149 30.7909 16.1794C30.8257 16.4978 30.8826 16.8134 30.9612 17.1241C30.9973 17.2603 31.0385 17.3951 31.085 17.5284C31.0007 17.4394 30.92 17.3474 30.8429 17.2525C30.6024 16.9311 30.399 16.5842 30.2364 16.2181C30.0738 15.811 29.9581 15.387 29.8917 14.9542C29.8396 14.5058 29.8396 14.053 29.8917 13.6046C29.9556 13.1929 30.0661 12.7896 30.2211 12.4024C30.2838 12.2635 30.352 12.1274 30.4258 11.9939C30.4305 11.9853 30.4352 11.9765 30.4396 11.9674H38.0988L38.0958 18.5893ZM32.3351 14.9885C32.3659 14.7987 32.4152 14.6124 32.4822 14.432C32.5245 14.3431 32.5734 14.2574 32.6285 14.1757C32.6607 14.1397 32.6948 14.1055 32.7306 14.0732C32.756 14.0569 32.7824 14.0415 32.809 14.0266C32.8341 14.0189 32.8593 14.0121 32.885 14.0061C32.9179 14.0061 32.9508 14.0061 32.9838 14.0061C33.0352 14.0175 33.0859 14.0316 33.1357 14.0485C33.1997 14.0804 33.2614 14.1165 33.3207 14.1564C33.391 14.2174 33.4565 14.2836 33.5169 14.3544C33.6316 14.5194 33.7302 14.6949 33.8112 14.8785C33.9939 15.3253 34.1248 15.7913 34.2012 16.2675C34.2375 16.564 34.2415 16.8635 34.2132 17.1609C34.1852 17.3277 34.1416 17.4915 34.0829 17.6502C34.0334 17.7529 33.9757 17.8516 33.9105 17.9452C33.8449 18.0208 33.7736 18.0914 33.6973 18.1564C33.6137 18.2134 33.5258 18.2641 33.4343 18.3078C33.3717 18.3311 33.308 18.3504 33.2435 18.3672C33.0245 18.0592 32.8365 17.7306 32.6824 17.3862C32.5212 16.9888 32.4061 16.5744 32.3394 16.1512C32.2943 15.765 32.2928 15.375 32.3351 14.9885ZM21.1649 27.6108V11.9662H28.7309C28.714 12.0091 28.6974 12.052 28.681 12.0948C28.5885 12.3401 28.5139 12.5916 28.4578 12.8475C28.3891 13.1642 28.342 13.4851 28.3166 13.808C28.2958 14.0673 28.2923 14.3277 28.3063 14.5874C28.3249 14.9112 28.3646 15.2335 28.4253 15.5521C28.4737 15.81 28.5397 16.0642 28.6229 16.3132C28.7255 16.6181 28.8491 16.9158 28.9928 17.204C29.1083 17.4369 29.2409 17.6611 29.3894 17.8749C29.5778 18.1486 29.7876 18.4072 30.0169 18.6482C30.2557 18.8927 30.5185 19.113 30.8012 19.3061C31.0835 19.5023 31.3964 19.6495 31.7204 19.7679C31.9909 19.8637 32.2731 19.9234 32.5596 19.9452C32.5949 19.9818 32.6302 20.0182 32.6669 20.0538C32.8951 20.2727 33.1388 20.4751 33.3962 20.6597C33.618 20.8217 33.853 20.9653 34.0987 21.0891C34.4247 21.2564 34.7677 21.3892 35.1218 21.4852C35.3309 21.5362 35.5431 21.5737 35.757 21.5976C35.9091 21.6179 36.0624 21.6273 36.2158 21.6258C36.4296 21.62 36.6426 21.598 36.8529 21.5598C36.9766 21.5388 37.0985 21.5083 37.2175 21.4687C37.3962 21.4089 37.5703 21.3363 37.7384 21.2515C37.8505 21.195 37.9581 21.1301 38.0603 21.0574L38.0941 21.0327V27.6108H21.1649Z" fill="white"/>
<path d="M30.7371 21.3956L28.5929 20.2342C28.4737 20.1697 28.3758 20.0726 28.3106 19.9546L27.1517 17.8558C26.8757 17.356 26.1508 17.356 25.8749 17.8558L24.716 19.9539C24.6507 20.0719 24.5528 20.1689 24.4337 20.2335L22.2895 21.3949C21.7954 21.6624 21.7954 22.3647 22.2895 22.6322L24.4337 23.7936C24.5527 23.8583 24.6507 23.9553 24.716 24.0732L25.8888 26.197C26.1586 26.6863 26.8677 26.6863 27.1378 26.197L28.3106 24.0732C28.3758 23.9553 28.4738 23.8582 28.5929 23.7936L30.7371 22.6322C31.2306 22.3654 31.2306 21.6631 30.7371 21.3956Z" fill="white"/>
<defs>
<linearGradient id="paint0_linear_209_23" x1="60.7592" y1="11.3842" x2="64.7991" y2="77.3204" gradientUnits="userSpaceOnUse">
<stop stop-color="#122F6A"/>
<stop offset="1" stop-color="#76AAAB"/>
</linearGradient>
</defs>
</svg>
