<svg width="133" height="44" viewBox="0 0 133 44" fill="none" xmlns="http://www.w3.org/2000/svg">
<rect width="133" height="43.2517" rx="7" fill="#1F3C75"/>
<path d="M51.892 26L55.636 17.6H57.556L61.312 26H59.272L56.2 18.584H56.968L53.884 26H51.892ZM53.764 24.2L54.28 22.724H58.6L59.128 24.2H53.764ZM54.184 16.916L55.768 15.188H57.424L59.008 16.916H57.64L55.984 15.476H57.208L55.552 16.916H54.184ZM62.0515 26V19.544H63.8395V21.308L63.5035 20.792C63.7275 20.352 64.0435 20.02 64.4515 19.796C64.8675 19.564 65.3395 19.448 65.8675 19.448C66.4595 19.448 66.9755 19.6 67.4155 19.904C67.8635 20.2 68.1595 20.656 68.3035 21.272L67.6435 21.092C67.8595 20.588 68.2035 20.188 68.6755 19.892C69.1555 19.596 69.7035 19.448 70.3195 19.448C70.8315 19.448 71.2835 19.552 71.6755 19.76C72.0755 19.96 72.3875 20.272 72.6115 20.696C72.8435 21.112 72.9595 21.648 72.9595 22.304V26H71.0875V22.592C71.0875 22.072 70.9795 21.688 70.7635 21.44C70.5475 21.192 70.2435 21.068 69.8515 21.068C69.5795 21.068 69.3355 21.132 69.1195 21.26C68.9035 21.38 68.7355 21.564 68.6155 21.812C68.4955 22.06 68.4355 22.376 68.4355 22.76V26H66.5635V22.592C66.5635 22.072 66.4555 21.688 66.2395 21.44C66.0315 21.192 65.7315 21.068 65.3395 21.068C65.0675 21.068 64.8235 21.132 64.6075 21.26C64.3915 21.38 64.2235 21.564 64.1035 21.812C63.9835 22.06 63.9235 22.376 63.9235 22.76V26H62.0515ZM80.6759 26.096C79.9159 26.096 79.3239 25.904 78.8999 25.52C78.4759 25.128 78.2639 24.548 78.2639 23.78V18.116H80.1359V23.756C80.1359 24.028 80.2079 24.24 80.3519 24.392C80.4959 24.536 80.6919 24.608 80.9399 24.608C81.2359 24.608 81.4879 24.528 81.6959 24.368L82.1999 25.688C82.0079 25.824 81.7759 25.928 81.5039 26C81.2399 26.064 80.9639 26.096 80.6759 26.096ZM77.2679 20.984V19.544H81.7439V20.984H77.2679ZM83.2507 26V17.096H85.1227V21.332L84.7027 20.792C84.9347 20.36 85.2667 20.028 85.6987 19.796C86.1307 19.564 86.6227 19.448 87.1747 19.448C87.6867 19.448 88.1427 19.552 88.5427 19.76C88.9507 19.96 89.2707 20.272 89.5027 20.696C89.7347 21.112 89.8507 21.648 89.8507 22.304V26H87.9787V22.592C87.9787 22.072 87.8627 21.688 87.6307 21.44C87.4067 21.192 87.0867 21.068 86.6707 21.068C86.3747 21.068 86.1067 21.132 85.8667 21.26C85.6347 21.38 85.4507 21.568 85.3147 21.824C85.1867 22.08 85.1227 22.408 85.1227 22.808V26H83.2507ZM95.5076 26V24.74L95.3876 24.464V22.208C95.3876 21.808 95.2636 21.496 95.0156 21.272C94.7756 21.048 94.4036 20.936 93.8996 20.936C93.5556 20.936 93.2156 20.992 92.8796 21.104C92.5516 21.208 92.2716 21.352 92.0396 21.536L91.3676 20.228C91.7196 19.98 92.1436 19.788 92.6396 19.652C93.1356 19.516 93.6396 19.448 94.1516 19.448C95.1356 19.448 95.8996 19.68 96.4436 20.144C96.9876 20.608 97.2596 21.332 97.2596 22.316V26H95.5076ZM93.5396 26.096C93.0356 26.096 92.6036 26.012 92.2436 25.844C91.8836 25.668 91.6076 25.432 91.4156 25.136C91.2236 24.84 91.1276 24.508 91.1276 24.14C91.1276 23.756 91.2196 23.42 91.4036 23.132C91.5956 22.844 91.8956 22.62 92.3036 22.46C92.7116 22.292 93.2436 22.208 93.8996 22.208H95.6156V23.3H94.1036C93.6636 23.3 93.3596 23.372 93.1916 23.516C93.0316 23.66 92.9516 23.84 92.9516 24.056C92.9516 24.296 93.0436 24.488 93.2276 24.632C93.4196 24.768 93.6796 24.836 94.0076 24.836C94.3196 24.836 94.5996 24.764 94.8476 24.62C95.0956 24.468 95.2756 24.248 95.3876 23.96L95.6756 24.824C95.5396 25.24 95.2916 25.556 94.9316 25.772C94.5716 25.988 94.1076 26.096 93.5396 26.096ZM98.9538 26V19.544H100.742V21.332L100.406 20.792C100.638 20.36 100.97 20.028 101.402 19.796C101.834 19.564 102.326 19.448 102.878 19.448C103.39 19.448 103.846 19.552 104.246 19.76C104.654 19.96 104.974 20.272 105.206 20.696C105.438 21.112 105.554 21.648 105.554 22.304V26H103.682V22.592C103.682 22.072 103.566 21.688 103.334 21.44C103.11 21.192 102.79 21.068 102.374 21.068C102.078 21.068 101.81 21.132 101.57 21.26C101.338 21.38 101.154 21.568 101.018 21.824C100.89 22.08 100.826 22.408 100.826 22.808V26H98.9538ZM107.251 26V17.096H109.123V21.332L108.703 20.792C108.935 20.36 109.267 20.028 109.699 19.796C110.131 19.564 110.623 19.448 111.175 19.448C111.687 19.448 112.143 19.552 112.543 19.76C112.951 19.96 113.271 20.272 113.503 20.696C113.735 21.112 113.851 21.648 113.851 22.304V26H111.979V22.592C111.979 22.072 111.863 21.688 111.631 21.44C111.407 21.192 111.087 21.068 110.671 21.068C110.375 21.068 110.107 21.132 109.867 21.26C109.635 21.38 109.451 21.568 109.315 21.824C109.187 22.08 109.123 22.408 109.123 22.808V26H107.251Z" fill="white"/>
<path d="M25.3806 13.5839L20.633 17.3001C20.6085 17.2981 20.5838 17.2971 20.5587 17.2971H17.5036C16.9494 17.2971 16.5 17.7768 16.5 18.3685V23.0092C16.5 23.6009 16.9492 24.0805 17.5036 24.0805H20.5288L25.3806 27.8782C26.6999 28.9108 28.5125 27.8554 28.5125 26.0546V15.4075C28.5125 13.6067 26.6999 12.5513 25.3806 13.5839Z" fill="#68E5E3"/>
<path d="M31.3195 24.42C31.0807 24.4201 30.8468 24.3496 30.646 24.217C30.4453 24.0844 30.286 23.8952 30.1875 23.6722C30.1201 23.5199 30.0827 23.3556 30.0773 23.1885C30.072 23.0214 30.0988 22.8548 30.1562 22.6984C30.2136 22.5419 30.3006 22.3985 30.412 22.2765C30.5235 22.1544 30.6574 22.0561 30.8059 21.9871C31.0114 21.8914 31.1857 21.7375 31.3085 21.5434C31.4312 21.3493 31.4971 21.1233 31.4984 20.892C31.4988 20.6594 31.4336 20.4316 31.3108 20.2359C31.188 20.0403 31.0127 19.8851 30.8059 19.789C30.6574 19.72 30.5235 19.6217 30.412 19.4996C30.3006 19.3776 30.2136 19.2342 30.1562 19.0778C30.0988 18.9213 30.072 18.7547 30.0773 18.5876C30.0827 18.4206 30.1201 18.2562 30.1875 18.1039C30.2548 17.9516 30.3508 17.8145 30.4698 17.7002C30.5889 17.5859 30.7288 17.4968 30.8814 17.438C31.0341 17.3791 31.1966 17.3516 31.3596 17.3571C31.5226 17.3626 31.683 17.401 31.8316 17.47C33.1432 18.0795 33.9878 19.426 33.9825 20.9006C33.9777 22.3644 33.1334 23.7013 31.8316 24.306C31.6708 24.381 31.4962 24.4199 31.3195 24.42Z" fill="#68E5E3"/>
<path d="M33.8351 26.6403C33.6013 26.6404 33.3721 26.5729 33.1741 26.4455C32.976 26.318 32.817 26.1359 32.7155 25.9199C32.5724 25.6159 32.553 25.266 32.6615 24.9472C32.77 24.6285 32.9977 24.367 33.2943 24.2202C34.5432 23.6029 35.3531 22.2235 35.3578 20.7059C35.3625 19.1769 34.553 17.7871 33.2943 17.1651C32.9976 17.0184 32.7699 16.757 32.6613 16.4382C32.5526 16.1194 32.572 15.7695 32.7151 15.4654C32.786 15.3148 32.8851 15.18 33.0068 15.0686C33.1286 14.9573 33.2705 14.8716 33.4245 14.8165C33.5785 14.7614 33.7417 14.7379 33.9045 14.7474C34.0674 14.7569 34.2269 14.7993 34.3738 14.8719C35.4187 15.3885 36.2974 16.2152 36.915 17.2626C37.5253 18.2979 37.846 19.4913 37.8423 20.714C37.8385 21.9293 37.5144 23.1144 36.9044 24.1413C36.2875 25.1801 35.4124 26.0005 34.3737 26.5143C34.2057 26.5973 34.0216 26.6404 33.8351 26.6403Z" fill="#68E5E3"/>
<path d="M36.8814 28.9999C36.6558 29.0001 36.4344 28.9373 36.241 28.8183C36.0476 28.6993 35.8895 28.5285 35.7836 28.3243C35.6291 28.0262 35.5964 27.6775 35.6927 27.3547C35.7891 27.032 36.0065 26.7616 36.2972 26.6031C38.246 25.5411 39.5101 23.1544 39.5174 20.5229C39.5248 17.8716 38.2607 15.467 36.2972 14.3969C36.1532 14.3185 36.0256 14.2117 35.9219 14.0827C35.8181 13.9537 35.7402 13.805 35.6925 13.6451C35.6448 13.4852 35.6283 13.3172 35.6439 13.1508C35.6595 12.9844 35.707 12.8228 35.7836 12.6751C35.9382 12.3772 36.202 12.1544 36.5169 12.0557C36.8318 11.957 37.1721 11.9905 37.4628 12.1488C38.8376 12.898 39.9911 14.0922 40.7986 15.6023C41.5901 17.0822 42.0059 18.7863 42.0009 20.5303C41.9961 22.2637 41.5755 23.9558 40.7848 25.4237C39.978 26.9215 38.8292 28.1068 37.4628 28.8514C37.2838 28.9491 37.0841 29 36.8814 28.9999Z" fill="#68E5E3"/>
</svg>
