<svg width="422" height="44" viewBox="0 0 422 44" fill="none" xmlns="http://www.w3.org/2000/svg">
<path d="M415 0C418.866 0 422 3.13401 422 7V36.252C422 40.1178 418.866 43.252 415 43.252H7C3.13409 43.252 0.000128113 40.1178 0 36.252V7C2.92729e-07 3.13401 3.13401 1.40931e-07 7 0H415Z" fill="url(#paint0_linear_207_17)" fill-opacity="0.9"/>
<path d="M57.756 26L54.036 17.6H54.996L58.476 25.508H57.948L61.452 17.6H62.352L58.632 26H57.756ZM66.8587 26V24.608L66.8227 24.38V22.052C66.8227 21.516 66.6707 21.104 66.3667 20.816C66.0707 20.528 65.6267 20.384 65.0347 20.384C64.6267 20.384 64.2387 20.452 63.8707 20.588C63.5027 20.724 63.1907 20.904 62.9347 21.128L62.5507 20.492C62.8707 20.22 63.2547 20.012 63.7027 19.868C64.1507 19.716 64.6227 19.64 65.1187 19.64C65.9347 19.64 66.5627 19.844 67.0027 20.252C67.4507 20.652 67.6747 21.264 67.6747 22.088V26H66.8587ZM64.6867 26.06C64.2147 26.06 63.8027 25.984 63.4507 25.832C63.1067 25.672 62.8427 25.456 62.6587 25.184C62.4747 24.904 62.3827 24.584 62.3827 24.224C62.3827 23.896 62.4587 23.6 62.6107 23.336C62.7707 23.064 63.0267 22.848 63.3787 22.688C63.7387 22.52 64.2187 22.436 64.8187 22.436H66.9907V23.072H64.8427C64.2347 23.072 63.8107 23.18 63.5707 23.396C63.3387 23.612 63.2227 23.88 63.2227 24.2C63.2227 24.56 63.3627 24.848 63.6427 25.064C63.9227 25.28 64.3147 25.388 64.8187 25.388C65.2987 25.388 65.7107 25.28 66.0547 25.064C66.4067 24.84 66.6627 24.52 66.8227 24.104L67.0147 24.692C66.8547 25.108 66.5747 25.44 66.1747 25.688C65.7827 25.936 65.2867 26.06 64.6867 26.06ZM65.1427 18.776C64.6387 18.776 64.2107 18.64 63.8587 18.368C63.5147 18.088 63.3347 17.708 63.3187 17.228H63.9187C63.9347 17.54 64.0587 17.788 64.2907 17.972C64.5307 18.156 64.8147 18.248 65.1427 18.248C65.4787 18.248 65.7627 18.156 65.9947 17.972C66.2347 17.788 66.3587 17.54 66.3667 17.228H66.9667C66.9507 17.708 66.7667 18.088 66.4147 18.368C66.0707 18.64 65.6467 18.776 65.1427 18.776ZM73.2048 19.64C73.7168 19.64 74.1648 19.74 74.5488 19.94C74.9408 20.132 75.2448 20.428 75.4608 20.828C75.6848 21.228 75.7968 21.732 75.7968 22.34V26H74.9448V22.424C74.9448 21.76 74.7768 21.26 74.4408 20.924C74.1128 20.58 73.6488 20.408 73.0488 20.408C72.6008 20.408 72.2088 20.5 71.8728 20.684C71.5448 20.86 71.2888 21.12 71.1048 21.464C70.9288 21.8 70.8408 22.208 70.8408 22.688V26H69.9888V19.7H70.8048V21.428L70.6728 21.104C70.8728 20.648 71.1928 20.292 71.6328 20.036C72.0728 19.772 72.5968 19.64 73.2048 19.64ZM84.4908 26.06C83.9388 26.06 83.4428 25.936 83.0028 25.688C82.5628 25.432 82.2148 25.064 81.9588 24.584C81.7028 24.104 81.5748 23.524 81.5748 22.844C81.5748 22.156 81.7028 21.576 81.9588 21.104C82.2228 20.624 82.5748 20.26 83.0148 20.012C83.4548 19.764 83.9468 19.64 84.4908 19.64C85.0908 19.64 85.6268 19.776 86.0988 20.048C86.5788 20.312 86.9548 20.684 87.2268 21.164C87.4988 21.644 87.6348 22.204 87.6348 22.844C87.6348 23.476 87.4988 24.036 87.2268 24.524C86.9548 25.004 86.5788 25.38 86.0988 25.652C85.6268 25.924 85.0908 26.06 84.4908 26.06ZM81.2388 26V17.096H82.0908V21.56L81.9708 22.832L82.0548 24.104V26H81.2388ZM84.4308 25.304C84.8788 25.304 85.2788 25.204 85.6308 25.004C85.9828 24.796 86.2628 24.508 86.4708 24.14C86.6788 23.764 86.7828 23.332 86.7828 22.844C86.7828 22.348 86.6788 21.916 86.4708 21.548C86.2628 21.18 85.9828 20.896 85.6308 20.696C85.2788 20.488 84.8788 20.384 84.4308 20.384C83.9828 20.384 83.5788 20.488 83.2188 20.696C82.8668 20.896 82.5868 21.18 82.3788 21.548C82.1788 21.916 82.0788 22.348 82.0788 22.844C82.0788 23.332 82.1788 23.764 82.3788 24.14C82.5868 24.508 82.8668 24.796 83.2188 25.004C83.5788 25.204 83.9828 25.304 84.4308 25.304ZM93.2844 26V24.608L93.2484 24.38V22.052C93.2484 21.516 93.0964 21.104 92.7924 20.816C92.4964 20.528 92.0524 20.384 91.4604 20.384C91.0524 20.384 90.6644 20.452 90.2964 20.588C89.9284 20.724 89.6164 20.904 89.3604 21.128L88.9764 20.492C89.2964 20.22 89.6804 20.012 90.1284 19.868C90.5764 19.716 91.0484 19.64 91.5444 19.64C92.3604 19.64 92.9884 19.844 93.4284 20.252C93.8764 20.652 94.1004 21.264 94.1004 22.088V26H93.2844ZM91.1124 26.06C90.6404 26.06 90.2284 25.984 89.8764 25.832C89.5324 25.672 89.2684 25.456 89.0844 25.184C88.9004 24.904 88.8084 24.584 88.8084 24.224C88.8084 23.896 88.8844 23.6 89.0364 23.336C89.1964 23.064 89.4524 22.848 89.8044 22.688C90.1644 22.52 90.6444 22.436 91.2444 22.436H93.4164V23.072H91.2684C90.6604 23.072 90.2364 23.18 89.9964 23.396C89.7644 23.612 89.6484 23.88 89.6484 24.2C89.6484 24.56 89.7884 24.848 90.0684 25.064C90.3484 25.28 90.7404 25.388 91.2444 25.388C91.7244 25.388 92.1364 25.28 92.4804 25.064C92.8324 24.84 93.0884 24.52 93.2484 24.104L93.4404 24.692C93.2804 25.108 93.0004 25.44 92.6004 25.688C92.2084 25.936 91.7124 26.06 91.1124 26.06ZM91.7244 18.8L91.4244 18.428C91.6644 18.316 91.8404 18.192 91.9524 18.056C92.0724 17.92 92.1324 17.76 92.1324 17.576C92.1324 17.408 92.0724 17.268 91.9524 17.156C91.8324 17.044 91.6724 16.988 91.4724 16.988C91.2244 16.988 90.9844 17.064 90.7524 17.216L90.5484 16.796C90.6844 16.692 90.8404 16.616 91.0164 16.568C91.2004 16.512 91.3764 16.484 91.5444 16.484C91.8804 16.484 92.1524 16.58 92.3604 16.772C92.5764 16.956 92.6844 17.204 92.6844 17.516C92.6844 17.796 92.6044 18.044 92.4444 18.26C92.2924 18.468 92.0524 18.648 91.7244 18.8ZM99.6306 19.64C100.143 19.64 100.591 19.74 100.975 19.94C101.367 20.132 101.671 20.428 101.887 20.828C102.111 21.228 102.223 21.732 102.223 22.34V26H101.371V22.424C101.371 21.76 101.203 21.26 100.867 20.924C100.539 20.58 100.075 20.408 99.4746 20.408C99.0266 20.408 98.6346 20.5 98.2986 20.684C97.9706 20.86 97.7146 21.12 97.5306 21.464C97.3546 21.8 97.2666 22.208 97.2666 22.688V26H96.4146V19.7H97.2306V21.428L97.0986 21.104C97.2986 20.648 97.6186 20.292 98.0586 20.036C98.4986 19.772 99.0226 19.64 99.6306 19.64Z" fill="white"/>
<path d="M26.8002 18.9332V30.047C26.8002 30.2998 26.9262 30.5422 27.1505 30.7209C27.3748 30.8996 27.679 31 27.9961 31H34.8423C35.1593 30.9998 35.4633 30.8993 35.6873 30.7206C35.9114 30.5419 36.0372 30.2996 36.0372 30.047V18.9414C36.0372 18.6887 36.1632 18.4463 36.3875 18.2676C36.6118 18.0888 36.916 17.9885 37.2331 17.9885H39.8041C40.1211 17.9885 40.4251 17.8882 40.6494 17.7096C40.8736 17.5311 40.9997 17.2889 41 17.0363V12.953C41 12.7002 40.874 12.4578 40.6497 12.2791C40.4254 12.1004 40.1213 12 39.8041 12H23.1959C22.8787 12 22.5746 12.1004 22.3503 12.2791C22.126 12.4578 22 12.7002 22 12.953V17.0281C22.0003 17.2807 22.1264 17.5228 22.3506 17.7014C22.5749 17.8799 22.8789 17.9802 23.1959 17.9802H25.6033C25.7604 17.9801 25.916 18.0047 26.0612 18.0525C26.2065 18.1003 26.3384 18.1705 26.4496 18.259C26.5607 18.3475 26.6489 18.4526 26.7091 18.5683C26.7693 18.684 26.8002 18.808 26.8002 18.9332Z" fill="white"/>
<defs>
<linearGradient id="paint0_linear_207_17" x1="60.7592" y1="11.3842" x2="64.7991" y2="77.3204" gradientUnits="userSpaceOnUse">
<stop stop-color="#122F6A"/>
<stop offset="1" stop-color="#76AAAB"/>
</linearGradient>
</defs>
</svg>
