<svg width="422" height="44" viewBox="0 0 422 44" fill="none" xmlns="http://www.w3.org/2000/svg">
<path d="M415 0C418.866 0 422 3.13401 422 7V36.252C422 40.1178 418.866 43.252 415 43.252H7C3.13409 43.252 0.000128113 40.1178 0 36.252V7C2.92729e-07 3.13401 3.13401 1.40931e-07 7 0H415Z" fill="url(#paint0_linear_207_14)" fill-opacity="0.9"/>
<path d="M57.756 26L54.036 17.6H54.996L58.476 25.508H57.948L61.452 17.6H62.352L58.632 26H57.756ZM63.356 26V19.7H64.208V26H63.356ZM63.788 18.308C63.612 18.308 63.464 18.248 63.344 18.128C63.224 18.008 63.164 17.864 63.164 17.696C63.164 17.528 63.224 17.388 63.344 17.276C63.464 17.156 63.612 17.096 63.788 17.096C63.964 17.096 64.112 17.152 64.232 17.264C64.352 17.376 64.412 17.516 64.412 17.684C64.412 17.86 64.352 18.008 64.232 18.128C64.12 18.248 63.972 18.308 63.788 18.308ZM69.0866 26.06C68.4866 26.06 67.9466 25.924 67.4666 25.652C66.9946 25.38 66.6226 25.004 66.3506 24.524C66.0786 24.036 65.9426 23.476 65.9426 22.844C65.9426 22.204 66.0786 21.644 66.3506 21.164C66.6226 20.684 66.9946 20.312 67.4666 20.048C67.9466 19.776 68.4866 19.64 69.0866 19.64C69.6386 19.64 70.1306 19.764 70.5626 20.012C71.0026 20.26 71.3506 20.624 71.6066 21.104C71.8706 21.576 72.0026 22.156 72.0026 22.844C72.0026 23.524 71.8746 24.104 71.6186 24.584C71.3626 25.064 71.0146 25.432 70.5746 25.688C70.1426 25.936 69.6466 26.06 69.0866 26.06ZM69.1466 25.304C69.5946 25.304 69.9946 25.204 70.3466 25.004C70.7066 24.796 70.9866 24.508 71.1866 24.14C71.3946 23.764 71.4986 23.332 71.4986 22.844C71.4986 22.348 71.3946 21.916 71.1866 21.548C70.9866 21.18 70.7066 20.896 70.3466 20.696C69.9946 20.488 69.5946 20.384 69.1466 20.384C68.7066 20.384 68.3106 20.488 67.9586 20.696C67.6066 20.896 67.3266 21.18 67.1186 21.548C66.9106 21.916 66.8066 22.348 66.8066 22.844C66.8066 23.332 66.9106 23.764 67.1186 24.14C67.3266 24.508 67.6066 24.796 67.9586 25.004C68.3106 25.204 68.7066 25.304 69.1466 25.304ZM71.5226 26V24.104L71.6066 22.832L71.4866 21.56V17.096H72.3386V26H71.5226ZM77.3874 26.06C76.7314 26.06 76.1554 25.924 75.6594 25.652C75.1634 25.372 74.7754 24.992 74.4954 24.512C74.2154 24.024 74.0754 23.468 74.0754 22.844C74.0754 22.22 74.2074 21.668 74.4714 21.188C74.7434 20.708 75.1114 20.332 75.5754 20.06C76.0474 19.78 76.5754 19.64 77.1594 19.64C77.7514 19.64 78.2754 19.776 78.7314 20.048C79.1954 20.312 79.5594 20.688 79.8234 21.176C80.0874 21.656 80.2194 22.212 80.2194 22.844C80.2194 22.884 80.2154 22.928 80.2074 22.976C80.2074 23.016 80.2074 23.06 80.2074 23.108H74.7234V22.472H79.7514L79.4154 22.724C79.4154 22.268 79.3154 21.864 79.1154 21.512C78.9234 21.152 78.6594 20.872 78.3234 20.672C77.9874 20.472 77.5994 20.372 77.1594 20.372C76.7274 20.372 76.3394 20.472 75.9954 20.672C75.6514 20.872 75.3834 21.152 75.1914 21.512C74.9994 21.872 74.9034 22.284 74.9034 22.748V22.88C74.9034 23.36 75.0074 23.784 75.2154 24.152C75.4314 24.512 75.7274 24.796 76.1034 25.004C76.4874 25.204 76.9234 25.304 77.4114 25.304C77.7954 25.304 78.1514 25.236 78.4794 25.1C78.8154 24.964 79.1034 24.756 79.3434 24.476L79.8234 25.028C79.5434 25.364 79.1914 25.62 78.7674 25.796C78.3514 25.972 77.8914 26.06 77.3874 26.06ZM84.5216 26.06C83.9136 26.06 83.3656 25.924 82.8776 25.652C82.3976 25.372 82.0176 24.992 81.7376 24.512C81.4576 24.024 81.3176 23.468 81.3176 22.844C81.3176 22.212 81.4576 21.656 81.7376 21.176C82.0176 20.696 82.3976 20.32 82.8776 20.048C83.3576 19.776 83.9056 19.64 84.5216 19.64C85.1456 19.64 85.6976 19.776 86.1776 20.048C86.6656 20.32 87.0456 20.696 87.3176 21.176C87.5976 21.656 87.7376 22.212 87.7376 22.844C87.7376 23.468 87.5976 24.024 87.3176 24.512C87.0456 24.992 86.6656 25.372 86.1776 25.652C85.6896 25.924 85.1376 26.06 84.5216 26.06ZM84.5216 25.304C84.9776 25.304 85.3816 25.204 85.7336 25.004C86.0856 24.796 86.3616 24.508 86.5616 24.14C86.7696 23.764 86.8736 23.332 86.8736 22.844C86.8736 22.348 86.7696 21.916 86.5616 21.548C86.3616 21.18 86.0856 20.896 85.7336 20.696C85.3816 20.488 84.9816 20.384 84.5336 20.384C84.0856 20.384 83.6856 20.488 83.3336 20.696C82.9816 20.896 82.7016 21.18 82.4936 21.548C82.2856 21.916 82.1816 22.348 82.1816 22.844C82.1816 23.332 82.2856 23.764 82.4936 24.14C82.7016 24.508 82.9816 24.796 83.3336 25.004C83.6856 25.204 84.0816 25.304 84.5216 25.304Z" fill="white"/>
<path d="M35 13.9995C36.6567 13.9995 37.9998 15.3428 38 16.9995V17.3813L40.4941 14.5015C41.1002 13.8016 42.2498 14.23 42.25 15.1558V28.8442C42.2498 29.77 41.1002 30.1984 40.4941 29.4985L38 26.6177V26.9995C38 28.6564 36.6569 29.9995 35 29.9995H22C20.3431 29.9995 19 28.6564 19 26.9995V16.9995C19.0002 15.3428 20.3433 13.9995 22 13.9995H35Z" fill="white"/>
<path d="M392.083 28.2V16.3H395.933V28.2H392.083ZM387.833 24.075V20.425H400.158V24.075H387.833Z" fill="white"/>
<defs>
<linearGradient id="paint0_linear_207_14" x1="60.7592" y1="11.3842" x2="64.7991" y2="77.3204" gradientUnits="userSpaceOnUse">
<stop stop-color="#122F6A"/>
<stop offset="1" stop-color="#76AAAB"/>
</linearGradient>
</defs>
</svg>
