<svg width="133" height="44" viewBox="0 0 133 44" fill="none" xmlns="http://www.w3.org/2000/svg">
<rect width="133" height="44" rx="8" fill="#1F3C75"/>
<path d="M62.016 26.144C61.368 26.144 60.764 26.04 60.204 25.832C59.652 25.616 59.172 25.312 58.764 24.92C58.356 24.528 58.036 24.068 57.804 23.54C57.58 23.012 57.468 22.432 57.468 21.8C57.468 21.168 57.58 20.588 57.804 20.06C58.036 19.532 58.356 19.072 58.764 18.68C59.18 18.288 59.664 17.988 60.216 17.78C60.768 17.564 61.372 17.456 62.028 17.456C62.756 17.456 63.412 17.584 63.996 17.84C64.588 18.088 65.084 18.456 65.484 18.944L64.236 20.096C63.948 19.768 63.628 19.524 63.276 19.364C62.924 19.196 62.54 19.112 62.124 19.112C61.732 19.112 61.372 19.176 61.044 19.304C60.716 19.432 60.432 19.616 60.192 19.856C59.952 20.096 59.764 20.38 59.628 20.708C59.5 21.036 59.436 21.4 59.436 21.8C59.436 22.2 59.5 22.564 59.628 22.892C59.764 23.22 59.952 23.504 60.192 23.744C60.432 23.984 60.716 24.168 61.044 24.296C61.372 24.424 61.732 24.488 62.124 24.488C62.54 24.488 62.924 24.408 63.276 24.248C63.628 24.08 63.948 23.828 64.236 23.492L65.484 24.644C65.084 25.132 64.588 25.504 63.996 25.76C63.412 26.016 62.752 26.144 62.016 26.144ZM70.4724 26V24.74L70.3524 24.464V22.208C70.3524 21.808 70.2284 21.496 69.9804 21.272C69.7404 21.048 69.3684 20.936 68.8644 20.936C68.5204 20.936 68.1804 20.992 67.8444 21.104C67.5164 21.208 67.2364 21.352 67.0044 21.536L66.3324 20.228C66.6844 19.98 67.1084 19.788 67.6044 19.652C68.1004 19.516 68.6044 19.448 69.1164 19.448C70.1004 19.448 70.8644 19.68 71.4084 20.144C71.9524 20.608 72.2244 21.332 72.2244 22.316V26H70.4724ZM68.5044 26.096C68.0004 26.096 67.5684 26.012 67.2084 25.844C66.8484 25.668 66.5724 25.432 66.3804 25.136C66.1884 24.84 66.0924 24.508 66.0924 24.14C66.0924 23.756 66.1844 23.42 66.3684 23.132C66.5604 22.844 66.8604 22.62 67.2684 22.46C67.6764 22.292 68.2084 22.208 68.8644 22.208H70.5804V23.3H69.0684C68.6284 23.3 68.3244 23.372 68.1564 23.516C67.9964 23.66 67.9164 23.84 67.9164 24.056C67.9164 24.296 68.0084 24.488 68.1924 24.632C68.3844 24.768 68.6444 24.836 68.9724 24.836C69.2844 24.836 69.5644 24.764 69.8124 24.62C70.0604 24.468 70.2404 24.248 70.3524 23.96L70.6404 24.824C70.5044 25.24 70.2564 25.556 69.8964 25.772C69.5364 25.988 69.0724 26.096 68.5044 26.096ZM69.5004 18.968L68.9124 18.344C69.1444 18.232 69.3044 18.116 69.3924 17.996C69.4804 17.876 69.5244 17.748 69.5244 17.612C69.5244 17.46 69.4724 17.34 69.3684 17.252C69.2644 17.156 69.1284 17.108 68.9604 17.108C68.7204 17.108 68.4844 17.184 68.2524 17.336L67.8684 16.58C68.0684 16.428 68.2804 16.32 68.5044 16.256C68.7364 16.184 68.9604 16.148 69.1764 16.148C69.4644 16.148 69.7164 16.208 69.9324 16.328C70.1564 16.44 70.3284 16.596 70.4484 16.796C70.5764 16.988 70.6404 17.212 70.6404 17.468C70.6404 17.772 70.5484 18.052 70.3644 18.308C70.1884 18.564 69.9004 18.784 69.5004 18.968ZM73.9187 26V19.544H75.7067V21.332L75.3707 20.792C75.6027 20.36 75.9347 20.028 76.3667 19.796C76.7987 19.564 77.2907 19.448 77.8427 19.448C78.3547 19.448 78.8107 19.552 79.2107 19.76C79.6187 19.96 79.9387 20.272 80.1707 20.696C80.4027 21.112 80.5187 21.648 80.5187 22.304V26H78.6467V22.592C78.6467 22.072 78.5307 21.688 78.2987 21.44C78.0747 21.192 77.7547 21.068 77.3387 21.068C77.0427 21.068 76.7747 21.132 76.5347 21.26C76.3027 21.38 76.1187 21.568 75.9827 21.824C75.8547 22.08 75.7907 22.408 75.7907 22.808V26H73.9187ZM82.2156 26V17.096H84.0876V21.332L83.6676 20.792C83.8996 20.36 84.2316 20.028 84.6636 19.796C85.0956 19.564 85.5876 19.448 86.1396 19.448C86.6516 19.448 87.1076 19.552 87.5076 19.76C87.9156 19.96 88.2356 20.272 88.4676 20.696C88.6996 21.112 88.8156 21.648 88.8156 22.304V26H86.9436V22.592C86.9436 22.072 86.8276 21.688 86.5956 21.44C86.3716 21.192 86.0516 21.068 85.6356 21.068C85.3396 21.068 85.0716 21.132 84.8316 21.26C84.5996 21.38 84.4156 21.568 84.2796 21.824C84.1516 22.08 84.0876 22.408 84.0876 22.808V26H82.2156ZM95.6629 26L92.9509 19.544H94.8829L97.1389 25.1H96.1789L98.5189 19.544H100.319L97.5949 26H95.6629ZM104.785 26V24.74L104.665 24.464V22.208C104.665 21.808 104.541 21.496 104.293 21.272C104.053 21.048 103.681 20.936 103.177 20.936C102.833 20.936 102.493 20.992 102.157 21.104C101.829 21.208 101.549 21.352 101.317 21.536L100.645 20.228C100.997 19.98 101.421 19.788 101.917 19.652C102.413 19.516 102.917 19.448 103.429 19.448C104.413 19.448 105.177 19.68 105.721 20.144C106.265 20.608 106.537 21.332 106.537 22.316V26H104.785ZM102.817 26.096C102.313 26.096 101.881 26.012 101.521 25.844C101.161 25.668 100.885 25.432 100.693 25.136C100.501 24.84 100.405 24.508 100.405 24.14C100.405 23.756 100.497 23.42 100.681 23.132C100.873 22.844 101.173 22.62 101.581 22.46C101.989 22.292 102.521 22.208 103.177 22.208H104.893V23.3H103.381C102.941 23.3 102.637 23.372 102.469 23.516C102.309 23.66 102.229 23.84 102.229 24.056C102.229 24.296 102.321 24.488 102.505 24.632C102.697 24.768 102.957 24.836 103.285 24.836C103.597 24.836 103.877 24.764 104.125 24.62C104.373 24.468 104.553 24.248 104.665 23.96L104.953 24.824C104.817 25.24 104.569 25.556 104.209 25.772C103.849 25.988 103.385 26.096 102.817 26.096ZM103.477 28.7C103.181 28.7 102.937 28.604 102.745 28.412C102.561 28.22 102.469 27.976 102.469 27.68C102.469 27.392 102.561 27.152 102.745 26.96C102.937 26.768 103.181 26.672 103.477 26.672C103.765 26.672 104.005 26.768 104.197 26.96C104.389 27.152 104.485 27.392 104.485 27.68C104.485 27.976 104.389 28.22 104.197 28.412C104.005 28.604 103.765 28.7 103.477 28.7ZM101.209 18.716L102.793 16.988H104.449L106.033 18.716H104.665L103.009 17.276H104.233L102.577 18.716H101.209ZM110.871 26.096C110.111 26.096 109.519 25.904 109.095 25.52C108.671 25.128 108.459 24.548 108.459 23.78V18.116H110.331V23.756C110.331 24.028 110.403 24.24 110.547 24.392C110.691 24.536 110.887 24.608 111.135 24.608C111.431 24.608 111.683 24.528 111.891 24.368L112.395 25.688C112.203 25.824 111.971 25.928 111.699 26C111.435 26.064 111.159 26.096 110.871 26.096ZM107.463 20.984V19.544H111.939V20.984H107.463Z" fill="white"/>
</svg>
