<svg width="133" height="44" viewBox="0 0 133 44" fill="none" xmlns="http://www.w3.org/2000/svg">
<rect width="133" height="44" rx="8" fill="#1F3C75"/>
<path d="M67.016 26.144C66.368 26.144 65.764 26.04 65.204 25.832C64.652 25.616 64.172 25.312 63.764 24.92C63.356 24.528 63.036 24.068 62.804 23.54C62.58 23.012 62.468 22.432 62.468 21.8C62.468 21.168 62.58 20.588 62.804 20.06C63.036 19.532 63.356 19.072 63.764 18.68C64.18 18.288 64.664 17.988 65.216 17.78C65.768 17.564 66.372 17.456 67.028 17.456C67.756 17.456 68.412 17.584 68.996 17.84C69.588 18.088 70.084 18.456 70.484 18.944L69.236 20.096C68.948 19.768 68.628 19.524 68.276 19.364C67.924 19.196 67.54 19.112 67.124 19.112C66.732 19.112 66.372 19.176 66.044 19.304C65.716 19.432 65.432 19.616 65.192 19.856C64.952 20.096 64.764 20.38 64.628 20.708C64.5 21.036 64.436 21.4 64.436 21.8C64.436 22.2 64.5 22.564 64.628 22.892C64.764 23.22 64.952 23.504 65.192 23.744C65.432 23.984 65.716 24.168 66.044 24.296C66.372 24.424 66.732 24.488 67.124 24.488C67.54 24.488 67.924 24.408 68.276 24.248C68.628 24.08 68.948 23.828 69.236 23.492L70.484 24.644C70.084 25.132 69.588 25.504 68.996 25.76C68.412 26.016 67.752 26.144 67.016 26.144ZM75.5896 26V24.74L75.4696 24.464V22.208C75.4696 21.808 75.3456 21.496 75.0976 21.272C74.8576 21.048 74.4856 20.936 73.9816 20.936C73.6376 20.936 73.2976 20.992 72.9616 21.104C72.6336 21.208 72.3536 21.352 72.1216 21.536L71.4496 20.228C71.8016 19.98 72.2256 19.788 72.7216 19.652C73.2176 19.516 73.7216 19.448 74.2336 19.448C75.2176 19.448 75.9816 19.68 76.5256 20.144C77.0696 20.608 77.3416 21.332 77.3416 22.316V26H75.5896ZM73.6216 26.096C73.1176 26.096 72.6856 26.012 72.3256 25.844C71.9656 25.668 71.6896 25.432 71.4976 25.136C71.3056 24.84 71.2096 24.508 71.2096 24.14C71.2096 23.756 71.3016 23.42 71.4856 23.132C71.6776 22.844 71.9776 22.62 72.3856 22.46C72.7936 22.292 73.3256 22.208 73.9816 22.208H75.6976V23.3H74.1856C73.7456 23.3 73.4416 23.372 73.2736 23.516C73.1136 23.66 73.0336 23.84 73.0336 24.056C73.0336 24.296 73.1256 24.488 73.3096 24.632C73.5016 24.768 73.7616 24.836 74.0896 24.836C74.4016 24.836 74.6816 24.764 74.9296 24.62C75.1776 24.468 75.3576 24.248 75.4696 23.96L75.7576 24.824C75.6216 25.24 75.3736 25.556 75.0136 25.772C74.6536 25.988 74.1896 26.096 73.6216 26.096ZM74.7856 18.836L74.1976 18.212C74.4296 18.1 74.5896 17.984 74.6776 17.864C74.7656 17.744 74.8096 17.616 74.8096 17.48C74.8096 17.328 74.7576 17.208 74.6536 17.12C74.5496 17.024 74.4136 16.976 74.2456 16.976C74.0056 16.976 73.7696 17.052 73.5376 17.204L73.1416 16.448C73.3256 16.312 73.5296 16.212 73.7536 16.148C73.9856 16.076 74.2176 16.04 74.4496 16.04C74.8736 16.04 75.2176 16.16 75.4816 16.4C75.7536 16.632 75.8896 16.94 75.8896 17.324C75.8896 17.668 75.7976 17.964 75.6136 18.212C75.4296 18.46 75.1536 18.668 74.7856 18.836ZM82.9599 19.448C83.4719 19.448 83.9279 19.552 84.3279 19.76C84.7359 19.96 85.0559 20.272 85.2879 20.696C85.5199 21.112 85.6359 21.648 85.6359 22.304V26H83.7639V22.592C83.7639 22.072 83.6479 21.688 83.4159 21.44C83.1919 21.192 82.8719 21.068 82.4559 21.068C82.1599 21.068 81.8919 21.132 81.6519 21.26C81.4199 21.38 81.2359 21.568 81.0999 21.824C80.9719 22.08 80.9079 22.408 80.9079 22.808V26H79.0359V19.544H80.8239V21.332L80.4879 20.792C80.7199 20.36 81.0519 20.028 81.4839 19.796C81.9159 19.564 82.4079 19.448 82.9599 19.448ZM91.2568 19.448C91.7688 19.448 92.2248 19.552 92.6248 19.76C93.0328 19.96 93.3528 20.272 93.5848 20.696C93.8168 21.112 93.9328 21.648 93.9328 22.304V26H92.0608V22.592C92.0608 22.072 91.9448 21.688 91.7128 21.44C91.4888 21.192 91.1688 21.068 90.7528 21.068C90.4568 21.068 90.1888 21.132 89.9488 21.26C89.7168 21.38 89.5328 21.568 89.3968 21.824C89.2688 22.08 89.2048 22.408 89.2048 22.808V26H87.3328V17.096H89.2048V21.332L88.7848 20.792C89.0168 20.36 89.3488 20.028 89.7808 19.796C90.2128 19.564 90.7048 19.448 91.2568 19.448ZM100.78 26L98.0681 19.544H100L102.256 25.1H101.296L103.636 19.544H105.436L102.712 26H100.78ZM109.949 26V24.74L109.829 24.464V22.208C109.829 21.808 109.705 21.496 109.457 21.272C109.217 21.048 108.845 20.936 108.341 20.936C107.997 20.936 107.657 20.992 107.321 21.104C106.993 21.208 106.713 21.352 106.481 21.536L105.809 20.228C106.161 19.98 106.585 19.788 107.081 19.652C107.577 19.516 108.081 19.448 108.593 19.448C109.577 19.448 110.341 19.68 110.885 20.144C111.429 20.608 111.701 21.332 111.701 22.316V26H109.949ZM107.981 26.096C107.477 26.096 107.045 26.012 106.685 25.844C106.325 25.668 106.049 25.432 105.857 25.136C105.665 24.84 105.569 24.508 105.569 24.14C105.569 23.756 105.661 23.42 105.845 23.132C106.037 22.844 106.337 22.62 106.745 22.46C107.153 22.292 107.685 22.208 108.341 22.208H110.057V23.3H108.545C108.105 23.3 107.801 23.372 107.633 23.516C107.473 23.66 107.393 23.84 107.393 24.056C107.393 24.296 107.485 24.488 107.669 24.632C107.861 24.768 108.121 24.836 108.449 24.836C108.761 24.836 109.041 24.764 109.289 24.62C109.537 24.468 109.717 24.248 109.829 23.96L110.117 24.824C109.981 25.24 109.733 25.556 109.373 25.772C109.013 25.988 108.549 26.096 107.981 26.096ZM108.641 28.52C108.409 28.52 108.213 28.448 108.053 28.304C107.893 28.16 107.813 27.964 107.813 27.716C107.813 27.468 107.893 27.264 108.053 27.104C108.213 26.952 108.409 26.876 108.641 26.876C108.873 26.876 109.069 26.952 109.229 27.104C109.389 27.264 109.469 27.468 109.469 27.716C109.469 27.964 109.389 28.16 109.229 28.304C109.069 28.448 108.873 28.52 108.641 28.52ZM106.373 18.716L107.957 16.988H109.613L111.197 18.716H109.829L108.173 17.276H109.397L107.741 18.716H106.373ZM116.035 26.096C115.275 26.096 114.683 25.904 114.259 25.52C113.835 25.128 113.623 24.548 113.623 23.78V18.116H115.495V23.756C115.495 24.028 115.567 24.24 115.711 24.392C115.855 24.536 116.051 24.608 116.299 24.608C116.595 24.608 116.847 24.528 117.055 24.368L117.559 25.688C117.367 25.824 117.135 25.928 116.863 26C116.599 26.064 116.323 26.096 116.035 26.096ZM112.627 21.128V19.688H117.103V21.128H112.627Z" fill="white"/>
<path d="M26.375 14C28.7932 14 30.9686 15.1639 32.4775 17.0176C32.8115 16.9639 33.1528 16.9355 33.5 16.9355C35.6243 16.9355 37.5315 17.9749 38.8369 19.624C39.7427 19.2416 40.7245 19.0322 41.75 19.0322C46.3063 19.0322 49.9999 23.1626 50 28.2578H11C11.0001 24.5522 14.1061 21.5479 17.9375 21.5479C18.0455 21.5479 18.153 21.5509 18.2598 21.5557C18.9627 17.2579 22.3287 14 26.375 14Z" fill="#68E5E3"/>
</svg>
