<svg width="133" height="44" viewBox="0 0 133 44" fill="none" xmlns="http://www.w3.org/2000/svg">
<rect width="133" height="44" rx="8" fill="#1F3C75"/>
<path d="M59.736 26V19.184H57.048V17.6H64.368V19.184H61.68V26H59.736ZM67.8653 26.096C67.3293 26.096 66.8493 25.992 66.4253 25.784C66.0093 25.576 65.6853 25.26 65.4533 24.836C65.2213 24.404 65.1053 23.856 65.1053 23.192V19.544H66.9773V22.916C66.9773 23.452 67.0893 23.848 67.3133 24.104C67.5453 24.352 67.8693 24.476 68.2853 24.476C68.5733 24.476 68.8293 24.416 69.0533 24.296C69.2773 24.168 69.4533 23.976 69.5813 23.72C69.7093 23.456 69.7733 23.128 69.7733 22.736V19.544H71.6453V26H69.8693V24.224L70.1933 24.74C69.9773 25.188 69.6573 25.528 69.2333 25.76C68.8173 25.984 68.3613 26.096 67.8653 26.096ZM70.4453 20.792V19.544H70.7693C70.9933 19.544 71.1693 19.476 71.2973 19.34C71.4253 19.196 71.4893 19.012 71.4893 18.788C71.4893 18.644 71.4653 18.512 71.4173 18.392C71.3773 18.264 71.3213 18.156 71.2493 18.068L72.3533 17.66C72.4733 17.82 72.5653 18 72.6293 18.2C72.7013 18.4 72.7373 18.62 72.7373 18.86C72.7373 19.46 72.5573 19.932 72.1973 20.276C71.8453 20.62 71.3533 20.792 70.7213 20.792H70.4453ZM76.393 26.096C75.705 26.096 75.093 25.952 74.557 25.664C74.029 25.376 73.609 24.984 73.297 24.488C72.993 23.984 72.841 23.412 72.841 22.772C72.841 22.124 72.993 21.552 73.297 21.056C73.609 20.552 74.033 20.16 74.569 19.88C75.105 19.592 75.717 19.448 76.405 19.448C76.621 19.448 76.805 19.456 76.957 19.472C77.117 19.488 77.265 19.508 77.401 19.532C77.545 19.548 77.689 19.556 77.833 19.556C78.097 19.556 78.289 19.484 78.409 19.34C78.537 19.188 78.601 19 78.601 18.776C78.601 18.632 78.577 18.5 78.529 18.38C78.481 18.26 78.421 18.152 78.349 18.056L79.441 17.648C79.561 17.816 79.657 18 79.729 18.2C79.809 18.4 79.849 18.616 79.849 18.848C79.849 19.216 79.757 19.54 79.573 19.82C79.397 20.1 79.145 20.316 78.817 20.468C78.497 20.612 78.121 20.684 77.689 20.684C77.505 20.684 77.325 20.676 77.149 20.66C76.973 20.636 76.801 20.608 76.633 20.576L77.845 19.724C78.485 19.972 78.993 20.364 79.369 20.9C79.745 21.428 79.933 22.052 79.933 22.772C79.933 23.412 79.781 23.984 79.477 24.488C79.173 24.984 78.753 25.376 78.217 25.664C77.681 25.952 77.073 26.096 76.393 26.096ZM76.393 24.56C76.697 24.56 76.973 24.488 77.221 24.344C77.469 24.2 77.665 23.996 77.809 23.732C77.961 23.46 78.037 23.14 78.037 22.772C78.037 22.396 77.965 22.076 77.821 21.812C77.677 21.548 77.481 21.344 77.233 21.2C76.985 21.056 76.705 20.984 76.393 20.984C76.081 20.984 75.801 21.056 75.553 21.2C75.305 21.344 75.105 21.548 74.953 21.812C74.809 22.076 74.737 22.396 74.737 22.772C74.737 23.14 74.809 23.46 74.953 23.732C75.105 23.996 75.305 24.2 75.553 24.344C75.801 24.488 76.081 24.56 76.393 24.56ZM76.021 18.716L73.849 16.988H75.865L77.485 18.716H76.021ZM81.1843 26V19.544H82.9723V21.332L82.6363 20.792C82.8683 20.36 83.2003 20.028 83.6323 19.796C84.0643 19.564 84.5563 19.448 85.1083 19.448C85.6203 19.448 86.0763 19.552 86.4763 19.76C86.8843 19.96 87.2043 20.272 87.4363 20.696C87.6683 21.112 87.7843 21.648 87.7843 22.304V26H85.9123V22.592C85.9123 22.072 85.7963 21.688 85.5643 21.44C85.3403 21.192 85.0203 21.068 84.6043 21.068C84.3083 21.068 84.0403 21.132 83.8003 21.26C83.5683 21.38 83.3843 21.568 83.2483 21.824C83.1203 22.08 83.0563 22.408 83.0563 22.808V26H81.1843ZM92.5641 28.424C91.9561 28.424 91.3681 28.348 90.8001 28.196C90.2401 28.052 89.7721 27.832 89.3961 27.536L90.1401 26.192C90.4121 26.416 90.7561 26.592 91.1721 26.72C91.5961 26.856 92.0121 26.924 92.4201 26.924C93.0841 26.924 93.5641 26.776 93.8601 26.48C94.1641 26.184 94.3161 25.744 94.3161 25.16V24.188L94.4361 22.568L94.4121 20.936V19.544H96.1881V24.92C96.1881 26.12 95.8761 27.004 95.2521 27.572C94.6281 28.14 93.7321 28.424 92.5641 28.424ZM92.2761 25.688C91.6761 25.688 91.1321 25.56 90.6441 25.304C90.1641 25.04 89.7761 24.676 89.4801 24.212C89.1921 23.74 89.0481 23.192 89.0481 22.568C89.0481 21.936 89.1921 21.388 89.4801 20.924C89.7761 20.452 90.1641 20.088 90.6441 19.832C91.1321 19.576 91.6761 19.448 92.2761 19.448C92.8201 19.448 93.3001 19.56 93.7161 19.784C94.1321 20 94.4561 20.34 94.6881 20.804C94.9201 21.26 95.0361 21.848 95.0361 22.568C95.0361 23.28 94.9201 23.868 94.6881 24.332C94.4561 24.788 94.1321 25.128 93.7161 25.352C93.3001 25.576 92.8201 25.688 92.2761 25.688ZM92.6481 24.152C92.9761 24.152 93.2681 24.088 93.5241 23.96C93.7801 23.824 93.9801 23.636 94.1241 23.396C94.2681 23.156 94.3401 22.88 94.3401 22.568C94.3401 22.248 94.2681 21.972 94.1241 21.74C93.9801 21.5 93.7801 21.316 93.5241 21.188C93.2681 21.052 92.9761 20.984 92.6481 20.984C92.3201 20.984 92.0281 21.052 91.7721 21.188C91.5161 21.316 91.3121 21.5 91.1601 21.74C91.0161 21.972 90.9441 22.248 90.9441 22.568C90.9441 22.88 91.0161 23.156 91.1601 23.396C91.3121 23.636 91.5161 23.824 91.7721 23.96C92.0281 24.088 92.3201 24.152 92.6481 24.152Z" fill="white"/>
</svg>
