<svg width="37" height="39" viewBox="0 0 37 39" fill="none" xmlns="http://www.w3.org/2000/svg">
<path d="M18.103 3.51246e-06C14.5226 3.51246e-06 11.0226 1.13248 8.04553 3.25424C5.0685 5.376 2.7482 8.39175 1.37802 11.9201C0.00784593 15.4485 -0.350657 19.3309 0.347852 23.0766C1.04636 26.8223 2.77051 30.2629 5.30226 32.9634C7.83401 35.6639 11.0597 37.503 14.5713 38.248C18.083 38.9931 21.7229 38.6107 25.0308 37.1492C28.3387 35.6877 31.166 33.2128 33.1552 30.0373C35.1443 26.8619 36.2061 23.1286 36.2061 19.3095C36.2075 16.7733 35.7402 14.2617 34.831 11.9183C33.9217 9.57486 32.5883 7.44558 30.907 5.65222C29.2257 3.85886 27.2295 2.43659 25.0325 1.46674C22.8355 0.496886 20.4808 -0.00152662 18.103 3.51246e-06ZM25.2286 9.75371H23.1116C22.7508 9.70138 22.3836 9.7365 22.0372 9.85645C21.6909 9.97639 21.3744 10.1781 21.1112 10.4465C20.848 10.7149 20.6449 11.0432 20.5171 11.4069C20.3892 11.7706 20.3399 12.1603 20.3727 12.5471V15.9109H24.9994L24.2574 21.102H20.3727V33.6374H15.1131V21.102H10.8138V15.9109H15.0804V11.9652C15.0804 7.4724 17.5902 4.9816 21.4312 4.9816C22.6928 5.00077 23.9512 5.12138 25.1958 5.34242L25.2286 9.75371Z" fill="white"/>
</svg>
