<svg width="38" height="38" viewBox="0 0 38 38" fill="none" xmlns="http://www.w3.org/2000/svg">
<path d="M18.9186 15.1982C18.2075 15.2005 17.513 15.4129 16.9228 15.8088C16.3326 16.2046 15.8732 16.7661 15.6027 17.4223C15.3321 18.0785 15.2624 18.8 15.4026 19.4957C15.5427 20.1914 15.8862 20.83 16.3899 21.331C16.8935 21.8319 17.5346 22.1727 18.2322 22.3103C18.9299 22.448 19.6527 22.3762 20.3095 22.1041C20.9663 21.8321 21.5275 21.3719 21.9224 20.7818C22.3172 20.1916 22.5279 19.498 22.5279 18.7884C22.5249 17.8352 22.1434 16.922 21.4668 16.2491C20.7903 15.5761 19.8739 15.1982 18.9186 15.1982Z" fill="white"/>
<path d="M23.3918 9.54785H14.3118C13.0626 9.54785 11.8645 10.043 10.9812 10.9245C10.0978 11.8059 9.60156 13.0014 9.60156 14.2479V23.3082C9.60156 24.5547 10.0978 25.7502 10.9812 26.6316C11.8645 27.5131 13.0626 28.0083 14.3118 28.0083H23.3918C24.6391 28.0053 25.8343 27.5087 26.7151 26.6276C27.596 25.7465 28.0907 24.5528 28.0907 23.3082V14.2479C28.0907 13.0033 27.596 11.8096 26.7151 10.9285C25.8343 10.0474 24.6391 9.55085 23.3918 9.54785ZM18.9199 24.3502C17.7975 24.3502 16.7003 24.018 15.7671 23.3958C14.8338 22.7736 14.1064 21.8892 13.6769 20.8545C13.2474 19.8198 13.135 18.6812 13.354 17.5827C13.5729 16.4842 14.1134 15.4753 14.9071 14.6833C15.7007 13.8914 16.7119 13.3521 17.8128 13.1336C18.9136 12.9151 20.0547 13.0272 21.0917 13.4558C22.1286 13.8844 23.0149 14.6102 23.6385 15.5414C24.2621 16.4726 24.5949 17.5675 24.5949 18.6875C24.5949 20.1893 23.997 21.6296 22.9328 22.6916C21.8685 23.7535 20.425 24.3502 18.9199 24.3502ZM24.8787 14.0893C24.6114 14.0915 24.3496 14.0137 24.127 13.8661C23.9044 13.7186 23.7311 13.5079 23.6294 13.2613C23.5278 13.0146 23.5024 12.7433 23.5566 12.4821C23.6108 12.221 23.742 11.9819 23.9334 11.7958C24.1249 11.6097 24.3677 11.485 24.6308 11.4377C24.8938 11.3905 25.165 11.4228 25.4095 11.5306C25.6539 11.6384 25.8605 11.8168 26.0025 12.0427C26.1446 12.2686 26.2157 12.5317 26.2066 12.7983C26.2112 12.9751 26.1802 13.1511 26.1155 13.3158C26.0508 13.4805 25.9537 13.6306 25.8299 13.7573C25.7062 13.8839 25.5582 13.9846 25.3949 14.0533C25.2315 14.122 25.056 14.1574 24.8787 14.1573V14.0893Z" fill="white"/>
<path d="M18.8297 0C15.1055 0 11.465 1.10194 8.36847 3.16648C5.27195 5.23103 2.8585 8.16545 1.43333 11.5987C0.00815429 15.0319 -0.36473 18.8097 0.361817 22.4543C1.08836 26.099 2.88171 29.4469 5.51509 32.0745C8.14847 34.7022 11.5036 36.4917 15.1562 37.2166C18.8088 37.9416 22.5948 37.5695 26.0355 36.1475C29.4762 34.7254 32.417 32.3172 34.486 29.2273C36.555 26.1375 37.6594 22.5049 37.6594 18.7888C37.6594 13.8057 35.6755 9.02671 32.1443 5.50312C28.613 1.97953 23.8236 0 18.8297 0ZM30.2478 23.3303C30.2478 25.1325 29.5303 26.8609 28.2532 28.1353C26.9761 29.4096 25.2439 30.1256 23.4378 30.1256H14.3578C12.5516 30.1256 10.8195 29.4096 9.54237 28.1353C8.26525 26.8609 7.54776 25.1325 7.54776 23.3303V14.27C7.54776 12.4678 8.26525 10.7394 9.54237 9.46504C10.8195 8.19069 12.5516 7.47477 14.3578 7.47477H23.4378C25.2439 7.47477 26.9761 8.19069 28.2532 9.46504C29.5303 10.7394 30.2478 12.4678 30.2478 14.27V23.3303Z" fill="white"/>
</svg>
