<svg width="23" height="23" viewBox="0 0 23 23" fill="none" xmlns="http://www.w3.org/2000/svg">
<path d="M11.2364 0C9.01402 0 6.84159 0.657562 4.99378 1.88955C3.14597 3.12154 1.70578 4.87262 0.855322 6.92135C0.00486825 8.97007 -0.217649 11.2244 0.215909 13.3993C0.649466 15.5742 1.71962 17.572 3.29105 19.1401C4.86249 20.7081 6.86461 21.7759 9.04425 22.2085C11.2239 22.6412 13.4832 22.4191 15.5363 21.5705C17.5895 20.7219 19.3444 19.2848 20.5791 17.441C21.8137 15.5972 22.4727 13.4295 22.4727 11.212C22.4727 8.23838 21.2889 5.38657 19.1817 3.28392C17.0744 1.18126 14.2164 0 11.2364 0ZM6.28911 6.16727H16.3259C16.4607 6.1655 16.5952 6.18142 16.7258 6.21461L16.6783 6.2687L12.1851 11.3202C12.0757 11.4451 11.9408 11.5452 11.7895 11.6138C11.6381 11.6824 11.4738 11.7178 11.3075 11.7178C11.1413 11.7178 10.977 11.6824 10.8256 11.6138C10.6742 11.5452 10.5393 11.4451 10.4299 11.3202L5.89604 6.18756C6.02559 6.16349 6.15776 6.15667 6.28911 6.16727ZM17.8847 13.5382C17.8847 14.2556 17.5991 14.9436 17.0907 15.4509C16.5823 15.9582 15.8928 16.2432 15.1738 16.2432H7.46832C6.74937 16.2432 6.05985 15.9582 5.55148 15.4509C5.0431 14.9436 4.7575 14.2556 4.7575 13.5382V7.70909C4.75834 7.49957 4.80217 7.29245 4.88626 7.10048L9.42689 12.2466C9.66477 12.5169 9.95768 12.7334 10.2861 12.8817C10.6145 13.03 10.9708 13.1067 11.3312 13.1067C11.6917 13.1067 12.048 13.03 12.3764 12.8817C12.7048 12.7334 12.9977 12.5169 13.2356 12.2466L17.722 7.16808L17.7762 7.09371C17.8603 7.28806 17.9041 7.49739 17.905 7.70909L17.8847 13.5382Z" fill="white"/>
</svg>
