<svg width="22" height="22" viewBox="0 0 22 22" fill="none" xmlns="http://www.w3.org/2000/svg">
<path d="M11.1965 5C9.8183 5 8.49655 5.5463 7.52202 6.51872C6.54748 7.49114 6 8.81003 6 10.1852C6.00001 11.1326 6.26306 12.0614 6.75998 12.8686L6.8899 13.0889L6.37672 15.0334L8.3254 14.5149L8.54627 14.6445C9.23362 15.0582 10.0077 15.3075 10.8077 15.3726C11.6078 15.4378 12.4121 15.3171 13.1576 15.02C13.9031 14.723 14.5694 14.2576 15.1045 13.6605C15.6395 13.0633 16.0286 12.3506 16.2412 11.5783C16.4539 10.8059 16.4843 9.9949 16.3302 9.20883C16.176 8.42276 15.8415 7.68301 15.3528 7.04759C14.864 6.41218 14.2344 5.89839 13.5133 5.5465C12.7922 5.19462 11.9992 5.01422 11.1965 5.01944V5ZM14.2429 12.1297C14.1347 12.3555 13.9727 12.5515 13.7712 12.7006C13.5697 12.8497 13.3347 12.9474 13.0867 12.9852C12.6434 13.04 12.1935 12.9705 11.7876 12.7843C11.403 12.654 11.0346 12.48 10.6898 12.2658C10.0022 11.8407 9.40434 11.2859 8.92953 10.6325C8.77977 10.4364 8.64306 10.2307 8.5203 10.0167C8.34842 9.73857 8.21716 9.43738 8.13054 9.12225C8.09902 8.99065 8.08375 8.8557 8.08507 8.7204C8.07324 8.47616 8.11743 8.23244 8.21424 8.00781C8.31104 7.78317 8.45793 7.58354 8.64372 7.4241C8.74945 7.32864 8.88117 7.26661 9.02222 7.24585C9.16328 7.22508 9.30732 7.24652 9.43617 7.30743C9.68804 7.51815 9.8731 7.79738 9.96882 8.11114C10.0915 8.33045 10.15 8.57973 10.1377 8.8306C10.0674 9.06296 9.93756 9.27296 9.76095 9.43984C9.71247 9.48345 9.68221 9.54368 9.67619 9.60853C9.67017 9.67338 9.68885 9.73811 9.72848 9.78985C10.2005 10.5951 10.9304 11.2183 11.8006 11.5593C11.8489 11.5857 11.9052 11.5936 11.9589 11.5817C12.0127 11.5698 12.0603 11.5388 12.0929 11.4945C12.2488 11.3065 12.4047 10.9306 12.6385 10.8463C12.797 10.8107 12.9615 10.8108 13.12 10.8467C13.2784 10.8826 13.4269 10.9533 13.5544 11.0538C13.8012 11.2028 14.204 11.3778 14.2754 11.7019C14.3082 11.8467 14.2969 11.9979 14.2429 12.1362V12.1297Z" fill="white"/>
<path d="M10.7762 1.95598e-06C8.64491 1.95598e-06 6.56143 0.630643 4.78928 1.81218C3.01714 2.99372 1.63594 4.6731 0.820309 6.63793C0.00468142 8.60275 -0.208741 10.7648 0.207063 12.8506C0.622866 14.9365 1.64922 16.8525 3.1563 18.3563C4.66338 19.8601 6.58351 20.8842 8.67389 21.2991C10.7643 21.714 12.931 21.5011 14.9001 20.6872C16.8692 19.8734 18.5522 18.4951 19.7364 16.7268C20.9205 14.9585 21.5525 12.8796 21.5525 10.7529C21.5534 9.34054 21.2752 7.9419 20.7339 6.63692C20.1927 5.33194 19.3989 4.14621 18.3981 3.14754C17.3973 2.14888 16.209 1.35686 14.9012 0.81678C13.5933 0.2767 12.1916 -0.000850126 10.7762 1.95598e-06ZM11.0036 16.7353C9.94175 16.7344 8.89691 16.4693 7.96363 15.964L4.47549 16.8909L5.40435 13.4362C4.72622 12.2103 4.47078 10.796 4.6774 9.41098C4.88402 8.026 5.54125 6.74722 6.54783 5.77157C7.5544 4.79592 8.85451 4.17754 10.2479 4.01166C11.6413 3.84578 13.0507 4.14161 14.2591 4.85358C15.4674 5.56555 16.4077 6.65416 16.9351 7.95177C17.4624 9.24938 17.5476 10.684 17.1776 12.0347C16.8075 13.3853 16.0027 14.5772 14.887 15.4266C13.7714 16.276 12.4069 16.7358 11.0036 16.7353Z" fill="white"/>
</svg>
