<svg width="39" height="37" viewBox="0 0 39 37" fill="none" xmlns="http://www.w3.org/2000/svg">
<path d="M19.3632 3.28309e-06C15.5353 -0.00215051 11.7928 1.05544 8.60888 3.03901C5.42501 5.02257 2.94286 7.84297 1.4764 11.1435C0.00994072 14.444 -0.374941 18.0764 0.370423 21.5811C1.11579 25.0859 2.9579 28.3055 5.6638 30.8329C8.36969 33.3602 11.8178 35.0818 15.572 35.7796C19.3261 36.4775 23.2176 36.1204 26.7543 34.7535C30.291 33.3867 33.314 31.0714 35.4409 28.1006C37.5678 25.1298 38.703 21.6369 38.703 18.0638C38.703 13.2748 36.6658 8.68189 33.0392 5.29459C29.4126 1.9073 24.4935 0.00288991 19.3632 3.28309e-06ZM30.4445 15.7881H29.8146C28.6919 15.789 27.5867 15.5286 26.5989 15.0305C25.6112 14.5324 24.772 13.8123 24.1573 12.9354V22.6586C24.1596 24.083 23.7091 25.476 22.8628 26.6613C22.0164 27.8465 20.8124 28.7707 19.403 29.3168C17.9937 29.8629 16.4425 30.0063 14.9457 29.7289C13.449 29.4516 12.0741 28.7659 10.995 27.7587C9.91605 26.7515 9.1815 25.4681 8.88437 24.0709C8.58724 22.6738 8.7409 21.2258 9.32592 19.9102C9.91094 18.5947 10.901 17.4708 12.1707 16.6807C13.4405 15.8907 14.9328 15.4702 16.4587 15.4723H16.9253V19.0546C16.77 19.0439 16.614 19.0439 16.4587 19.0546C15.4517 19.1058 14.5039 19.5153 13.8105 20.1988C13.117 20.8824 12.7305 21.788 12.7305 22.7294C12.7305 23.6708 13.117 24.5765 13.8105 25.26C14.5039 25.9435 15.4517 26.353 16.4587 26.4042C17.5123 26.4191 18.53 26.0476 19.2933 25.3697C20.0567 24.6917 20.5048 23.7614 20.5413 22.7784V6.24992H24.1807C24.3459 7.72251 25.0602 9.0941 26.1987 10.125C27.3373 11.156 28.8277 11.7807 30.4095 11.8901L30.4445 15.7881Z" fill="white"/>
</svg>
