<svg width="160" height="39" viewBox="0 0 160 39" fill="none" xmlns="http://www.w3.org/2000/svg">
<rect x="1" y="1" width="158" height="37" rx="18.5" fill="#C7D9ED" stroke="#1CB7B4" stroke-width="2"/>
<path d="M20.4205 27L14.3805 13H17.8805L23.1605 25.4H21.1005L26.4605 13H29.6805L23.6205 27H20.4205ZM28.5407 27L34.7807 13H37.9807L44.2407 27H40.8407L35.7207 14.64H37.0007L31.8607 27H28.5407ZM31.6607 24L32.5207 21.54H39.7207L40.6007 24H31.6607ZM35.7607 11.86L32.1407 8.98H35.5007L38.2007 11.86H35.7607ZM52.2979 27.24C51.1912 27.24 50.1646 27.06 49.2179 26.7C48.2846 26.34 47.4712 25.8333 46.7779 25.18C46.0979 24.5267 45.5646 23.76 45.1779 22.88C44.8046 22 44.6179 21.04 44.6179 20C44.6179 18.96 44.8046 18 45.1779 17.12C45.5646 16.24 46.1046 15.4733 46.7979 14.82C47.4912 14.1667 48.3046 13.66 49.2379 13.3C50.1712 12.94 51.1846 12.76 52.2779 12.76C53.3846 12.76 54.3979 12.94 55.3179 13.3C56.2512 13.66 57.0579 14.1667 57.7379 14.82C58.4312 15.4733 58.9712 16.24 59.3579 17.12C59.7446 17.9867 59.9379 18.9467 59.9379 20C59.9379 21.04 59.7446 22.0067 59.3579 22.9C58.9712 23.78 58.4312 24.5467 57.7379 25.2C57.0579 25.84 56.2512 26.34 55.3179 26.7C54.3979 27.06 53.3912 27.24 52.2979 27.24ZM52.2779 24.48C52.9046 24.48 53.4779 24.3733 53.9979 24.16C54.5312 23.9467 54.9979 23.64 55.3979 23.24C55.7979 22.84 56.1046 22.3667 56.3179 21.82C56.5446 21.2733 56.6579 20.6667 56.6579 20C56.6579 19.3333 56.5446 18.7267 56.3179 18.18C56.1046 17.6333 55.7979 17.16 55.3979 16.76C55.0112 16.36 54.5512 16.0533 54.0179 15.84C53.4846 15.6267 52.9046 15.52 52.2779 15.52C51.6512 15.52 51.0712 15.6267 50.5379 15.84C50.0179 16.0533 49.5579 16.36 49.1579 16.76C48.7579 17.16 48.4446 17.6333 48.2179 18.18C48.0046 18.7267 47.8979 19.3333 47.8979 20C47.8979 20.6533 48.0046 21.26 48.2179 21.82C48.4446 22.3667 48.7512 22.84 49.1379 23.24C49.5379 23.64 50.0046 23.9467 50.5379 24.16C51.0712 24.3733 51.6512 24.48 52.2779 24.48ZM68.037 27V13H74.097C75.3503 13 76.4303 13.2067 77.337 13.62C78.2436 14.02 78.9436 14.6 79.437 15.36C79.9303 16.12 80.177 17.0267 80.177 18.08C80.177 19.12 79.9303 20.02 79.437 20.78C78.9436 21.54 78.2436 22.1267 77.337 22.54C76.4303 22.94 75.3503 23.14 74.097 23.14H69.837L71.277 21.68V27H68.037ZM71.277 22.04L69.837 20.5H73.917C74.917 20.5 75.6636 20.2867 76.157 19.86C76.6503 19.4333 76.897 18.84 76.897 18.08C76.897 17.3067 76.6503 16.7067 76.157 16.28C75.6636 15.8533 74.917 15.64 73.917 15.64H69.837L71.277 14.1V22.04ZM92.0901 13H95.3301V27H92.0901V13ZM85.7301 27H82.4901V13H85.7301V27ZM92.3301 21.26H85.4901V18.52H92.3301V21.26ZM105.442 27.24C104.336 27.24 103.309 27.06 102.362 26.7C101.429 26.34 100.616 25.8333 99.9224 25.18C99.2424 24.5267 98.7091 23.76 98.3224 22.88C97.9491 22 97.7624 21.04 97.7624 20C97.7624 18.96 97.9491 18 98.3224 17.12C98.7091 16.24 99.2491 15.4733 99.9424 14.82C100.636 14.1667 101.449 13.66 102.382 13.3C103.316 12.94 104.329 12.76 105.422 12.76C106.529 12.76 107.542 12.94 108.462 13.3C109.396 13.66 110.202 14.1667 110.882 14.82C111.576 15.4733 112.116 16.24 112.502 17.12C112.889 17.9867 113.082 18.9467 113.082 20C113.082 21.04 112.889 22.0067 112.502 22.9C112.116 23.78 111.576 24.5467 110.882 25.2C110.202 25.84 109.396 26.34 108.462 26.7C107.542 27.06 106.536 27.24 105.442 27.24ZM105.422 24.48C106.049 24.48 106.622 24.3733 107.142 24.16C107.676 23.9467 108.142 23.64 108.542 23.24C108.942 22.84 109.249 22.3667 109.462 21.82C109.689 21.2733 109.802 20.6667 109.802 20C109.802 19.3333 109.689 18.7267 109.462 18.18C109.249 17.6333 108.942 17.16 108.542 16.76C108.156 16.36 107.696 16.0533 107.162 15.84C106.629 15.6267 106.049 15.52 105.422 15.52C104.796 15.52 104.216 15.6267 103.682 15.84C103.162 16.0533 102.702 16.36 102.302 16.76C101.902 17.16 101.589 17.6333 101.362 18.18C101.149 18.7267 101.042 19.3333 101.042 20C101.042 20.6533 101.149 21.26 101.362 21.82C101.589 22.3667 101.896 22.84 102.282 23.24C102.682 23.64 103.149 23.9467 103.682 24.16C104.216 24.3733 104.796 24.48 105.422 24.48ZM104.802 11.86L101.182 8.98H104.542L107.242 11.86H104.802ZM115.517 27V13H118.197L126.457 23.08H125.157V13H128.357V27H125.697L117.417 16.92H118.717V27H115.517ZM138.43 27.24C137.323 27.24 136.303 27.0667 135.37 26.72C134.45 26.36 133.643 25.8533 132.95 25.2C132.27 24.5467 131.736 23.78 131.35 22.9C130.976 22.02 130.79 21.0533 130.79 20C130.79 18.9467 130.976 17.98 131.35 17.1C131.736 16.22 132.276 15.4533 132.97 14.8C133.663 14.1467 134.476 13.6467 135.41 13.3C136.343 12.94 137.37 12.76 138.49 12.76C139.73 12.76 140.843 12.9667 141.83 13.38C142.83 13.7933 143.67 14.3933 144.35 15.18L142.27 17.1C141.763 16.5667 141.21 16.1733 140.61 15.92C140.01 15.6533 139.356 15.52 138.65 15.52C137.97 15.52 137.35 15.6267 136.79 15.84C136.23 16.0533 135.743 16.36 135.33 16.76C134.93 17.16 134.616 17.6333 134.39 18.18C134.176 18.7267 134.07 19.3333 134.07 20C134.07 20.6533 134.176 21.2533 134.39 21.8C134.616 22.3467 134.93 22.8267 135.33 23.24C135.743 23.64 136.223 23.9467 136.77 24.16C137.33 24.3733 137.943 24.48 138.61 24.48C139.25 24.48 139.87 24.38 140.47 24.18C141.083 23.9667 141.676 23.6133 142.25 23.12L144.09 25.46C143.33 26.0333 142.443 26.4733 141.43 26.78C140.43 27.0867 139.43 27.24 138.43 27.24ZM141.13 25.04V19.78H144.09V25.46L141.13 25.04Z" fill="#182D58"/>
</svg>
