<svg width="810" height="444" viewBox="0 0 810 444" fill="none" xmlns="http://www.w3.org/2000/svg">
<path d="M0 25C0 11.1929 11.1929 0 25 0H778C791.807 0 803 11.1929 803 25V419C803 432.807 791.807 444 778 444H25C11.1929 444 0 432.807 0 419V25Z" fill="#F6FBFF"/>
<path d="M110.851 136.462C109.025 136.462 107.331 136.176 105.769 135.604C104.229 135.01 102.887 134.174 101.743 133.096C100.621 132.018 99.7414 130.753 99.1034 129.301C98.4654 127.827 98.1464 126.21 98.1464 124.45C98.1464 122.69 98.4654 121.084 99.1034 119.632C99.7414 118.158 100.621 116.882 101.743 115.804C102.887 114.726 104.229 113.901 105.769 113.329C107.331 112.735 109.025 112.438 110.851 112.438C112.985 112.438 114.888 112.812 116.56 113.56C118.254 114.308 119.662 115.386 120.784 116.794L116.626 120.556C115.878 119.676 115.053 119.005 114.151 118.543C113.271 118.081 112.281 117.85 111.181 117.85C110.235 117.85 109.366 118.004 108.574 118.312C107.782 118.62 107.1 119.071 106.528 119.665C105.978 120.237 105.538 120.93 105.208 121.744C104.9 122.558 104.746 123.46 104.746 124.45C104.746 125.44 104.9 126.342 105.208 127.156C105.538 127.97 105.978 128.674 106.528 129.268C107.1 129.84 107.782 130.28 108.574 130.588C109.366 130.896 110.235 131.05 111.181 131.05C112.281 131.05 113.271 130.819 114.151 130.357C115.053 129.895 115.878 129.224 116.626 128.344L120.784 132.106C119.662 133.492 118.254 134.57 116.56 135.34C114.888 136.088 112.985 136.462 110.851 136.462ZM139.142 112.9H145.676V136H139.142V112.9ZM130.232 136H123.698V112.9H130.232V136ZM139.604 126.991H129.77V121.579H139.604V126.991ZM147.513 136L157.71 112.9H164.145L174.375 136H167.577L159.591 116.101H162.165L154.179 136H147.513ZM153.09 131.512L154.773 126.694H166.059L167.742 131.512H153.09ZM159.69 111.019L153.486 106.003H159.756L164.178 111.019H159.69ZM187.554 136.462C185.706 136.462 184.001 136.165 182.439 135.571C180.877 134.977 179.513 134.141 178.347 133.063C177.203 131.963 176.312 130.687 175.674 129.235C175.036 127.783 174.717 126.188 174.717 124.45C174.717 122.712 175.036 121.117 175.674 119.665C176.312 118.213 177.203 116.948 178.347 115.87C179.513 114.77 180.877 113.923 182.439 113.329C184.001 112.735 185.706 112.438 187.554 112.438C189.424 112.438 191.129 112.735 192.669 113.329C194.231 113.923 195.584 114.77 196.728 115.87C197.872 116.948 198.763 118.213 199.401 119.665C200.061 121.117 200.391 122.712 200.391 124.45C200.391 126.188 200.061 127.794 199.401 129.268C198.763 130.72 197.872 131.985 196.728 133.063C195.584 134.141 194.231 134.977 192.669 135.571C191.129 136.165 189.424 136.462 187.554 136.462ZM187.554 131.05C188.434 131.05 189.248 130.896 189.996 130.588C190.766 130.28 191.426 129.84 191.976 129.268C192.548 128.674 192.988 127.97 193.296 127.156C193.626 126.342 193.791 125.44 193.791 124.45C193.791 123.438 193.626 122.536 193.296 121.744C192.988 120.93 192.548 120.237 191.976 119.665C191.426 119.071 190.766 118.62 189.996 118.312C189.248 118.004 188.434 117.85 187.554 117.85C186.674 117.85 185.849 118.004 185.079 118.312C184.331 118.62 183.671 119.071 183.099 119.665C182.549 120.237 182.109 120.93 181.779 121.744C181.471 122.536 181.317 123.438 181.317 124.45C181.317 125.44 181.471 126.342 181.779 127.156C182.109 127.97 182.549 128.674 183.099 129.268C183.671 129.84 184.331 130.28 185.079 130.588C185.849 130.896 186.674 131.05 187.554 131.05ZM213.416 136V112.9H218.795L228.365 128.608H225.527L234.833 112.9H240.212L240.278 136H234.272L234.206 122.041H235.229L228.266 133.723H225.362L218.201 122.041H219.455V136H213.416ZM255.561 136.462C252.151 136.462 249.489 135.527 247.575 133.657C245.661 131.787 244.704 129.136 244.704 125.704V112.9H251.238V125.506C251.238 127.486 251.623 128.905 252.393 129.763C253.185 130.621 254.263 131.05 255.627 131.05C256.991 131.05 258.058 130.621 258.828 129.763C259.598 128.905 259.983 127.486 259.983 125.506V112.9H266.418V125.704C266.418 129.136 265.461 131.787 263.547 133.657C261.633 135.527 258.971 136.462 255.561 136.462ZM263.019 116.86V112.9H264.141C264.669 112.9 265.109 112.713 265.461 112.339C265.835 111.943 266.022 111.437 266.022 110.821C266.022 110.447 265.956 110.095 265.824 109.765C265.714 109.413 265.56 109.127 265.362 108.907L268.992 107.62C269.344 108.082 269.619 108.599 269.817 109.171C270.037 109.743 270.147 110.381 270.147 111.085C270.147 112.911 269.597 114.33 268.497 115.342C267.397 116.354 265.868 116.86 263.91 116.86H263.019ZM254.373 111.019L248.169 106.003H254.439L258.861 111.019H254.373ZM271.36 136V112.9H276.739L289.477 128.278H286.936V112.9H293.338V136H287.959L275.221 120.622H277.762V136H271.36ZM309.497 136.462C307.671 136.462 305.977 136.176 304.415 135.604C302.853 135.01 301.5 134.174 300.356 133.096C299.234 132.018 298.354 130.753 297.716 129.301C297.078 127.827 296.759 126.21 296.759 124.45C296.759 122.69 297.078 121.084 297.716 119.632C298.354 118.158 299.245 116.882 300.389 115.804C301.533 114.726 302.886 113.901 304.448 113.329C306.032 112.735 307.759 112.438 309.629 112.438C311.807 112.438 313.754 112.801 315.47 113.527C317.186 114.253 318.605 115.298 319.727 116.662L315.569 120.424C314.777 119.566 313.919 118.928 312.995 118.51C312.093 118.07 311.081 117.85 309.959 117.85C308.969 117.85 308.067 118.004 307.253 118.312C306.439 118.62 305.746 119.071 305.174 119.665C304.602 120.237 304.151 120.93 303.821 121.744C303.513 122.536 303.359 123.438 303.359 124.45C303.359 125.418 303.513 126.309 303.821 127.123C304.151 127.937 304.602 128.641 305.174 129.235C305.746 129.807 306.428 130.258 307.22 130.588C308.034 130.896 308.925 131.05 309.893 131.05C310.861 131.05 311.807 130.896 312.731 130.588C313.655 130.258 314.59 129.708 315.536 128.938L319.199 133.525C317.879 134.471 316.35 135.197 314.612 135.703C312.874 136.209 311.169 136.462 309.497 136.462ZM313.424 132.667V123.955H319.199V133.525L313.424 132.667ZM332.945 136V112.9H344.759C347.795 112.9 350.061 113.461 351.557 114.583C353.053 115.683 353.801 117.135 353.801 118.939C353.801 120.127 353.482 121.172 352.844 122.074C352.228 122.954 351.348 123.658 350.204 124.186C349.082 124.692 347.74 124.945 346.178 124.945L346.838 123.361C348.466 123.361 349.885 123.614 351.095 124.12C352.305 124.604 353.24 125.319 353.9 126.265C354.582 127.189 354.923 128.322 354.923 129.664C354.923 131.666 354.109 133.228 352.481 134.35C350.875 135.45 348.521 136 345.419 136H332.945ZM339.413 131.281H344.891C346.013 131.281 346.86 131.094 347.432 130.72C348.026 130.324 348.323 129.73 348.323 128.938C348.323 128.146 348.026 127.563 347.432 127.189C346.86 126.793 346.013 126.595 344.891 126.595H338.951V122.074H343.901C345.001 122.074 345.826 121.887 346.376 121.513C346.926 121.139 347.201 120.578 347.201 119.83C347.201 119.082 346.926 118.532 346.376 118.18C345.826 117.806 345.001 117.619 343.901 117.619H339.413V131.281ZM355.535 136L365.732 112.9H372.167L382.397 136H375.599L367.613 116.101H370.187L362.201 136H355.535ZM361.112 131.512L362.795 126.694H374.081L375.764 131.512H361.112ZM368.966 143.194C368.24 143.194 367.624 142.963 367.118 142.501C366.612 142.039 366.359 141.423 366.359 140.653C366.359 139.883 366.612 139.256 367.118 138.772C367.624 138.288 368.24 138.046 368.966 138.046C369.692 138.046 370.308 138.288 370.814 138.772C371.32 139.256 371.573 139.883 371.573 140.653C371.573 141.423 371.32 142.039 370.814 142.501C370.308 142.963 369.692 143.194 368.966 143.194ZM384.249 136V112.9H389.628L402.366 128.278H399.825V112.9H406.227V136H400.848L388.11 120.622H390.651V136H384.249ZM421.001 136V112.9H431.924C434.476 112.9 436.72 113.373 438.656 114.319C440.592 115.265 442.099 116.596 443.177 118.312C444.277 120.028 444.827 122.074 444.827 124.45C444.827 126.804 444.277 128.85 443.177 130.588C442.099 132.304 440.592 133.635 438.656 134.581C436.72 135.527 434.476 136 431.924 136H421.001ZM427.535 130.786H431.66C432.98 130.786 434.124 130.544 435.092 130.06C436.082 129.554 436.852 128.828 437.402 127.882C437.952 126.914 438.227 125.77 438.227 124.45C438.227 123.108 437.952 121.964 437.402 121.018C436.852 120.072 436.082 119.357 435.092 118.873C434.124 118.367 432.98 118.114 431.66 118.114H427.535V130.786ZM418.031 126.298V122.272H432.881V126.298H418.031ZM454.257 121.843H464.982V126.727H454.257V121.843ZM454.719 130.951H466.797V136H448.251V112.9H466.368V117.949H454.719V130.951ZM450.33 111.019L454.653 106.993H459.999L464.322 111.019H460.131L455.61 107.884H459.042L454.521 111.019H450.33ZM461.682 107.719L465.18 103.594H471.318L466.005 107.719H461.682ZM470.423 136V112.9H475.802L488.54 128.278H485.999V112.9H492.401V136H487.022L474.284 120.622H476.825V136H470.423ZM513.709 136L503.842 112.9H510.904L519.22 132.898H515.062L523.576 112.9H530.044L520.144 136H513.709ZM542.755 136.462C540.907 136.462 539.202 136.165 537.64 135.571C536.078 134.977 534.714 134.141 533.548 133.063C532.404 131.963 531.513 130.687 530.875 129.235C530.237 127.761 529.918 126.166 529.918 124.45C529.918 122.712 530.237 121.117 530.875 119.665C531.513 118.191 532.415 116.915 533.581 115.837C534.747 114.759 536.133 113.923 537.739 113.329C539.345 112.735 541.105 112.438 543.019 112.438C544.229 112.438 545.329 112.515 546.319 112.669C547.309 112.801 548.178 112.867 548.926 112.867C549.674 112.867 550.268 112.702 550.708 112.372C551.17 112.02 551.401 111.503 551.401 110.821C551.401 110.447 551.335 110.095 551.203 109.765C551.071 109.435 550.917 109.149 550.741 108.907L554.338 107.62C554.69 108.082 554.965 108.599 555.163 109.171C555.383 109.743 555.493 110.381 555.493 111.085C555.493 112.867 554.877 114.22 553.645 115.144C552.413 116.068 550.763 116.53 548.695 116.53C547.727 116.53 546.803 116.475 545.923 116.365C545.043 116.255 544.196 116.145 543.382 116.035L550.774 115.078C551.742 115.738 552.578 116.541 553.282 117.487C554.008 118.433 554.569 119.489 554.965 120.655C555.383 121.821 555.592 123.086 555.592 124.45C555.592 126.188 555.262 127.794 554.602 129.268C553.964 130.72 553.073 131.985 551.929 133.063C550.785 134.141 549.432 134.977 547.87 135.571C546.33 136.165 544.625 136.462 542.755 136.462ZM542.755 131.05C543.635 131.05 544.449 130.896 545.197 130.588C545.967 130.28 546.627 129.84 547.177 129.268C547.749 128.674 548.189 127.97 548.497 127.156C548.827 126.342 548.992 125.44 548.992 124.45C548.992 123.46 548.827 122.558 548.497 121.744C548.189 120.93 547.749 120.237 547.177 119.665C546.627 119.071 545.967 118.62 545.197 118.312C544.449 118.004 543.635 117.85 542.755 117.85C541.875 117.85 541.05 118.004 540.28 118.312C539.532 118.62 538.872 119.071 538.3 119.665C537.75 120.237 537.31 120.93 536.98 121.744C536.672 122.536 536.518 123.438 536.518 124.45C536.518 125.44 536.672 126.342 536.98 127.156C537.31 127.97 537.75 128.674 538.3 129.268C538.872 129.84 539.532 130.28 540.28 130.588C541.05 130.896 541.875 131.05 542.755 131.05ZM539.521 111.019L543.943 106.003H550.213L544.009 111.019H539.521ZM559.014 136V112.9H565.548V136H559.014ZM579.8 136V112.9H590.36C592.472 112.9 594.287 113.241 595.805 113.923C597.345 114.605 598.533 115.595 599.369 116.893C600.205 118.169 600.623 119.687 600.623 121.447C600.623 123.185 600.205 124.692 599.369 125.968C598.533 127.244 597.345 128.234 595.805 128.938C594.287 129.62 592.472 129.961 590.36 129.961H583.43L586.334 127.123V136H579.8ZM586.334 127.816L583.43 124.813H589.964C591.328 124.813 592.34 124.516 593 123.922C593.682 123.328 594.023 122.503 594.023 121.447C594.023 120.369 593.682 119.533 593 118.939C592.34 118.345 591.328 118.048 589.964 118.048H583.43L586.334 115.045V127.816ZM619.253 112.9H625.787V136H619.253V112.9ZM610.343 136H603.809V112.9H610.343V136ZM619.715 126.991H609.881V121.579H619.715V126.991ZM642.045 136.462C640.197 136.462 638.492 136.165 636.93 135.571C635.368 134.977 634.004 134.141 632.838 133.063C631.694 131.963 630.803 130.687 630.165 129.235C629.527 127.783 629.208 126.188 629.208 124.45C629.208 122.712 629.527 121.117 630.165 119.665C630.803 118.213 631.694 116.948 632.838 115.87C634.004 114.77 635.368 113.923 636.93 113.329C638.492 112.735 640.197 112.438 642.045 112.438C643.915 112.438 645.62 112.735 647.16 113.329C648.722 113.923 650.075 114.77 651.219 115.87C652.363 116.948 653.254 118.213 653.892 119.665C654.552 121.117 654.882 122.712 654.882 124.45C654.882 126.188 654.552 127.794 653.892 129.268C653.254 130.72 652.363 131.985 651.219 133.063C650.075 134.141 648.722 134.977 647.16 135.571C645.62 136.165 643.915 136.462 642.045 136.462ZM642.045 131.05C642.925 131.05 643.739 130.896 644.487 130.588C645.257 130.28 645.917 129.84 646.467 129.268C647.039 128.674 647.479 127.97 647.787 127.156C648.117 126.342 648.282 125.44 648.282 124.45C648.282 123.438 648.117 122.536 647.787 121.744C647.479 120.93 647.039 120.237 646.467 119.665C645.917 119.071 645.257 118.62 644.487 118.312C643.739 118.004 642.925 117.85 642.045 117.85C641.165 117.85 640.34 118.004 639.57 118.312C638.822 118.62 638.162 119.071 637.59 119.665C637.04 120.237 636.6 120.93 636.27 121.744C635.962 122.536 635.808 123.438 635.808 124.45C635.808 125.44 635.962 126.342 636.27 127.156C636.6 127.97 637.04 128.674 637.59 129.268C638.162 129.84 638.822 130.28 639.57 130.588C640.34 130.896 641.165 131.05 642.045 131.05ZM640.791 111.019L634.587 106.003H640.857L645.279 111.019H640.791ZM658.304 136V112.9H663.683L676.421 128.278H673.88V112.9H680.282V136H674.903L662.165 120.622H664.706V136H658.304ZM696.441 136.462C694.615 136.462 692.921 136.176 691.359 135.604C689.797 135.01 688.444 134.174 687.3 133.096C686.178 132.018 685.298 130.753 684.66 129.301C684.022 127.827 683.703 126.21 683.703 124.45C683.703 122.69 684.022 121.084 684.66 119.632C685.298 118.158 686.189 116.882 687.333 115.804C688.477 114.726 689.83 113.901 691.392 113.329C692.976 112.735 694.703 112.438 696.573 112.438C698.751 112.438 700.698 112.801 702.414 113.527C704.13 114.253 705.549 115.298 706.671 116.662L702.513 120.424C701.721 119.566 700.863 118.928 699.939 118.51C699.037 118.07 698.025 117.85 696.903 117.85C695.913 117.85 695.011 118.004 694.197 118.312C693.383 118.62 692.69 119.071 692.118 119.665C691.546 120.237 691.095 120.93 690.765 121.744C690.457 122.536 690.303 123.438 690.303 124.45C690.303 125.418 690.457 126.309 690.765 127.123C691.095 127.937 691.546 128.641 692.118 129.235C692.69 129.807 693.372 130.258 694.164 130.588C694.978 130.896 695.869 131.05 696.837 131.05C697.805 131.05 698.751 130.896 699.675 130.588C700.599 130.258 701.534 129.708 702.48 128.938L706.143 133.525C704.823 134.471 703.294 135.197 701.556 135.703C699.818 136.209 698.113 136.462 696.441 136.462ZM700.368 132.667V123.955H706.143V133.525L700.368 132.667ZM163.645 177V159.081H156.55V153.9H177.241V159.081H170.179V177H163.645ZM179.675 177V153.9H190.235C192.347 153.9 194.162 154.241 195.68 154.923C197.22 155.605 198.408 156.595 199.244 157.893C200.08 159.169 200.498 160.687 200.498 162.447C200.498 164.185 200.08 165.692 199.244 166.968C198.408 168.222 197.22 169.19 195.68 169.872C194.162 170.532 192.347 170.862 190.235 170.862H183.305L186.209 168.123V177H179.675ZM193.964 177L188.222 168.585H195.185L200.96 177H193.964ZM186.209 168.816L183.305 165.813H189.839C191.203 165.813 192.215 165.516 192.875 164.922C193.557 164.328 193.898 163.503 193.898 162.447C193.898 161.369 193.557 160.533 192.875 159.939C192.215 159.345 191.203 159.048 189.839 159.048H183.305L186.209 156.045V168.816ZM214.762 177.462C211.352 177.462 208.69 176.527 206.776 174.657C204.862 172.787 203.905 170.136 203.905 166.704V153.9H210.439V166.506C210.439 168.486 210.824 169.905 211.594 170.763C212.386 171.621 213.464 172.05 214.828 172.05C216.192 172.05 217.259 171.621 218.029 170.763C218.799 169.905 219.184 168.486 219.184 166.506V153.9H225.619V166.704C225.619 170.136 224.662 172.787 222.748 174.657C220.834 176.527 218.172 177.462 214.762 177.462ZM222.22 157.86V153.9H223.342C223.87 153.9 224.31 153.713 224.662 153.339C225.036 152.943 225.223 152.437 225.223 151.821C225.223 151.447 225.157 151.095 225.025 150.765C224.915 150.413 224.761 150.127 224.563 149.907L228.193 148.62C228.545 149.082 228.82 149.599 229.018 150.171C229.238 150.743 229.348 151.381 229.348 152.085C229.348 153.911 228.798 155.33 227.698 156.342C226.598 157.354 225.069 157.86 223.111 157.86H222.22ZM230.561 177V153.9H235.94L248.678 169.278H246.137V153.9H252.539V177H247.16L234.422 161.622H236.963V177H230.561ZM268.698 177.462C266.872 177.462 265.178 177.176 263.616 176.604C262.054 176.01 260.701 175.174 259.557 174.096C258.435 173.018 257.555 171.753 256.917 170.301C256.279 168.827 255.96 167.21 255.96 165.45C255.96 163.69 256.279 162.084 256.917 160.632C257.555 159.158 258.446 157.882 259.59 156.804C260.734 155.726 262.087 154.901 263.649 154.329C265.233 153.735 266.96 153.438 268.83 153.438C271.008 153.438 272.955 153.801 274.671 154.527C276.387 155.253 277.806 156.298 278.928 157.662L274.77 161.424C273.978 160.566 273.12 159.928 272.196 159.51C271.294 159.07 270.282 158.85 269.16 158.85C268.17 158.85 267.268 159.004 266.454 159.312C265.64 159.62 264.947 160.071 264.375 160.665C263.803 161.237 263.352 161.93 263.022 162.744C262.714 163.536 262.56 164.438 262.56 165.45C262.56 166.418 262.714 167.309 263.022 168.123C263.352 168.937 263.803 169.641 264.375 170.235C264.947 170.807 265.629 171.258 266.421 171.588C267.235 171.896 268.126 172.05 269.094 172.05C270.062 172.05 271.008 171.896 271.932 171.588C272.856 171.258 273.791 170.708 274.737 169.938L278.4 174.525C277.08 175.471 275.551 176.197 273.813 176.703C272.075 177.209 270.37 177.462 268.698 177.462ZM272.625 173.667V164.955H278.4V174.525L272.625 173.667ZM292.146 177V153.9H303.96C306.996 153.9 309.262 154.461 310.758 155.583C312.254 156.683 313.002 158.135 313.002 159.939C313.002 161.127 312.683 162.172 312.045 163.074C311.429 163.954 310.549 164.658 309.405 165.186C308.283 165.692 306.941 165.945 305.379 165.945L306.039 164.361C307.667 164.361 309.086 164.614 310.296 165.12C311.506 165.604 312.441 166.319 313.101 167.265C313.783 168.189 314.124 169.322 314.124 170.664C314.124 172.666 313.31 174.228 311.682 175.35C310.076 176.45 307.722 177 304.62 177H292.146ZM298.614 172.281H304.092C305.214 172.281 306.061 172.094 306.633 171.72C307.227 171.324 307.524 170.73 307.524 169.938C307.524 169.146 307.227 168.563 306.633 168.189C306.061 167.793 305.214 167.595 304.092 167.595H298.152V163.074H303.102C304.202 163.074 305.027 162.887 305.577 162.513C306.127 162.139 306.402 161.578 306.402 160.83C306.402 160.082 306.127 159.532 305.577 159.18C305.027 158.806 304.202 158.619 303.102 158.619H298.614V172.281ZM314.736 177L324.933 153.9H331.368L341.598 177H334.8L326.814 157.101H329.388L321.402 177H314.736ZM320.313 172.512L321.996 167.694H333.282L334.965 172.512H320.313ZM326.913 152.019L320.709 147.003H326.979L331.401 152.019H326.913ZM347.841 177V167.232L349.359 171.159L339.03 153.9H345.927L353.385 166.407H349.392L356.883 153.9H363.219L352.923 171.159L354.375 167.232V177H347.841ZM386.002 177.462C384.176 177.462 382.482 177.176 380.92 176.604C379.38 176.01 378.038 175.174 376.894 174.096C375.772 173.018 374.892 171.753 374.254 170.301C373.616 168.827 373.297 167.21 373.297 165.45C373.297 163.69 373.616 162.084 374.254 160.632C374.892 159.158 375.772 157.882 376.894 156.804C378.038 155.726 379.38 154.901 380.92 154.329C382.482 153.735 384.176 153.438 386.002 153.438C388.136 153.438 390.039 153.812 391.711 154.56C393.405 155.308 394.813 156.386 395.935 157.794L391.777 161.556C391.029 160.676 390.204 160.005 389.302 159.543C388.422 159.081 387.432 158.85 386.332 158.85C385.386 158.85 384.517 159.004 383.725 159.312C382.933 159.62 382.251 160.071 381.679 160.665C381.129 161.237 380.689 161.93 380.359 162.744C380.051 163.558 379.897 164.46 379.897 165.45C379.897 166.44 380.051 167.342 380.359 168.156C380.689 168.97 381.129 169.674 381.679 170.268C382.251 170.84 382.933 171.28 383.725 171.588C384.517 171.896 385.386 172.05 386.332 172.05C387.432 172.05 388.422 171.819 389.302 171.357C390.204 170.895 391.029 170.224 391.777 169.344L395.935 173.106C394.813 174.492 393.405 175.57 391.711 176.34C390.039 177.088 388.136 177.462 386.002 177.462ZM409.282 177.462C405.872 177.462 403.21 176.527 401.296 174.657C399.382 172.787 398.425 170.136 398.425 166.704V153.9H404.959V166.506C404.959 168.486 405.344 169.905 406.114 170.763C406.906 171.621 407.984 172.05 409.348 172.05C410.712 172.05 411.779 171.621 412.549 170.763C413.319 169.905 413.704 168.486 413.704 166.506V153.9H420.139V166.704C420.139 170.136 419.182 172.787 417.268 174.657C415.354 176.527 412.692 177.462 409.282 177.462ZM410.536 152.349L408.622 150.435C409.26 150.127 409.689 149.819 409.909 149.511C410.129 149.181 410.239 148.851 410.239 148.521C410.239 148.103 410.096 147.784 409.81 147.564C409.546 147.322 409.194 147.201 408.754 147.201C408.116 147.201 407.478 147.421 406.84 147.861L405.553 145.419C406.081 145.023 406.686 144.726 407.368 144.528C408.05 144.308 408.743 144.198 409.447 144.198C410.723 144.198 411.757 144.55 412.549 145.254C413.363 145.958 413.77 146.871 413.77 147.993C413.77 149.005 413.495 149.863 412.945 150.567C412.395 151.271 411.592 151.865 410.536 152.349ZM421.309 177L431.506 153.9H437.941L448.171 177H441.373L433.387 157.101H435.961L427.975 177H421.309ZM426.886 172.512L428.569 167.694H439.855L441.538 172.512H426.886ZM471.144 177.462C469.318 177.462 467.624 177.176 466.062 176.604C464.522 176.01 463.18 175.174 462.036 174.096C460.914 173.018 460.034 171.753 459.396 170.301C458.758 168.827 458.439 167.21 458.439 165.45C458.439 163.69 458.758 162.084 459.396 160.632C460.034 159.158 460.914 157.882 462.036 156.804C463.18 155.726 464.522 154.901 466.062 154.329C467.624 153.735 469.318 153.438 471.144 153.438C473.278 153.438 475.181 153.812 476.853 154.56C478.547 155.308 479.955 156.386 481.077 157.794L476.919 161.556C476.171 160.676 475.346 160.005 474.444 159.543C473.564 159.081 472.574 158.85 471.474 158.85C470.528 158.85 469.659 159.004 468.867 159.312C468.075 159.62 467.393 160.071 466.821 160.665C466.271 161.237 465.831 161.93 465.501 162.744C465.193 163.558 465.039 164.46 465.039 165.45C465.039 166.44 465.193 167.342 465.501 168.156C465.831 168.97 466.271 169.674 466.821 170.268C467.393 170.84 468.075 171.28 468.867 171.588C469.659 171.896 470.528 172.05 471.474 172.05C472.574 172.05 473.564 171.819 474.444 171.357C475.346 170.895 476.171 170.224 476.919 169.344L481.077 173.106C479.955 174.492 478.547 175.57 476.853 176.34C475.181 177.088 473.278 177.462 471.144 177.462ZM483.991 177V153.9H494.551C496.663 153.9 498.478 154.241 499.996 154.923C501.536 155.605 502.724 156.595 503.56 157.893C504.396 159.169 504.814 160.687 504.814 162.447C504.814 164.185 504.396 165.692 503.56 166.968C502.724 168.222 501.536 169.19 499.996 169.872C498.478 170.532 496.663 170.862 494.551 170.862H487.621L490.525 168.123V177H483.991ZM498.28 177L492.538 168.585H499.501L505.276 177H498.28ZM490.525 168.816L487.621 165.813H494.155C495.519 165.813 496.531 165.516 497.191 164.922C497.873 164.328 498.214 163.503 498.214 162.447C498.214 161.369 497.873 160.533 497.191 159.939C496.531 159.345 495.519 159.048 494.155 159.048H487.621L490.525 156.045V168.816ZM514.424 162.843H525.149V167.727H514.424V162.843ZM514.886 171.951H526.964V177H508.418V153.9H526.535V158.949H514.886V171.951ZM527.818 177L538.015 153.9H544.45L554.68 177H547.882L539.896 157.101H542.47L534.484 177H527.818ZM533.395 172.512L535.078 167.694H546.364L548.047 172.512H533.395ZM560.29 177V159.081H553.195V153.9H573.886V159.081H566.824V177H560.29ZM587.647 177.462C585.799 177.462 584.094 177.165 582.532 176.571C580.97 175.977 579.606 175.141 578.44 174.063C577.296 172.963 576.405 171.687 575.767 170.235C575.129 168.783 574.81 167.188 574.81 165.45C574.81 163.712 575.129 162.117 575.767 160.665C576.405 159.213 577.296 157.948 578.44 156.87C579.606 155.77 580.97 154.923 582.532 154.329C584.094 153.735 585.799 153.438 587.647 153.438C589.517 153.438 591.222 153.735 592.762 154.329C594.324 154.923 595.677 155.77 596.821 156.87C597.965 157.948 598.856 159.213 599.494 160.665C600.154 162.117 600.484 163.712 600.484 165.45C600.484 167.188 600.154 168.794 599.494 170.268C598.856 171.72 597.965 172.985 596.821 174.063C595.677 175.141 594.324 175.977 592.762 176.571C591.222 177.165 589.517 177.462 587.647 177.462ZM587.647 172.05C588.527 172.05 589.341 171.896 590.089 171.588C590.859 171.28 591.519 170.84 592.069 170.268C592.641 169.674 593.081 168.97 593.389 168.156C593.719 167.342 593.884 166.44 593.884 165.45C593.884 164.438 593.719 163.536 593.389 162.744C593.081 161.93 592.641 161.237 592.069 160.665C591.519 160.071 590.859 159.62 590.089 159.312C589.341 159.004 588.527 158.85 587.647 158.85C586.767 158.85 585.942 159.004 585.172 159.312C584.424 159.62 583.764 160.071 583.192 160.665C582.642 161.237 582.202 161.93 581.872 162.744C581.564 163.536 581.41 164.438 581.41 165.45C581.41 166.44 581.564 167.342 581.872 168.156C582.202 168.97 582.642 169.674 583.192 170.268C583.764 170.84 584.424 171.28 585.172 171.588C585.942 171.896 586.767 172.05 587.647 172.05ZM603.906 177V153.9H614.466C616.578 153.9 618.393 154.241 619.911 154.923C621.451 155.605 622.639 156.595 623.475 157.893C624.311 159.169 624.729 160.687 624.729 162.447C624.729 164.185 624.311 165.692 623.475 166.968C622.639 168.222 621.451 169.19 619.911 169.872C618.393 170.532 616.578 170.862 614.466 170.862H607.536L610.44 168.123V177H603.906ZM618.195 177L612.453 168.585H619.416L625.191 177H618.195ZM610.44 168.816L607.536 165.813H614.07C615.434 165.813 616.446 165.516 617.106 164.922C617.788 164.328 618.129 163.503 618.129 162.447C618.129 161.369 617.788 160.533 617.106 159.939C616.446 159.345 615.434 159.048 614.07 159.048H607.536L610.44 156.045V168.816ZM633.852 177V167.232L635.37 171.159L625.041 153.9H631.938L639.396 166.407H635.403L642.894 153.9H649.23L638.934 171.159L640.386 167.232V177H633.852Z" fill="#2222C6"/>
<path d="M188.281 205.1H189.981V217H188.281V205.1ZM181.447 217H179.747V205.1H181.447V217ZM188.434 211.696H181.277V210.217H188.434V211.696ZM198.898 217V215.096L198.813 214.739V211.492C198.813 210.801 198.609 210.268 198.201 209.894C197.804 209.509 197.203 209.316 196.399 209.316C195.866 209.316 195.345 209.407 194.835 209.588C194.325 209.758 193.894 209.99 193.543 210.285L192.863 209.061C193.327 208.687 193.883 208.404 194.529 208.211C195.186 208.007 195.872 207.905 196.586 207.905C197.821 207.905 198.773 208.205 199.442 208.806C200.11 209.407 200.445 210.325 200.445 211.56V217H198.898ZM195.94 217.102C195.271 217.102 194.682 216.989 194.172 216.762C193.673 216.535 193.288 216.224 193.016 215.827C192.744 215.419 192.608 214.96 192.608 214.45C192.608 213.963 192.721 213.521 192.948 213.124C193.186 212.727 193.565 212.41 194.087 212.172C194.619 211.934 195.333 211.815 196.229 211.815H199.085V212.988H196.297C195.481 212.988 194.931 213.124 194.648 213.396C194.364 213.668 194.223 213.997 194.223 214.382C194.223 214.824 194.398 215.181 194.75 215.453C195.101 215.714 195.588 215.844 196.212 215.844C196.824 215.844 197.356 215.708 197.81 215.436C198.274 215.164 198.609 214.767 198.813 214.246L199.136 215.368C198.92 215.901 198.541 216.326 197.997 216.643C197.453 216.949 196.767 217.102 195.94 217.102ZM197.895 206.63C197.623 206.63 197.379 206.573 197.164 206.46C196.96 206.347 196.773 206.216 196.603 206.069C196.433 205.91 196.268 205.774 196.11 205.661C195.951 205.548 195.792 205.491 195.634 205.491C195.384 205.491 195.18 205.587 195.022 205.78C194.874 205.961 194.789 206.216 194.767 206.545H193.849C193.871 205.91 194.03 205.406 194.325 205.032C194.619 204.658 195.016 204.471 195.515 204.471C195.787 204.471 196.03 204.533 196.246 204.658C196.461 204.771 196.654 204.907 196.824 205.066C196.994 205.213 197.152 205.344 197.3 205.457C197.458 205.57 197.617 205.627 197.776 205.627C198.025 205.627 198.229 205.536 198.388 205.355C198.546 205.174 198.631 204.924 198.643 204.607H199.561C199.549 205.208 199.391 205.695 199.085 206.069C198.79 206.443 198.393 206.63 197.895 206.63ZM203.69 220.4C203.259 220.4 202.84 220.326 202.432 220.179C202.024 220.043 201.673 219.839 201.378 219.567L202.075 218.343C202.302 218.558 202.551 218.723 202.823 218.836C203.095 218.949 203.384 219.006 203.69 219.006C204.087 219.006 204.415 218.904 204.676 218.7C204.937 218.496 205.18 218.133 205.407 217.612L205.968 216.371L206.138 216.167L209.674 207.99H211.272L206.903 217.901C206.642 218.536 206.348 219.034 206.019 219.397C205.702 219.76 205.35 220.015 204.965 220.162C204.58 220.321 204.155 220.4 203.69 220.4ZM205.832 217.289L201.718 207.99H203.418L206.92 216.014L205.832 217.289ZM221.083 217.102C220.211 217.102 219.429 216.909 218.737 216.524C218.057 216.139 217.519 215.6 217.122 214.909C216.726 214.218 216.527 213.413 216.527 212.495C216.527 211.577 216.726 210.778 217.122 210.098C217.519 209.407 218.057 208.868 218.737 208.483C219.429 208.098 220.211 207.905 221.083 207.905C221.843 207.905 222.528 208.075 223.14 208.415C223.752 208.755 224.24 209.265 224.602 209.945C224.976 210.625 225.163 211.475 225.163 212.495C225.163 213.515 224.982 214.365 224.619 215.045C224.268 215.725 223.786 216.241 223.174 216.592C222.562 216.932 221.865 217.102 221.083 217.102ZM221.219 215.674C221.786 215.674 222.296 215.544 222.749 215.283C223.214 215.022 223.577 214.654 223.837 214.178C224.109 213.691 224.245 213.13 224.245 212.495C224.245 211.849 224.109 211.294 223.837 210.829C223.577 210.353 223.214 209.985 222.749 209.724C222.296 209.463 221.786 209.333 221.219 209.333C220.641 209.333 220.126 209.463 219.672 209.724C219.219 209.985 218.856 210.353 218.584 210.829C218.312 211.294 218.176 211.849 218.176 212.495C218.176 213.13 218.312 213.691 218.584 214.178C218.856 214.654 219.219 215.022 219.672 215.283C220.126 215.544 220.641 215.674 221.219 215.674ZM224.296 217V214.569L224.398 212.478L224.228 210.387V204.386H225.86V217H224.296ZM220.675 206.783V205.627H227.407V206.783H220.675ZM232.807 217.102C231.901 217.102 231.096 216.904 230.393 216.507C229.691 216.11 229.135 215.566 228.727 214.875C228.319 214.172 228.115 213.379 228.115 212.495C228.115 211.6 228.319 210.806 228.727 210.115C229.135 209.424 229.691 208.885 230.393 208.5C231.096 208.103 231.901 207.905 232.807 207.905C233.703 207.905 234.502 208.103 235.204 208.5C235.918 208.885 236.474 209.424 236.87 210.115C237.278 210.795 237.482 211.588 237.482 212.495C237.482 213.39 237.278 214.184 236.87 214.875C236.474 215.566 235.918 216.11 235.204 216.507C234.502 216.904 233.703 217.102 232.807 217.102ZM232.807 215.674C233.385 215.674 233.901 215.544 234.354 215.283C234.819 215.022 235.182 214.654 235.442 214.178C235.703 213.691 235.833 213.13 235.833 212.495C235.833 211.849 235.703 211.294 235.442 210.829C235.182 210.353 234.819 209.985 234.354 209.724C233.901 209.463 233.385 209.333 232.807 209.333C232.229 209.333 231.714 209.463 231.26 209.724C230.807 209.985 230.444 210.353 230.172 210.829C229.9 211.294 229.764 211.849 229.764 212.495C229.764 213.13 229.9 213.691 230.172 214.178C230.444 214.654 230.807 215.022 231.26 215.283C231.714 215.544 232.229 215.674 232.807 215.674ZM232.79 220.332C232.552 220.332 232.348 220.253 232.178 220.094C232.008 219.935 231.923 219.731 231.923 219.482C231.923 219.221 232.008 219.006 232.178 218.836C232.348 218.677 232.552 218.598 232.79 218.598C233.028 218.598 233.232 218.677 233.402 218.836C233.572 219.006 233.657 219.221 233.657 219.482C233.657 219.731 233.572 219.935 233.402 220.094C233.232 220.253 233.028 220.332 232.79 220.332ZM243.666 217.102C242.748 217.102 241.927 216.904 241.201 216.507C240.487 216.11 239.926 215.566 239.518 214.875C239.11 214.184 238.906 213.39 238.906 212.495C238.906 211.6 239.11 210.806 239.518 210.115C239.926 209.424 240.487 208.885 241.201 208.5C241.927 208.103 242.748 207.905 243.666 207.905C244.482 207.905 245.208 208.069 245.842 208.398C246.488 208.715 246.987 209.191 247.338 209.826L246.097 210.625C245.803 210.183 245.44 209.86 245.009 209.656C244.59 209.441 244.137 209.333 243.649 209.333C243.06 209.333 242.533 209.463 242.068 209.724C241.604 209.985 241.235 210.353 240.963 210.829C240.691 211.294 240.555 211.849 240.555 212.495C240.555 213.141 240.691 213.702 240.963 214.178C241.235 214.654 241.604 215.022 242.068 215.283C242.533 215.544 243.06 215.674 243.649 215.674C244.137 215.674 244.59 215.572 245.009 215.368C245.44 215.153 245.803 214.824 246.097 214.382L247.338 215.164C246.987 215.787 246.488 216.269 245.842 216.609C245.208 216.938 244.482 217.102 243.666 217.102ZM257.74 217.102C256.867 217.102 256.085 216.909 255.394 216.524C254.714 216.139 254.175 215.6 253.779 214.909C253.382 214.218 253.184 213.413 253.184 212.495C253.184 211.577 253.382 210.778 253.779 210.098C254.175 209.407 254.714 208.868 255.394 208.483C256.085 208.098 256.867 207.905 257.74 207.905C258.499 207.905 259.185 208.075 259.797 208.415C260.409 208.755 260.896 209.265 261.259 209.945C261.633 210.625 261.82 211.475 261.82 212.495C261.82 213.515 261.638 214.365 261.276 215.045C260.924 215.725 260.443 216.241 259.831 216.592C259.219 216.932 258.522 217.102 257.74 217.102ZM257.876 215.674C258.442 215.674 258.952 215.544 259.406 215.283C259.87 215.022 260.233 214.654 260.494 214.178C260.766 213.691 260.902 213.13 260.902 212.495C260.902 211.849 260.766 211.294 260.494 210.829C260.233 210.353 259.87 209.985 259.406 209.724C258.952 209.463 258.442 209.333 257.876 209.333C257.298 209.333 256.782 209.463 256.329 209.724C255.875 209.985 255.513 210.353 255.241 210.829C254.969 211.294 254.833 211.849 254.833 212.495C254.833 213.13 254.969 213.691 255.241 214.178C255.513 214.654 255.875 215.022 256.329 215.283C256.782 215.544 257.298 215.674 257.876 215.674ZM260.953 217V214.569L261.055 212.478L260.885 210.387V204.386H262.517V217H260.953ZM257.332 206.783V205.627H264.064V206.783H257.332ZM271.198 217V215.096L271.113 214.739V211.492C271.113 210.801 270.909 210.268 270.501 209.894C270.104 209.509 269.503 209.316 268.699 209.316C268.166 209.316 267.645 209.407 267.135 209.588C266.625 209.758 266.194 209.99 265.843 210.285L265.163 209.061C265.627 208.687 266.183 208.404 266.829 208.211C267.486 208.007 268.172 207.905 268.886 207.905C270.121 207.905 271.073 208.205 271.742 208.806C272.41 209.407 272.745 210.325 272.745 211.56V217H271.198ZM268.24 217.102C267.571 217.102 266.982 216.989 266.472 216.762C265.973 216.535 265.588 216.224 265.316 215.827C265.044 215.419 264.908 214.96 264.908 214.45C264.908 213.963 265.021 213.521 265.248 213.124C265.486 212.727 265.865 212.41 266.387 212.172C266.919 211.934 267.633 211.815 268.529 211.815H271.385V212.988H268.597C267.781 212.988 267.231 213.124 266.948 213.396C266.664 213.668 266.523 213.997 266.523 214.382C266.523 214.824 266.698 215.181 267.05 215.453C267.401 215.714 267.888 215.844 268.512 215.844C269.124 215.844 269.656 215.708 270.11 215.436C270.574 215.164 270.909 214.767 271.113 214.246L271.436 215.368C271.22 215.901 270.841 216.326 270.297 216.643C269.753 216.949 269.067 217.102 268.24 217.102ZM265.962 206.681L268.24 204.981H269.77L272.048 206.681H270.552L268.325 205.304H269.685L267.458 206.681H265.962ZM271.708 205.185L269.192 203.264H271.045L273.034 205.185H271.708ZM275.99 220.4C275.559 220.4 275.14 220.326 274.732 220.179C274.324 220.043 273.972 219.839 273.678 219.567L274.375 218.343C274.601 218.558 274.851 218.723 275.123 218.836C275.395 218.949 275.684 219.006 275.99 219.006C276.386 219.006 276.715 218.904 276.976 218.7C277.236 218.496 277.48 218.133 277.707 217.612L278.268 216.371L278.438 216.167L281.974 207.99H283.572L279.203 217.901C278.942 218.536 278.647 219.034 278.319 219.397C278.001 219.76 277.65 220.015 277.265 220.162C276.879 220.321 276.454 220.4 275.99 220.4ZM278.132 217.289L274.018 207.99H275.718L279.22 216.014L278.132 217.289ZM293.383 217.102C292.511 217.102 291.729 216.909 291.037 216.524C290.357 216.139 289.819 215.6 289.422 214.909C289.026 214.218 288.827 213.413 288.827 212.495C288.827 211.577 289.026 210.778 289.422 210.098C289.819 209.407 290.357 208.868 291.037 208.483C291.729 208.098 292.511 207.905 293.383 207.905C294.143 207.905 294.828 208.075 295.44 208.415C296.052 208.755 296.54 209.265 296.902 209.945C297.276 210.625 297.463 211.475 297.463 212.495C297.463 213.515 297.282 214.365 296.919 215.045C296.568 215.725 296.086 216.241 295.474 216.592C294.862 216.932 294.165 217.102 293.383 217.102ZM293.519 215.674C294.086 215.674 294.596 215.544 295.049 215.283C295.514 215.022 295.877 214.654 296.137 214.178C296.409 213.691 296.545 213.13 296.545 212.495C296.545 211.849 296.409 211.294 296.137 210.829C295.877 210.353 295.514 209.985 295.049 209.724C294.596 209.463 294.086 209.333 293.519 209.333C292.941 209.333 292.426 209.463 291.972 209.724C291.519 209.985 291.156 210.353 290.884 210.829C290.612 211.294 290.476 211.849 290.476 212.495C290.476 213.13 290.612 213.691 290.884 214.178C291.156 214.654 291.519 215.022 291.972 215.283C292.426 215.544 292.941 215.674 293.519 215.674ZM296.596 217V214.569L296.698 212.478L296.528 210.387V204.386H298.16V217H296.596ZM292.975 206.783V205.627H299.707V206.783H292.975ZM305.039 217.102C304.269 217.102 303.589 216.96 302.999 216.677C302.421 216.394 301.968 215.963 301.639 215.385C301.322 214.796 301.163 214.059 301.163 213.175V207.99H302.795V212.988C302.795 213.872 303.005 214.535 303.424 214.977C303.855 215.419 304.456 215.64 305.226 215.64C305.793 215.64 306.286 215.527 306.705 215.3C307.125 215.062 307.448 214.722 307.674 214.28C307.901 213.827 308.014 213.283 308.014 212.648V207.99H309.646V217H308.099V214.569L308.354 215.215C308.06 215.816 307.618 216.28 307.028 216.609C306.439 216.938 305.776 217.102 305.039 217.102ZM305.736 206.834L305.175 206.171C305.504 206.012 305.742 205.842 305.889 205.661C306.048 205.468 306.127 205.259 306.127 205.032C306.127 204.794 306.048 204.601 305.889 204.454C305.731 204.307 305.515 204.233 305.243 204.233C304.892 204.233 304.552 204.341 304.223 204.556L303.849 203.791C304.065 203.632 304.308 203.513 304.58 203.434C304.864 203.355 305.136 203.315 305.396 203.315C305.918 203.315 306.337 203.462 306.654 203.757C306.972 204.04 307.13 204.42 307.13 204.896C307.13 205.315 307.017 205.689 306.79 206.018C306.564 206.335 306.212 206.607 305.736 206.834ZM322.095 217.102C321.325 217.102 320.628 216.932 320.004 216.592C319.392 216.241 318.905 215.725 318.542 215.045C318.191 214.365 318.015 213.515 318.015 212.495C318.015 211.475 318.197 210.625 318.559 209.945C318.933 209.265 319.426 208.755 320.038 208.415C320.662 208.075 321.347 207.905 322.095 207.905C322.979 207.905 323.761 208.098 324.441 208.483C325.121 208.868 325.66 209.407 326.056 210.098C326.453 210.778 326.651 211.577 326.651 212.495C326.651 213.413 326.453 214.218 326.056 214.909C325.66 215.6 325.121 216.139 324.441 216.524C323.761 216.909 322.979 217.102 322.095 217.102ZM317.318 217V204.386H318.95V210.387L318.78 212.478L318.882 214.569V217H317.318ZM321.959 215.674C322.537 215.674 323.053 215.544 323.506 215.283C323.971 215.022 324.334 214.654 324.594 214.178C324.866 213.691 325.002 213.13 325.002 212.495C325.002 211.849 324.866 211.294 324.594 210.829C324.334 210.353 323.971 209.985 323.506 209.724C323.053 209.463 322.537 209.333 321.959 209.333C321.393 209.333 320.877 209.463 320.412 209.724C319.959 209.985 319.596 210.353 319.324 210.829C319.064 211.294 318.933 211.849 318.933 212.495C318.933 213.13 319.064 213.691 319.324 214.178C319.596 214.654 319.959 215.022 320.412 215.283C320.877 215.544 321.393 215.674 321.959 215.674ZM332.765 217.102C331.859 217.102 331.054 216.904 330.351 216.507C329.649 216.11 329.093 215.566 328.685 214.875C328.277 214.172 328.073 213.379 328.073 212.495C328.073 211.6 328.277 210.806 328.685 210.115C329.093 209.424 329.649 208.885 330.351 208.5C331.054 208.103 331.859 207.905 332.765 207.905C333.661 207.905 334.46 208.103 335.162 208.5C335.876 208.885 336.432 209.424 336.828 210.115C337.236 210.795 337.44 211.588 337.44 212.495C337.44 213.39 337.236 214.184 336.828 214.875C336.432 215.566 335.876 216.11 335.162 216.507C334.46 216.904 333.661 217.102 332.765 217.102ZM332.765 215.674C333.343 215.674 333.859 215.544 334.312 215.283C334.777 215.022 335.14 214.654 335.4 214.178C335.661 213.691 335.791 213.13 335.791 212.495C335.791 211.849 335.661 211.294 335.4 210.829C335.14 210.353 334.777 209.985 334.312 209.724C333.859 209.463 333.343 209.333 332.765 209.333C332.187 209.333 331.672 209.463 331.218 209.724C330.765 209.985 330.402 210.353 330.13 210.829C329.858 211.294 329.722 211.849 329.722 212.495C329.722 213.13 329.858 213.691 330.13 214.178C330.402 214.654 330.765 215.022 331.218 215.283C331.672 215.544 332.187 215.674 332.765 215.674ZM332.748 220.332C332.51 220.332 332.306 220.253 332.136 220.094C331.966 219.935 331.881 219.731 331.881 219.482C331.881 219.221 331.966 219.006 332.136 218.836C332.306 218.677 332.51 218.598 332.748 218.598C332.986 218.598 333.19 218.677 333.36 218.836C333.53 219.006 333.615 219.221 333.615 219.482C333.615 219.731 333.53 219.935 333.36 220.094C333.19 220.253 332.986 220.332 332.748 220.332ZM329.705 206.681L331.966 204.471H333.53L335.791 206.681H334.312L332.068 204.811H333.428L331.184 206.681H329.705ZM349.074 207.905C349.81 207.905 350.456 208.047 351.012 208.33C351.578 208.613 352.02 209.044 352.338 209.622C352.655 210.2 352.814 210.931 352.814 211.815V217H351.182V212.002C351.182 211.129 350.966 210.472 350.536 210.03C350.116 209.588 349.521 209.367 348.751 209.367C348.173 209.367 347.668 209.48 347.238 209.707C346.807 209.934 346.473 210.268 346.235 210.71C346.008 211.152 345.895 211.702 345.895 212.359V217H344.263V204.386H345.895V210.421L345.572 209.775C345.866 209.186 346.32 208.727 346.932 208.398C347.544 208.069 348.258 207.905 349.074 207.905ZM359.625 217.102C358.854 217.102 358.174 216.96 357.585 216.677C357.007 216.394 356.554 215.963 356.225 215.385C355.908 214.796 355.749 214.059 355.749 213.175V207.99H357.381V212.988C357.381 213.872 357.591 214.535 358.01 214.977C358.441 215.419 359.041 215.64 359.812 215.64C360.379 215.64 360.872 215.527 361.291 215.3C361.71 215.062 362.033 214.722 362.26 214.28C362.487 213.827 362.6 213.283 362.6 212.648V207.99H364.232V217H362.685V214.569L362.94 215.215C362.645 215.816 362.203 216.28 361.614 216.609C361.025 216.938 360.362 217.102 359.625 217.102ZM363.127 209.231V207.99H363.433C363.807 207.99 364.079 207.888 364.249 207.684C364.43 207.469 364.521 207.202 364.521 206.885C364.521 206.67 364.487 206.471 364.419 206.29C364.362 206.109 364.283 205.95 364.181 205.814L365.218 205.423C365.377 205.616 365.496 205.842 365.575 206.103C365.654 206.364 365.694 206.641 365.694 206.936C365.694 207.616 365.496 208.171 365.099 208.602C364.702 209.021 364.147 209.231 363.433 209.231H363.127ZM370.999 217.102C370.092 217.102 369.287 216.904 368.585 216.507C367.882 216.11 367.327 215.566 366.919 214.875C366.511 214.184 366.307 213.39 366.307 212.495C366.307 211.6 366.511 210.806 366.919 210.115C367.327 209.424 367.882 208.885 368.585 208.5C369.299 208.103 370.109 207.905 371.016 207.905C371.322 207.905 371.577 207.916 371.781 207.939C371.996 207.95 372.2 207.967 372.393 207.99C372.597 208.001 372.823 208.007 373.073 208.007C373.515 208.007 373.838 207.899 374.042 207.684C374.257 207.457 374.365 207.185 374.365 206.868C374.365 206.653 374.331 206.46 374.263 206.29C374.195 206.109 374.11 205.944 374.008 205.797L375.028 205.406C375.175 205.61 375.294 205.842 375.385 206.103C375.475 206.364 375.521 206.636 375.521 206.919C375.521 207.35 375.419 207.729 375.215 208.058C375.011 208.387 374.716 208.642 374.331 208.823C373.957 209.004 373.498 209.095 372.954 209.095C372.772 209.095 372.591 209.089 372.41 209.078C372.228 209.055 372.036 209.027 371.832 208.993L372.767 208.228C373.639 208.545 374.342 209.084 374.875 209.843C375.407 210.591 375.674 211.475 375.674 212.495C375.674 213.39 375.47 214.184 375.062 214.875C374.665 215.566 374.11 216.11 373.396 216.507C372.693 216.904 371.894 217.102 370.999 217.102ZM370.999 215.674C371.565 215.674 372.075 215.544 372.529 215.283C372.993 215.022 373.356 214.654 373.617 214.178C373.889 213.691 374.025 213.13 374.025 212.495C374.025 211.849 373.894 211.294 373.634 210.829C373.373 210.353 373.01 209.985 372.546 209.724C372.092 209.463 371.577 209.333 370.999 209.333C370.421 209.333 369.905 209.463 369.452 209.724C368.998 209.985 368.636 210.353 368.364 210.829C368.092 211.294 367.956 211.849 367.956 212.495C367.956 213.13 368.092 213.691 368.364 214.178C368.636 214.654 368.998 215.022 369.452 215.283C369.905 215.544 370.421 215.674 370.999 215.674ZM369.724 206.681L372.036 204.471H374.11L371.254 206.681H369.724ZM382.742 207.905C383.478 207.905 384.124 208.047 384.68 208.33C385.246 208.613 385.688 209.044 386.006 209.622C386.323 210.2 386.482 210.931 386.482 211.815V217H384.85V212.002C384.85 211.129 384.634 210.472 384.204 210.03C383.784 209.588 383.189 209.367 382.419 209.367C381.841 209.367 381.336 209.48 380.906 209.707C380.475 209.934 380.141 210.268 379.903 210.71C379.676 211.152 379.563 211.702 379.563 212.359V217H377.931V207.99H379.495V210.421L379.24 209.775C379.534 209.186 379.988 208.727 380.6 208.398C381.212 208.069 381.926 207.905 382.742 207.905ZM393.446 220.4C392.619 220.4 391.814 220.281 391.032 220.043C390.261 219.816 389.632 219.488 389.145 219.057L389.927 217.799C390.346 218.162 390.862 218.445 391.474 218.649C392.086 218.864 392.726 218.972 393.395 218.972C394.46 218.972 395.242 218.723 395.741 218.224C396.24 217.725 396.489 216.966 396.489 215.946V214.042L396.659 212.257L396.574 210.455V207.99H398.121V215.776C398.121 217.363 397.724 218.53 396.931 219.278C396.138 220.026 394.976 220.4 393.446 220.4ZM393.242 216.626C392.369 216.626 391.587 216.445 390.896 216.082C390.216 215.708 389.672 215.192 389.264 214.535C388.867 213.878 388.669 213.118 388.669 212.257C388.669 211.384 388.867 210.625 389.264 209.979C389.672 209.322 390.216 208.812 390.896 208.449C391.587 208.086 392.369 207.905 393.242 207.905C394.013 207.905 394.715 208.064 395.35 208.381C395.985 208.687 396.489 209.163 396.863 209.809C397.248 210.455 397.441 211.271 397.441 212.257C397.441 213.232 397.248 214.042 396.863 214.688C396.489 215.334 395.985 215.821 395.35 216.15C394.715 216.467 394.013 216.626 393.242 216.626ZM393.429 215.198C394.03 215.198 394.562 215.073 395.027 214.824C395.492 214.575 395.854 214.229 396.115 213.787C396.387 213.345 396.523 212.835 396.523 212.257C396.523 211.679 396.387 211.169 396.115 210.727C395.854 210.285 395.492 209.945 395.027 209.707C394.562 209.458 394.03 209.333 393.429 209.333C392.828 209.333 392.29 209.458 391.814 209.707C391.349 209.945 390.981 210.285 390.709 210.727C390.448 211.169 390.318 211.679 390.318 212.257C390.318 212.835 390.448 213.345 390.709 213.787C390.981 214.229 391.349 214.575 391.814 214.824C392.29 215.073 392.828 215.198 393.429 215.198ZM409.528 217.102C408.655 217.102 407.873 216.909 407.182 216.524C406.502 216.139 405.963 215.6 405.567 214.909C405.17 214.218 404.972 213.413 404.972 212.495C404.972 211.577 405.17 210.778 405.567 210.098C405.963 209.407 406.502 208.868 407.182 208.483C407.873 208.098 408.655 207.905 409.528 207.905C410.287 207.905 410.973 208.075 411.585 208.415C412.197 208.755 412.684 209.265 413.047 209.945C413.421 210.625 413.608 211.475 413.608 212.495C413.608 213.515 413.426 214.365 413.064 215.045C412.712 215.725 412.231 216.241 411.619 216.592C411.007 216.932 410.31 217.102 409.528 217.102ZM409.664 215.674C410.23 215.674 410.74 215.544 411.194 215.283C411.658 215.022 412.021 214.654 412.282 214.178C412.554 213.691 412.69 213.13 412.69 212.495C412.69 211.849 412.554 211.294 412.282 210.829C412.021 210.353 411.658 209.985 411.194 209.724C410.74 209.463 410.23 209.333 409.664 209.333C409.086 209.333 408.57 209.463 408.117 209.724C407.663 209.985 407.301 210.353 407.029 210.829C406.757 211.294 406.621 211.849 406.621 212.495C406.621 213.13 406.757 213.691 407.029 214.178C407.301 214.654 407.663 215.022 408.117 215.283C408.57 215.544 409.086 215.674 409.664 215.674ZM412.741 217V214.569L412.843 212.478L412.673 210.387V204.386H414.305V217H412.741ZM422.986 217V215.096L422.901 214.739V211.492C422.901 210.801 422.697 210.268 422.289 209.894C421.892 209.509 421.291 209.316 420.487 209.316C419.954 209.316 419.433 209.407 418.923 209.588C418.413 209.758 417.982 209.99 417.631 210.285L416.951 209.061C417.415 208.687 417.971 208.404 418.617 208.211C419.274 208.007 419.96 207.905 420.674 207.905C421.909 207.905 422.861 208.205 423.53 208.806C424.198 209.407 424.533 210.325 424.533 211.56V217H422.986ZM420.028 217.102C419.359 217.102 418.77 216.989 418.26 216.762C417.761 216.535 417.376 216.224 417.104 215.827C416.832 215.419 416.696 214.96 416.696 214.45C416.696 213.963 416.809 213.521 417.036 213.124C417.274 212.727 417.653 212.41 418.175 212.172C418.707 211.934 419.421 211.815 420.317 211.815H423.173V212.988H420.385C419.569 212.988 419.019 213.124 418.736 213.396C418.452 213.668 418.311 213.997 418.311 214.382C418.311 214.824 418.486 215.181 418.838 215.453C419.189 215.714 419.676 215.844 420.3 215.844C420.912 215.844 421.444 215.708 421.898 215.436C422.362 215.164 422.697 214.767 422.901 214.246L423.224 215.368C423.008 215.901 422.629 216.326 422.085 216.643C421.541 216.949 420.855 217.102 420.028 217.102ZM417.75 206.681L420.028 204.981H421.558L423.836 206.681H422.34L420.113 205.304H421.473L419.246 206.681H417.75ZM421.983 204.403C421.62 204.403 421.308 204.329 421.048 204.182C420.787 204.023 420.549 203.87 420.334 203.723C420.118 203.564 419.903 203.485 419.688 203.485C419.427 203.485 419.234 203.559 419.11 203.706C418.985 203.853 418.917 204.063 418.906 204.335H417.988C417.999 203.78 418.152 203.349 418.447 203.043C418.741 202.737 419.132 202.584 419.62 202.584C419.982 202.584 420.288 202.663 420.538 202.822C420.798 202.969 421.036 203.122 421.252 203.281C421.478 203.428 421.699 203.502 421.915 203.502C422.164 203.502 422.351 203.428 422.476 203.281C422.612 203.134 422.685 202.93 422.697 202.669H423.598C423.586 203.202 423.433 203.627 423.139 203.944C422.855 204.25 422.47 204.403 421.983 204.403ZM432.364 207.905C433.101 207.905 433.747 208.047 434.302 208.33C434.869 208.613 435.311 209.044 435.628 209.622C435.945 210.2 436.104 210.931 436.104 211.815V217H434.472V212.002C434.472 211.129 434.257 210.472 433.826 210.03C433.407 209.588 432.812 209.367 432.041 209.367C431.463 209.367 430.959 209.48 430.528 209.707C430.097 209.934 429.763 210.268 429.525 210.71C429.298 211.152 429.185 211.702 429.185 212.359V217H427.553V207.99H429.117V210.421L428.862 209.775C429.157 209.186 429.61 208.727 430.222 208.398C430.834 208.069 431.548 207.905 432.364 207.905ZM448.501 207.905C449.237 207.905 449.883 208.047 450.439 208.33C451.005 208.613 451.447 209.044 451.765 209.622C452.082 210.2 452.241 210.931 452.241 211.815V217H450.609V212.002C450.609 211.129 450.393 210.472 449.963 210.03C449.543 209.588 448.948 209.367 448.178 209.367C447.6 209.367 447.095 209.48 446.665 209.707C446.234 209.934 445.9 210.268 445.662 210.71C445.435 211.152 445.322 211.702 445.322 212.359V217H443.69V207.99H445.254V210.421L444.999 209.775C445.293 209.186 445.747 208.727 446.359 208.398C446.971 208.069 447.685 207.905 448.501 207.905ZM460.854 217V215.096L460.769 214.739V211.492C460.769 210.801 460.565 210.268 460.157 209.894C459.76 209.509 459.16 209.316 458.355 209.316C457.822 209.316 457.301 209.407 456.791 209.588C456.281 209.758 455.85 209.99 455.499 210.285L454.819 209.061C455.284 208.687 455.839 208.404 456.485 208.211C457.142 208.007 457.828 207.905 458.542 207.905C459.777 207.905 460.729 208.205 461.398 208.806C462.067 209.407 462.401 210.325 462.401 211.56V217H460.854ZM457.896 217.102C457.227 217.102 456.638 216.989 456.128 216.762C455.629 216.535 455.244 216.224 454.972 215.827C454.7 215.419 454.564 214.96 454.564 214.45C454.564 213.963 454.677 213.521 454.904 213.124C455.142 212.727 455.522 212.41 456.043 212.172C456.576 211.934 457.29 211.815 458.185 211.815H461.041V212.988H458.253C457.437 212.988 456.887 213.124 456.604 213.396C456.321 213.668 456.179 213.997 456.179 214.382C456.179 214.824 456.355 215.181 456.706 215.453C457.057 215.714 457.545 215.844 458.168 215.844C458.78 215.844 459.313 215.708 459.766 215.436C460.231 215.164 460.565 214.767 460.769 214.246L461.092 215.368C460.877 215.901 460.497 216.326 459.953 216.643C459.409 216.949 458.723 217.102 457.896 217.102ZM458.406 206.681L455.55 204.471H457.624L459.936 206.681H458.406ZM465.646 220.4C465.215 220.4 464.796 220.326 464.388 220.179C463.98 220.043 463.629 219.839 463.334 219.567L464.031 218.343C464.258 218.558 464.507 218.723 464.779 218.836C465.051 218.949 465.34 219.006 465.646 219.006C466.043 219.006 466.371 218.904 466.632 218.7C466.893 218.496 467.136 218.133 467.363 217.612L467.924 216.371L468.094 216.167L471.63 207.99H473.228L468.859 217.901C468.598 218.536 468.304 219.034 467.975 219.397C467.658 219.76 467.306 220.015 466.921 220.162C466.536 220.321 466.111 220.4 465.646 220.4ZM467.788 217.289L463.674 207.99H465.374L468.876 216.014L467.788 217.289ZM482.411 217.102C481.504 217.102 480.801 216.858 480.303 216.371C479.804 215.884 479.555 215.187 479.555 214.28V206.018H481.187V214.212C481.187 214.699 481.306 215.073 481.544 215.334C481.793 215.595 482.144 215.725 482.598 215.725C483.108 215.725 483.533 215.583 483.873 215.3L484.383 216.473C484.133 216.688 483.833 216.847 483.482 216.949C483.142 217.051 482.785 217.102 482.411 217.102ZM478.025 209.333V207.99H483.771V209.333H478.025ZM486.356 217V207.99H487.92V210.438L487.767 209.826C488.016 209.203 488.435 208.727 489.025 208.398C489.614 208.069 490.339 207.905 491.201 207.905V209.486C491.133 209.475 491.065 209.469 490.997 209.469C490.94 209.469 490.883 209.469 490.827 209.469C489.954 209.469 489.263 209.73 488.753 210.251C488.243 210.772 487.988 211.526 487.988 212.512V217H486.356ZM497.119 217.102C496.349 217.102 495.669 216.96 495.079 216.677C494.501 216.394 494.048 215.963 493.719 215.385C493.402 214.796 493.243 214.059 493.243 213.175V207.99H494.875V212.988C494.875 213.872 495.085 214.535 495.504 214.977C495.935 215.419 496.536 215.64 497.306 215.64C497.873 215.64 498.366 215.527 498.785 215.3C499.205 215.062 499.528 214.722 499.754 214.28C499.981 213.827 500.094 213.283 500.094 212.648V207.99H501.726V217H500.179V214.569L500.434 215.215C500.14 215.816 499.698 216.28 499.108 216.609C498.519 216.938 497.856 217.102 497.119 217.102ZM500.621 209.231V207.99H500.927C501.301 207.99 501.573 207.888 501.743 207.684C501.925 207.469 502.015 207.202 502.015 206.885C502.015 206.67 501.981 206.471 501.913 206.29C501.857 206.109 501.777 205.95 501.675 205.814L502.712 205.423C502.871 205.616 502.99 205.842 503.069 206.103C503.149 206.364 503.188 206.641 503.188 206.936C503.188 207.616 502.99 208.171 502.593 208.602C502.197 209.021 501.641 209.231 500.927 209.231H500.621ZM508.493 217.102C507.586 217.102 506.782 216.904 506.079 216.507C505.376 216.11 504.821 215.566 504.413 214.875C504.005 214.184 503.801 213.39 503.801 212.495C503.801 211.6 504.005 210.806 504.413 210.115C504.821 209.424 505.376 208.885 506.079 208.5C506.793 208.103 507.603 207.905 508.51 207.905C508.816 207.905 509.071 207.916 509.275 207.939C509.49 207.95 509.694 207.967 509.887 207.99C510.091 208.001 510.318 208.007 510.567 208.007C511.009 208.007 511.332 207.899 511.536 207.684C511.751 207.457 511.859 207.185 511.859 206.868C511.859 206.653 511.825 206.46 511.757 206.29C511.689 206.109 511.604 205.944 511.502 205.797L512.522 205.406C512.669 205.61 512.788 205.842 512.879 206.103C512.97 206.364 513.015 206.636 513.015 206.919C513.015 207.35 512.913 207.729 512.709 208.058C512.505 208.387 512.21 208.642 511.825 208.823C511.451 209.004 510.992 209.095 510.448 209.095C510.267 209.095 510.085 209.089 509.904 209.078C509.723 209.055 509.53 209.027 509.326 208.993L510.261 208.228C511.134 208.545 511.836 209.084 512.369 209.843C512.902 210.591 513.168 211.475 513.168 212.495C513.168 213.39 512.964 214.184 512.556 214.875C512.159 215.566 511.604 216.11 510.89 216.507C510.187 216.904 509.388 217.102 508.493 217.102ZM508.493 215.674C509.06 215.674 509.57 215.544 510.023 215.283C510.488 215.022 510.85 214.654 511.111 214.178C511.383 213.691 511.519 213.13 511.519 212.495C511.519 211.849 511.389 211.294 511.128 210.829C510.867 210.353 510.505 209.985 510.04 209.724C509.587 209.463 509.071 209.333 508.493 209.333C507.915 209.333 507.399 209.463 506.946 209.724C506.493 209.985 506.13 210.353 505.858 210.829C505.586 211.294 505.45 211.849 505.45 212.495C505.45 213.13 505.586 213.691 505.858 214.178C506.13 214.654 506.493 215.022 506.946 215.283C507.399 215.544 507.915 215.674 508.493 215.674ZM507.218 206.681L509.53 204.471H511.604L508.748 206.681H507.218ZM519.352 217.102C518.434 217.102 517.612 216.904 516.887 216.507C516.173 216.11 515.612 215.566 515.204 214.875C514.796 214.184 514.592 213.39 514.592 212.495C514.592 211.6 514.796 210.806 515.204 210.115C515.612 209.424 516.173 208.885 516.887 208.5C517.612 208.103 518.434 207.905 519.352 207.905C520.168 207.905 520.893 208.069 521.528 208.398C522.174 208.715 522.673 209.191 523.024 209.826L521.783 210.625C521.488 210.183 521.126 209.86 520.695 209.656C520.276 209.441 519.822 209.333 519.335 209.333C518.746 209.333 518.219 209.463 517.754 209.724C517.289 209.985 516.921 210.353 516.649 210.829C516.377 211.294 516.241 211.849 516.241 212.495C516.241 213.141 516.377 213.702 516.649 214.178C516.921 214.654 517.289 215.022 517.754 215.283C518.219 215.544 518.746 215.674 519.335 215.674C519.822 215.674 520.276 215.572 520.695 215.368C521.126 215.153 521.488 214.824 521.783 214.382L523.024 215.164C522.673 215.787 522.174 216.269 521.528 216.609C520.893 216.938 520.168 217.102 519.352 217.102ZM531.028 214.824L531.062 212.733L536.247 207.99H538.219L534.241 211.9L533.357 212.648L531.028 214.824ZM529.702 217V204.386H531.334V217H529.702ZM536.587 217L533.051 212.614L534.105 211.305L538.593 217H536.587ZM544.989 207.905C545.726 207.905 546.372 208.047 546.927 208.33C547.494 208.613 547.936 209.044 548.253 209.622C548.57 210.2 548.729 210.931 548.729 211.815V217H547.097V212.002C547.097 211.129 546.882 210.472 546.451 210.03C546.032 209.588 545.437 209.367 544.666 209.367C544.088 209.367 543.584 209.48 543.153 209.707C542.722 209.934 542.388 210.268 542.15 210.71C541.923 211.152 541.81 211.702 541.81 212.359V217H540.178V204.386H541.81V210.421L541.487 209.775C541.782 209.186 542.235 208.727 542.847 208.398C543.459 208.069 544.173 207.905 544.989 207.905ZM551.749 217V207.99H553.381V217H551.749ZM552.565 206.256C552.248 206.256 551.981 206.154 551.766 205.95C551.562 205.746 551.46 205.497 551.46 205.202C551.46 204.896 551.562 204.641 551.766 204.437C551.981 204.233 552.248 204.131 552.565 204.131C552.882 204.131 553.143 204.233 553.347 204.437C553.562 204.63 553.67 204.873 553.67 205.168C553.67 205.474 553.568 205.735 553.364 205.95C553.16 206.154 552.894 206.256 552.565 206.256ZM565.84 217.102C565.069 217.102 564.372 216.932 563.749 216.592C563.137 216.241 562.649 215.725 562.287 215.045C561.935 214.365 561.76 213.515 561.76 212.495C561.76 211.475 561.941 210.625 562.304 209.945C562.678 209.265 563.171 208.755 563.783 208.415C564.406 208.075 565.092 207.905 565.84 207.905C566.724 207.905 567.506 208.098 568.186 208.483C568.866 208.868 569.404 209.407 569.801 210.098C570.197 210.778 570.396 211.577 570.396 212.495C570.396 213.413 570.197 214.218 569.801 214.909C569.404 215.6 568.866 216.139 568.186 216.524C567.506 216.909 566.724 217.102 565.84 217.102ZM561.063 217V204.386H562.695V210.387L562.525 212.478L562.627 214.569V217H561.063ZM565.704 215.674C566.282 215.674 566.797 215.544 567.251 215.283C567.715 215.022 568.078 214.654 568.339 214.178C568.611 213.691 568.747 213.13 568.747 212.495C568.747 211.849 568.611 211.294 568.339 210.829C568.078 210.353 567.715 209.985 567.251 209.724C566.797 209.463 566.282 209.333 565.704 209.333C565.137 209.333 564.621 209.463 564.157 209.724C563.703 209.985 563.341 210.353 563.069 210.829C562.808 211.294 562.678 211.849 562.678 212.495C562.678 213.13 562.808 213.691 563.069 214.178C563.341 214.654 563.703 215.022 564.157 215.283C564.621 215.544 565.137 215.674 565.704 215.674ZM578.161 217V215.096L578.076 214.739V211.492C578.076 210.801 577.872 210.268 577.464 209.894C577.067 209.509 576.466 209.316 575.662 209.316C575.129 209.316 574.608 209.407 574.098 209.588C573.588 209.758 573.157 209.99 572.806 210.285L572.126 209.061C572.59 208.687 573.146 208.404 573.792 208.211C574.449 208.007 575.135 207.905 575.849 207.905C577.084 207.905 578.036 208.205 578.705 208.806C579.373 209.407 579.708 210.325 579.708 211.56V217H578.161ZM575.203 217.102C574.534 217.102 573.945 216.989 573.435 216.762C572.936 216.535 572.551 216.224 572.279 215.827C572.007 215.419 571.871 214.96 571.871 214.45C571.871 213.963 571.984 213.521 572.211 213.124C572.449 212.727 572.828 212.41 573.35 212.172C573.882 211.934 574.596 211.815 575.492 211.815H578.348V212.988H575.56C574.744 212.988 574.194 213.124 573.911 213.396C573.627 213.668 573.486 213.997 573.486 214.382C573.486 214.824 573.661 215.181 574.013 215.453C574.364 215.714 574.851 215.844 575.475 215.844C576.087 215.844 576.619 215.708 577.073 215.436C577.537 215.164 577.872 214.767 578.076 214.246L578.399 215.368C578.183 215.901 577.804 216.326 577.26 216.643C576.716 216.949 576.03 217.102 575.203 217.102ZM575.968 206.783C575.208 206.783 574.574 206.624 574.064 206.307C573.565 205.99 573.282 205.548 573.214 204.981H574.302C574.347 205.253 574.523 205.474 574.829 205.644C575.135 205.803 575.514 205.882 575.968 205.882C576.421 205.882 576.801 205.803 577.107 205.644C577.413 205.474 577.588 205.253 577.634 204.981H578.722C578.654 205.548 578.365 205.99 577.855 206.307C577.356 206.624 576.727 206.783 575.968 206.783ZM574.795 204.573L576.801 202.652H578.654L576.138 204.573H574.795ZM585.822 217.102C584.915 217.102 584.212 216.858 583.714 216.371C583.215 215.884 582.966 215.187 582.966 214.28V206.018H584.598V214.212C584.598 214.699 584.717 215.073 584.955 215.334C585.204 215.595 585.555 215.725 586.009 215.725C586.519 215.725 586.944 215.583 587.284 215.3L587.794 216.473C587.544 216.688 587.244 216.847 586.893 216.949C586.553 217.051 586.196 217.102 585.822 217.102ZM581.436 209.333V207.99H587.182V209.333H581.436ZM598.055 217.102C597.182 217.102 596.4 216.909 595.709 216.524C595.029 216.139 594.491 215.6 594.094 214.909C593.697 214.218 593.499 213.413 593.499 212.495C593.499 211.577 593.697 210.778 594.094 210.098C594.491 209.407 595.029 208.868 595.709 208.483C596.4 208.098 597.182 207.905 598.055 207.905C598.814 207.905 599.5 208.075 600.112 208.415C600.724 208.755 601.211 209.265 601.574 209.945C601.948 210.625 602.135 211.475 602.135 212.495C602.135 213.515 601.954 214.365 601.591 215.045C601.24 215.725 600.758 216.241 600.146 216.592C599.534 216.932 598.837 217.102 598.055 217.102ZM598.191 215.674C598.758 215.674 599.268 215.544 599.721 215.283C600.186 215.022 600.548 214.654 600.809 214.178C601.081 213.691 601.217 213.13 601.217 212.495C601.217 211.849 601.081 211.294 600.809 210.829C600.548 210.353 600.186 209.985 599.721 209.724C599.268 209.463 598.758 209.333 598.191 209.333C597.613 209.333 597.097 209.463 596.644 209.724C596.191 209.985 595.828 210.353 595.556 210.829C595.284 211.294 595.148 211.849 595.148 212.495C595.148 213.13 595.284 213.691 595.556 214.178C595.828 214.654 596.191 215.022 596.644 215.283C597.097 215.544 597.613 215.674 598.191 215.674ZM601.268 217V214.569L601.37 212.478L601.2 210.387V204.386H602.832V217H601.268ZM597.647 206.783V205.627H604.379V206.783H597.647ZM611.513 217V215.096L611.428 214.739V211.492C611.428 210.801 611.224 210.268 610.816 209.894C610.419 209.509 609.819 209.316 609.014 209.316C608.481 209.316 607.96 209.407 607.45 209.588C606.94 209.758 606.509 209.99 606.158 210.285L605.478 209.061C605.943 208.687 606.498 208.404 607.144 208.211C607.801 208.007 608.487 207.905 609.201 207.905C610.436 207.905 611.388 208.205 612.057 208.806C612.726 209.407 613.06 210.325 613.06 211.56V217H611.513ZM608.555 217.102C607.886 217.102 607.297 216.989 606.787 216.762C606.288 216.535 605.903 216.224 605.631 215.827C605.359 215.419 605.223 214.96 605.223 214.45C605.223 213.963 605.336 213.521 605.563 213.124C605.801 212.727 606.181 212.41 606.702 212.172C607.235 211.934 607.949 211.815 608.844 211.815H611.7V212.988H608.912C608.096 212.988 607.546 213.124 607.263 213.396C606.98 213.668 606.838 213.997 606.838 214.382C606.838 214.824 607.014 215.181 607.365 215.453C607.716 215.714 608.204 215.844 608.827 215.844C609.439 215.844 609.972 215.708 610.425 215.436C610.89 215.164 611.224 214.767 611.428 214.246L611.751 215.368C611.536 215.901 611.156 216.326 610.612 216.643C610.068 216.949 609.382 217.102 608.555 217.102ZM606.277 206.681L608.555 204.981H610.085L612.363 206.681H610.867L608.64 205.304H610L607.773 206.681H606.277ZM612.023 205.185L609.507 203.264H611.36L613.349 205.185H612.023ZM619.871 217.102C619.101 217.102 618.421 216.96 617.831 216.677C617.253 216.394 616.8 215.963 616.471 215.385C616.154 214.796 615.995 214.059 615.995 213.175V207.99H617.627V212.988C617.627 213.872 617.837 214.535 618.256 214.977C618.687 215.419 619.288 215.64 620.058 215.64C620.625 215.64 621.118 215.527 621.537 215.3C621.957 215.062 622.28 214.722 622.506 214.28C622.733 213.827 622.846 213.283 622.846 212.648V207.99H624.478V217H622.931V214.569L623.186 215.215C622.892 215.816 622.45 216.28 621.86 216.609C621.271 216.938 620.608 217.102 619.871 217.102ZM272.935 238.102C272.017 238.102 271.195 237.904 270.47 237.507C269.756 237.11 269.195 236.566 268.787 235.875C268.379 235.184 268.175 234.39 268.175 233.495C268.175 232.6 268.379 231.806 268.787 231.115C269.195 230.424 269.756 229.885 270.47 229.5C271.195 229.103 272.017 228.905 272.935 228.905C273.751 228.905 274.476 229.069 275.111 229.398C275.757 229.715 276.256 230.191 276.607 230.826L275.366 231.625C275.071 231.183 274.709 230.86 274.278 230.656C273.859 230.441 273.405 230.333 272.918 230.333C272.329 230.333 271.802 230.463 271.337 230.724C270.872 230.985 270.504 231.353 270.232 231.829C269.96 232.294 269.824 232.849 269.824 233.495C269.824 234.141 269.96 234.702 270.232 235.178C270.504 235.654 270.872 236.022 271.337 236.283C271.802 236.544 272.329 236.674 272.918 236.674C273.405 236.674 273.859 236.572 274.278 236.368C274.709 236.153 275.071 235.824 275.366 235.382L276.607 236.164C276.256 236.787 275.757 237.269 275.111 237.609C274.476 237.938 273.751 238.102 272.935 238.102ZM283.415 228.905C284.151 228.905 284.797 229.047 285.353 229.33C285.919 229.613 286.361 230.044 286.679 230.622C286.996 231.2 287.155 231.931 287.155 232.815V238H285.523V233.002C285.523 232.129 285.307 231.472 284.877 231.03C284.457 230.588 283.862 230.367 283.092 230.367C282.514 230.367 282.009 230.48 281.579 230.707C281.148 230.934 280.814 231.268 280.576 231.71C280.349 232.152 280.236 232.702 280.236 233.359V238H278.604V225.386H280.236V231.421L279.913 230.775C280.207 230.186 280.661 229.727 281.273 229.398C281.885 229.069 282.599 228.905 283.415 228.905ZM293.966 238.102C293.195 238.102 292.515 237.96 291.926 237.677C291.348 237.394 290.895 236.963 290.566 236.385C290.249 235.796 290.09 235.059 290.09 234.175V228.99H291.722V233.988C291.722 234.872 291.932 235.535 292.351 235.977C292.782 236.419 293.382 236.64 294.153 236.64C294.72 236.64 295.213 236.527 295.632 236.3C296.051 236.062 296.374 235.722 296.601 235.28C296.828 234.827 296.941 234.283 296.941 233.648V228.99H298.573V238H297.026V235.569L297.281 236.215C296.986 236.816 296.544 237.28 295.955 237.609C295.366 237.938 294.703 238.102 293.966 238.102ZM302.071 241.4C301.64 241.4 301.221 241.326 300.813 241.179C300.405 241.043 300.053 240.839 299.759 240.567L300.456 239.343C300.682 239.558 300.932 239.723 301.204 239.836C301.476 239.949 301.765 240.006 302.071 240.006C302.467 240.006 302.796 239.904 303.057 239.7C303.317 239.496 303.561 239.133 303.788 238.612L304.349 237.371L304.519 237.167L308.055 228.99H309.653L305.284 238.901C305.023 239.536 304.728 240.034 304.4 240.397C304.082 240.76 303.731 241.015 303.346 241.162C302.96 241.321 302.535 241.4 302.071 241.4ZM304.213 238.289L300.099 228.99H301.799L305.301 237.014L304.213 238.289ZM314.939 238.102C313.976 238.102 313.126 237.904 312.389 237.507C311.664 237.11 311.097 236.566 310.689 235.875C310.292 235.184 310.094 234.39 310.094 233.495C310.094 232.6 310.287 231.806 310.672 231.115C311.069 230.424 311.607 229.885 312.287 229.5C312.978 229.103 313.755 228.905 314.616 228.905C315.489 228.905 316.259 229.098 316.928 229.483C317.597 229.868 318.118 230.412 318.492 231.115C318.877 231.806 319.07 232.617 319.07 233.546C319.07 233.614 319.064 233.693 319.053 233.784C319.053 233.875 319.047 233.96 319.036 234.039H311.369V232.866H318.186L317.523 233.274C317.534 232.696 317.415 232.18 317.166 231.727C316.917 231.274 316.571 230.922 316.129 230.673C315.698 230.412 315.194 230.282 314.616 230.282C314.049 230.282 313.545 230.412 313.103 230.673C312.661 230.922 312.315 231.279 312.066 231.744C311.817 232.197 311.692 232.719 311.692 233.308V233.58C311.692 234.181 311.828 234.719 312.1 235.195C312.383 235.66 312.774 236.022 313.273 236.283C313.772 236.544 314.344 236.674 314.99 236.674C315.523 236.674 316.004 236.583 316.435 236.402C316.877 236.221 317.262 235.949 317.591 235.586L318.492 236.64C318.084 237.116 317.574 237.479 316.962 237.728C316.361 237.977 315.687 238.102 314.939 238.102ZM311.556 227.681L313.834 225.981H315.364L317.642 227.681H316.146L313.919 226.304H315.279L313.052 227.681H311.556ZM316.282 226.185L318.288 224.264H320.141L317.625 226.185H316.282ZM326.147 228.905C326.884 228.905 327.53 229.047 328.085 229.33C328.652 229.613 329.094 230.044 329.411 230.622C329.728 231.2 329.887 231.931 329.887 232.815V238H328.255V233.002C328.255 232.129 328.04 231.472 327.609 231.03C327.19 230.588 326.595 230.367 325.824 230.367C325.246 230.367 324.742 230.48 324.311 230.707C323.88 230.934 323.546 231.268 323.308 231.71C323.081 232.152 322.968 232.702 322.968 233.359V238H321.336V228.99H322.9V231.421L322.645 230.775C322.94 230.186 323.393 229.727 324.005 229.398C324.617 229.069 325.331 228.905 326.147 228.905ZM340.567 238.102C339.66 238.102 338.957 237.858 338.459 237.371C337.96 236.884 337.711 236.187 337.711 235.28V227.018H339.343V235.212C339.343 235.699 339.462 236.073 339.7 236.334C339.949 236.595 340.3 236.725 340.754 236.725C341.264 236.725 341.689 236.583 342.029 236.3L342.539 237.473C342.289 237.688 341.989 237.847 341.638 237.949C341.298 238.051 340.941 238.102 340.567 238.102ZM336.181 230.333V228.99H341.927V230.333H336.181ZM349.323 228.905C350.06 228.905 350.706 229.047 351.261 229.33C351.828 229.613 352.27 230.044 352.587 230.622C352.904 231.2 353.063 231.931 353.063 232.815V238H351.431V233.002C351.431 232.129 351.216 231.472 350.785 231.03C350.366 230.588 349.771 230.367 349 230.367C348.422 230.367 347.918 230.48 347.487 230.707C347.056 230.934 346.722 231.268 346.484 231.71C346.257 232.152 346.144 232.702 346.144 233.359V238H344.512V225.386H346.144V231.421L345.821 230.775C346.116 230.186 346.569 229.727 347.181 229.398C347.793 229.069 348.507 228.905 349.323 228.905ZM361.676 238V236.096L361.591 235.739V232.492C361.591 231.801 361.387 231.268 360.979 230.894C360.582 230.509 359.982 230.316 359.177 230.316C358.644 230.316 358.123 230.407 357.613 230.588C357.103 230.758 356.672 230.99 356.321 231.285L355.641 230.061C356.106 229.687 356.661 229.404 357.307 229.211C357.964 229.007 358.65 228.905 359.364 228.905C360.599 228.905 361.551 229.205 362.22 229.806C362.889 230.407 363.223 231.325 363.223 232.56V238H361.676ZM358.718 238.102C358.049 238.102 357.46 237.989 356.95 237.762C356.451 237.535 356.066 237.224 355.794 236.827C355.522 236.419 355.386 235.96 355.386 235.45C355.386 234.963 355.499 234.521 355.726 234.124C355.964 233.727 356.344 233.41 356.865 233.172C357.398 232.934 358.112 232.815 359.007 232.815H361.863V233.988H359.075C358.259 233.988 357.709 234.124 357.426 234.396C357.143 234.668 357.001 234.997 357.001 235.382C357.001 235.824 357.177 236.181 357.528 236.453C357.879 236.714 358.367 236.844 358.99 236.844C359.602 236.844 360.135 236.708 360.588 236.436C361.053 236.164 361.387 235.767 361.591 235.246L361.914 236.368C361.699 236.901 361.319 237.326 360.775 237.643C360.231 237.949 359.545 238.102 358.718 238.102ZM377.514 228.905C378.24 228.905 378.88 229.047 379.435 229.33C379.991 229.613 380.421 230.044 380.727 230.622C381.045 231.2 381.203 231.931 381.203 232.815V238H379.571V233.002C379.571 232.129 379.367 231.472 378.959 231.03C378.551 230.588 377.979 230.367 377.242 230.367C376.698 230.367 376.222 230.48 375.814 230.707C375.406 230.934 375.089 231.268 374.862 231.71C374.647 232.152 374.539 232.702 374.539 233.359V238H372.907V233.002C372.907 232.129 372.703 231.472 372.295 231.03C371.899 230.588 371.326 230.367 370.578 230.367C370.046 230.367 369.575 230.48 369.167 230.707C368.759 230.934 368.442 231.268 368.215 231.71C367.989 232.152 367.875 232.702 367.875 233.359V238H366.243V228.99H367.807V231.387L367.552 230.775C367.836 230.186 368.272 229.727 368.861 229.398C369.451 229.069 370.136 228.905 370.918 228.905C371.78 228.905 372.522 229.12 373.145 229.551C373.769 229.97 374.177 230.611 374.369 231.472L373.706 231.2C373.978 230.509 374.454 229.953 375.134 229.534C375.814 229.115 376.608 228.905 377.514 228.905ZM392.495 238.102C391.622 238.102 390.84 237.909 390.149 237.524C389.469 237.139 388.93 236.6 388.534 235.909C388.137 235.218 387.939 234.413 387.939 233.495C387.939 232.577 388.137 231.778 388.534 231.098C388.93 230.407 389.469 229.868 390.149 229.483C390.84 229.098 391.622 228.905 392.495 228.905C393.277 228.905 393.974 229.075 394.586 229.415C395.198 229.755 395.679 230.265 396.031 230.945C396.393 231.625 396.575 232.475 396.575 233.495C396.575 234.515 396.388 235.365 396.014 236.045C395.651 236.725 395.164 237.241 394.552 237.592C393.94 237.932 393.254 238.102 392.495 238.102ZM392.631 236.674C393.197 236.674 393.707 236.544 394.161 236.283C394.625 236.022 394.988 235.654 395.249 235.178C395.521 234.691 395.657 234.13 395.657 233.495C395.657 232.849 395.521 232.294 395.249 231.829C394.988 231.353 394.625 230.985 394.161 230.724C393.707 230.463 393.197 230.333 392.631 230.333C392.053 230.333 391.537 230.463 391.084 230.724C390.63 230.985 390.268 231.353 389.996 231.829C389.724 232.294 389.588 232.849 389.588 233.495C389.588 234.13 389.724 234.691 389.996 235.178C390.268 235.654 390.63 236.022 391.084 236.283C391.537 236.544 392.053 236.674 392.631 236.674ZM395.64 241.298V235.603L395.81 233.512L395.708 231.421V228.99H397.272V241.298H395.64ZM404.151 238.102C403.38 238.102 402.7 237.96 402.111 237.677C401.533 237.394 401.079 236.963 400.751 236.385C400.433 235.796 400.275 235.059 400.275 234.175V228.99H401.907V233.988C401.907 234.872 402.116 235.535 402.536 235.977C402.966 236.419 403.567 236.64 404.338 236.64C404.904 236.64 405.397 236.527 405.817 236.3C406.236 236.062 406.559 235.722 406.786 235.28C407.012 234.827 407.126 234.283 407.126 233.648V228.99H408.758V238H407.211V235.569L407.466 236.215C407.171 236.816 406.729 237.28 406.14 237.609C405.55 237.938 404.887 238.102 404.151 238.102ZM417.457 238V236.096L417.372 235.739V232.492C417.372 231.801 417.168 231.268 416.76 230.894C416.364 230.509 415.763 230.316 414.958 230.316C414.426 230.316 413.904 230.407 413.394 230.588C412.884 230.758 412.454 230.99 412.102 231.285L411.422 230.061C411.887 229.687 412.442 229.404 413.088 229.211C413.746 229.007 414.431 228.905 415.145 228.905C416.381 228.905 417.333 229.205 418.001 229.806C418.67 230.407 419.004 231.325 419.004 232.56V238H417.457ZM414.499 238.102C413.831 238.102 413.241 237.989 412.731 237.762C412.233 237.535 411.847 237.224 411.575 236.827C411.303 236.419 411.167 235.96 411.167 235.45C411.167 234.963 411.281 234.521 411.507 234.124C411.745 233.727 412.125 233.41 412.646 233.172C413.179 232.934 413.893 232.815 414.788 232.815H417.644V233.988H414.856C414.04 233.988 413.491 234.124 413.207 234.396C412.924 234.668 412.782 234.997 412.782 235.382C412.782 235.824 412.958 236.181 413.309 236.453C413.661 236.714 414.148 236.844 414.771 236.844C415.383 236.844 415.916 236.708 416.369 236.436C416.834 236.164 417.168 235.767 417.372 235.246L417.695 236.368C417.48 236.901 417.1 237.326 416.556 237.643C416.012 237.949 415.327 238.102 414.499 238.102ZM426.836 228.905C427.572 228.905 428.218 229.047 428.774 229.33C429.34 229.613 429.782 230.044 430.1 230.622C430.417 231.2 430.576 231.931 430.576 232.815V238H428.944V233.002C428.944 232.129 428.728 231.472 428.298 231.03C427.878 230.588 427.283 230.367 426.513 230.367C425.935 230.367 425.43 230.48 425 230.707C424.569 230.934 424.235 231.268 423.997 231.71C423.77 232.152 423.657 232.702 423.657 233.359V238H422.025V228.99H423.589V231.421L423.334 230.775C423.628 230.186 424.082 229.727 424.694 229.398C425.306 229.069 426.02 228.905 426.836 228.905ZM442.938 238.102C442.19 238.102 441.505 237.932 440.881 237.592C440.269 237.241 439.776 236.725 439.402 236.045C439.04 235.365 438.858 234.515 438.858 233.495C438.858 232.475 439.034 231.625 439.385 230.945C439.748 230.265 440.235 229.755 440.847 229.415C441.471 229.075 442.168 228.905 442.938 228.905C443.822 228.905 444.604 229.098 445.284 229.483C445.964 229.868 446.503 230.407 446.899 231.098C447.296 231.778 447.494 232.577 447.494 233.495C447.494 234.413 447.296 235.218 446.899 235.909C446.503 236.6 445.964 237.139 445.284 237.524C444.604 237.909 443.822 238.102 442.938 238.102ZM438.161 241.298V228.99H439.725V231.421L439.623 233.512L439.793 235.603V241.298H438.161ZM442.802 236.674C443.38 236.674 443.896 236.544 444.349 236.283C444.814 236.022 445.177 235.654 445.437 235.178C445.709 234.691 445.845 234.13 445.845 233.495C445.845 232.849 445.709 232.294 445.437 231.829C445.177 231.353 444.814 230.985 444.349 230.724C443.896 230.463 443.38 230.333 442.802 230.333C442.236 230.333 441.72 230.463 441.255 230.724C440.802 230.985 440.439 231.353 440.167 231.829C439.907 232.294 439.776 232.849 439.776 233.495C439.776 234.13 439.907 234.691 440.167 235.178C440.439 235.654 440.802 236.022 441.255 236.283C441.72 236.544 442.236 236.674 442.802 236.674ZM454.56 228.905C455.297 228.905 455.943 229.047 456.498 229.33C457.065 229.613 457.507 230.044 457.824 230.622C458.141 231.2 458.3 231.931 458.3 232.815V238H456.668V233.002C456.668 232.129 456.453 231.472 456.022 231.03C455.603 230.588 455.008 230.367 454.237 230.367C453.659 230.367 453.155 230.48 452.724 230.707C452.293 230.934 451.959 231.268 451.721 231.71C451.494 232.152 451.381 232.702 451.381 233.359V238H449.749V225.386H451.381V231.421L451.058 230.775C451.353 230.186 451.806 229.727 452.418 229.398C453.03 229.069 453.744 228.905 454.56 228.905ZM465.179 238.102C464.273 238.102 463.468 237.904 462.765 237.507C462.063 237.11 461.507 236.566 461.099 235.875C460.691 235.172 460.487 234.379 460.487 233.495C460.487 232.6 460.691 231.806 461.099 231.115C461.507 230.424 462.063 229.885 462.765 229.5C463.468 229.103 464.273 228.905 465.179 228.905C466.075 228.905 466.874 229.103 467.576 229.5C468.29 229.885 468.846 230.424 469.242 231.115C469.65 231.795 469.854 232.588 469.854 233.495C469.854 234.39 469.65 235.184 469.242 235.875C468.846 236.566 468.29 237.11 467.576 237.507C466.874 237.904 466.075 238.102 465.179 238.102ZM465.179 236.674C465.757 236.674 466.273 236.544 466.726 236.283C467.191 236.022 467.554 235.654 467.814 235.178C468.075 234.691 468.205 234.13 468.205 233.495C468.205 232.849 468.075 232.294 467.814 231.829C467.554 231.353 467.191 230.985 466.726 230.724C466.273 230.463 465.757 230.333 465.179 230.333C464.601 230.333 464.086 230.463 463.632 230.724C463.179 230.985 462.816 231.353 462.544 231.829C462.272 232.294 462.136 232.849 462.136 233.495C462.136 234.13 462.272 234.691 462.544 235.178C462.816 235.654 463.179 236.022 463.632 236.283C464.086 236.544 464.601 236.674 465.179 236.674ZM464.907 227.681L462.051 225.471H464.125L466.437 227.681H464.907ZM476.922 228.905C477.659 228.905 478.305 229.047 478.86 229.33C479.427 229.613 479.869 230.044 480.186 230.622C480.504 231.2 480.662 231.931 480.662 232.815V238H479.03V233.002C479.03 232.129 478.815 231.472 478.384 231.03C477.965 230.588 477.37 230.367 476.599 230.367C476.021 230.367 475.517 230.48 475.086 230.707C474.656 230.934 474.321 231.268 474.083 231.71C473.857 232.152 473.743 232.702 473.743 233.359V238H472.111V228.99H473.675V231.421L473.42 230.775C473.715 230.186 474.168 229.727 474.78 229.398C475.392 229.069 476.106 228.905 476.922 228.905ZM487.627 241.4C486.799 241.4 485.995 241.281 485.213 241.043C484.442 240.816 483.813 240.488 483.326 240.057L484.108 238.799C484.527 239.162 485.043 239.445 485.655 239.649C486.267 239.864 486.907 239.972 487.576 239.972C488.641 239.972 489.423 239.723 489.922 239.224C490.42 238.725 490.67 237.966 490.67 236.946V235.042L490.84 233.257L490.755 231.455V228.99H492.302V236.776C492.302 238.363 491.905 239.53 491.112 240.278C490.318 241.026 489.157 241.4 487.627 241.4ZM487.423 237.626C486.55 237.626 485.768 237.445 485.077 237.082C484.397 236.708 483.853 236.192 483.445 235.535C483.048 234.878 482.85 234.118 482.85 233.257C482.85 232.384 483.048 231.625 483.445 230.979C483.853 230.322 484.397 229.812 485.077 229.449C485.768 229.086 486.55 228.905 487.423 228.905C488.193 228.905 488.896 229.064 489.531 229.381C490.165 229.687 490.67 230.163 491.044 230.809C491.429 231.455 491.622 232.271 491.622 233.257C491.622 234.232 491.429 235.042 491.044 235.688C490.67 236.334 490.165 236.821 489.531 237.15C488.896 237.467 488.193 237.626 487.423 237.626ZM487.61 236.198C488.21 236.198 488.743 236.073 489.208 235.824C489.672 235.575 490.035 235.229 490.296 234.787C490.568 234.345 490.704 233.835 490.704 233.257C490.704 232.679 490.568 232.169 490.296 231.727C490.035 231.285 489.672 230.945 489.208 230.707C488.743 230.458 488.21 230.333 487.61 230.333C487.009 230.333 486.471 230.458 485.995 230.707C485.53 230.945 485.162 231.285 484.89 231.727C484.629 232.169 484.499 232.679 484.499 233.257C484.499 233.835 484.629 234.345 484.89 234.787C485.162 235.229 485.53 235.575 485.995 235.824C486.471 236.073 487.009 236.198 487.61 236.198ZM504.796 228.905C505.533 228.905 506.179 229.047 506.734 229.33C507.301 229.613 507.743 230.044 508.06 230.622C508.378 231.2 508.536 231.931 508.536 232.815V238H506.904V233.002C506.904 232.129 506.689 231.472 506.258 231.03C505.839 230.588 505.244 230.367 504.473 230.367C503.895 230.367 503.391 230.48 502.96 230.707C502.53 230.934 502.195 231.268 501.957 231.71C501.731 232.152 501.617 232.702 501.617 233.359V238H499.985V228.99H501.549V231.421L501.294 230.775C501.589 230.186 502.042 229.727 502.654 229.398C503.266 229.069 503.98 228.905 504.796 228.905ZM516.368 228.905C517.104 228.905 517.75 229.047 518.306 229.33C518.872 229.613 519.314 230.044 519.632 230.622C519.949 231.2 520.108 231.931 520.108 232.815V238H518.476V233.002C518.476 232.129 518.26 231.472 517.83 231.03C517.41 230.588 516.815 230.367 516.045 230.367C515.467 230.367 514.962 230.48 514.532 230.707C514.101 230.934 513.767 231.268 513.529 231.71C513.302 232.152 513.189 232.702 513.189 233.359V238H511.557V225.386H513.189V231.421L512.866 230.775C513.16 230.186 513.614 229.727 514.226 229.398C514.838 229.069 515.552 228.905 516.368 228.905ZM527.14 238.102C526.177 238.102 525.327 237.904 524.59 237.507C523.865 237.11 523.298 236.566 522.89 235.875C522.493 235.184 522.295 234.39 522.295 233.495C522.295 232.6 522.488 231.806 522.873 231.115C523.27 230.424 523.808 229.885 524.488 229.5C525.179 229.103 525.956 228.905 526.817 228.905C527.69 228.905 528.46 229.098 529.129 229.483C529.798 229.868 530.319 230.412 530.693 231.115C531.078 231.806 531.271 232.617 531.271 233.546C531.271 233.614 531.265 233.693 531.254 233.784C531.254 233.875 531.248 233.96 531.237 234.039H523.57V232.866H530.387L529.724 233.274C529.735 232.696 529.616 232.18 529.367 231.727C529.118 231.274 528.772 230.922 528.33 230.673C527.899 230.412 527.395 230.282 526.817 230.282C526.25 230.282 525.746 230.412 525.304 230.673C524.862 230.922 524.516 231.279 524.267 231.744C524.018 232.197 523.893 232.719 523.893 233.308V233.58C523.893 234.181 524.029 234.719 524.301 235.195C524.584 235.66 524.975 236.022 525.474 236.283C525.973 236.544 526.545 236.674 527.191 236.674C527.724 236.674 528.205 236.583 528.636 236.402C529.078 236.221 529.463 235.949 529.792 235.586L530.693 236.64C530.285 237.116 529.775 237.479 529.163 237.728C528.562 237.977 527.888 238.102 527.14 238.102ZM525.525 227.681L527.837 225.471H529.911L527.055 227.681H525.525ZM533.622 234.243L533.316 226.1H535.237L534.914 234.243H533.622ZM534.285 238.102C533.968 238.102 533.702 237.994 533.486 237.779C533.271 237.564 533.163 237.309 533.163 237.014C533.163 236.697 533.271 236.436 533.486 236.232C533.702 236.028 533.968 235.926 534.285 235.926C534.603 235.926 534.863 236.028 535.067 236.232C535.271 236.436 535.373 236.697 535.373 237.014C535.373 237.309 535.271 237.564 535.067 237.779C534.863 237.994 534.603 238.102 534.285 238.102Z" fill="#182D58"/>
</svg>
