<svg width="396" height="51" viewBox="0 0 396 51" fill="none" xmlns="http://www.w3.org/2000/svg">
<rect x="1" y="1" width="394" height="49" rx="22" fill="#91ADCF" stroke="white" stroke-width="2"/>
<rect x="66" y="12" width="311" height="28" rx="14" fill="white" fill-opacity="0.73"/>
<line x1="82" y1="17" x2="82" y2="34" stroke="#565656" stroke-width="2" stroke-linecap="round"/>
<path d="M48 15C52.4183 15 56 18.5817 56 23V26.1318C56 29.9689 53.2981 33.1731 49.6934 33.9502L49.9062 36.1494C50.0716 37.8576 48.1496 38.967 46.7529 37.9697L41.5908 34.2832C41.5245 34.2358 41.4627 34.1848 41.4043 34.1318H25C20.5817 34.1318 17 30.5501 17 26.1318V23C17 18.5817 20.5817 15 25 15H48ZM26.9336 21.623C25.5115 21.6233 24.3585 22.7761 24.3584 24.1982C24.3586 25.6204 25.5115 26.7742 26.9336 26.7744C28.3559 26.7744 29.5096 25.6205 29.5098 24.1982C29.5096 22.776 28.3559 21.623 26.9336 21.623ZM36.5 21.623C35.0777 21.6231 33.9249 22.776 33.9248 24.1982C33.925 25.6204 35.0778 26.7734 36.5 26.7734C37.9222 26.7734 39.075 25.6205 39.0752 24.1982C39.0751 22.776 37.9223 21.6231 36.5 21.623ZM45.3301 21.623C43.9079 21.6232 42.755 22.7761 42.7549 24.1982C42.7551 25.6204 43.9079 26.7733 45.3301 26.7734C46.7524 26.7734 47.9061 25.6205 47.9062 24.1982C47.9061 22.7759 46.7524 21.623 45.3301 21.623Z" fill="white"/>
<path d="M94.85 32.12C94.14 32.12 93.53 31.97 93.02 31.67C92.51 31.37 92.12 30.915 91.85 30.305C91.58 29.685 91.445 28.905 91.445 27.965C91.445 27.015 91.585 26.235 91.865 25.625C92.155 25.015 92.555 24.56 93.065 24.26C93.575 23.96 94.17 23.81 94.85 23.81C95.61 23.81 96.29 23.98 96.89 24.32C97.5 24.66 97.98 25.14 98.33 25.76C98.69 26.38 98.87 27.115 98.87 27.965C98.87 28.805 98.69 29.535 98.33 30.155C97.98 30.775 97.5 31.26 96.89 31.61C96.29 31.95 95.61 32.12 94.85 32.12ZM90.08 32V20.87H92.42V25.565L92.27 27.95L92.315 30.35V32H90.08ZM94.445 30.2C94.835 30.2 95.18 30.11 95.48 29.93C95.79 29.75 96.035 29.495 96.215 29.165C96.405 28.825 96.5 28.425 96.5 27.965C96.5 27.495 96.405 27.095 96.215 26.765C96.035 26.435 95.79 26.18 95.48 26C95.18 25.82 94.835 25.73 94.445 25.73C94.055 25.73 93.705 25.82 93.395 26C93.085 26.18 92.84 26.435 92.66 26.765C92.48 27.095 92.39 27.495 92.39 27.965C92.39 28.425 92.48 28.825 92.66 29.165C92.84 29.495 93.085 29.75 93.395 29.93C93.705 30.11 94.055 30.2 94.445 30.2ZM105.255 32V30.425L105.105 30.08V27.26C105.105 26.76 104.95 26.37 104.64 26.09C104.34 25.81 103.875 25.67 103.245 25.67C102.815 25.67 102.39 25.74 101.97 25.88C101.56 26.01 101.21 26.19 100.92 26.42L100.08 24.785C100.52 24.475 101.05 24.235 101.67 24.065C102.29 23.895 102.92 23.81 103.56 23.81C104.79 23.81 105.745 24.1 106.425 24.68C107.105 25.26 107.445 26.165 107.445 27.395V32H105.255ZM102.795 32.12C102.165 32.12 101.625 32.015 101.175 31.805C100.725 31.585 100.38 31.29 100.14 30.92C99.8996 30.55 99.7796 30.135 99.7796 29.675C99.7796 29.195 99.8946 28.775 100.125 28.415C100.365 28.055 100.74 27.775 101.25 27.575C101.76 27.365 102.425 27.26 103.245 27.26H105.39V28.625H103.5C102.95 28.625 102.57 28.715 102.36 28.895C102.16 29.075 102.06 29.3 102.06 29.57C102.06 29.87 102.175 30.11 102.405 30.29C102.645 30.46 102.97 30.545 103.38 30.545C103.77 30.545 104.12 30.455 104.43 30.275C104.74 30.085 104.965 29.81 105.105 29.45L105.465 30.53C105.295 31.05 104.985 31.445 104.535 31.715C104.085 31.985 103.505 32.12 102.795 32.12ZM103.62 35.15C103.33 35.15 103.085 35.06 102.885 34.88C102.685 34.7 102.585 34.455 102.585 34.145C102.585 33.835 102.685 33.58 102.885 33.38C103.085 33.19 103.33 33.095 103.62 33.095C103.91 33.095 104.155 33.19 104.355 33.38C104.555 33.58 104.655 33.835 104.655 34.145C104.655 34.455 104.555 34.7 104.355 34.88C104.155 35.06 103.91 35.15 103.62 35.15ZM114.467 23.81C115.107 23.81 115.677 23.94 116.177 24.2C116.687 24.45 117.087 24.84 117.377 25.37C117.667 25.89 117.812 26.56 117.812 27.38V32H115.472V27.74C115.472 27.09 115.327 26.61 115.037 26.3C114.757 25.99 114.357 25.835 113.837 25.835C113.467 25.835 113.132 25.915 112.832 26.075C112.542 26.225 112.312 26.46 112.142 26.78C111.982 27.1 111.902 27.51 111.902 28.01V32H109.562V23.93H111.797V26.165L111.377 25.49C111.667 24.95 112.082 24.535 112.622 24.245C113.162 23.955 113.777 23.81 114.467 23.81ZM127.482 32.12C126.532 32.12 125.792 31.88 125.262 31.4C124.732 30.91 124.467 30.185 124.467 29.225V22.145H126.807V29.195C126.807 29.535 126.897 29.8 127.077 29.99C127.257 30.17 127.502 30.26 127.812 30.26C128.182 30.26 128.497 30.16 128.757 29.96L129.387 31.61C129.147 31.78 128.857 31.91 128.517 32C128.187 32.08 127.842 32.12 127.482 32.12ZM123.222 25.91V24.11H128.817V25.91H123.222ZM135.605 23.81C136.245 23.81 136.815 23.94 137.315 24.2C137.825 24.45 138.225 24.84 138.515 25.37C138.805 25.89 138.95 26.56 138.95 27.38V32H136.61V27.74C136.61 27.09 136.465 26.61 136.175 26.3C135.895 25.99 135.495 25.835 134.975 25.835C134.605 25.835 134.27 25.915 133.97 26.075C133.68 26.225 133.45 26.46 133.28 26.78C133.12 27.1 133.04 27.51 133.04 28.01V32H130.7V20.87H133.04V26.165L132.515 25.49C132.805 24.95 133.22 24.535 133.76 24.245C134.3 23.955 134.915 23.81 135.605 23.81ZM146.021 32V30.425L145.871 30.08V27.26C145.871 26.76 145.716 26.37 145.406 26.09C145.106 25.81 144.641 25.67 144.011 25.67C143.581 25.67 143.156 25.74 142.736 25.88C142.326 26.01 141.976 26.19 141.686 26.42L140.846 24.785C141.286 24.475 141.816 24.235 142.436 24.065C143.056 23.895 143.686 23.81 144.326 23.81C145.556 23.81 146.511 24.1 147.191 24.68C147.871 25.26 148.211 26.165 148.211 27.395V32H146.021ZM143.561 32.12C142.931 32.12 142.391 32.015 141.941 31.805C141.491 31.585 141.146 31.29 140.906 30.92C140.666 30.55 140.546 30.135 140.546 29.675C140.546 29.195 140.661 28.775 140.891 28.415C141.131 28.055 141.506 27.775 142.016 27.575C142.526 27.365 143.191 27.26 144.011 27.26H146.156V28.625H144.266C143.716 28.625 143.336 28.715 143.126 28.895C142.926 29.075 142.826 29.3 142.826 29.57C142.826 29.87 142.941 30.11 143.171 30.29C143.411 30.46 143.736 30.545 144.146 30.545C144.536 30.545 144.886 30.455 145.196 30.275C145.506 30.085 145.731 29.81 145.871 29.45L146.231 30.53C146.061 31.05 145.751 31.445 145.301 31.715C144.851 31.985 144.271 32.12 143.561 32.12ZM141.551 22.895L143.546 21.185H145.586L147.581 22.895H145.856L143.831 21.545H145.301L143.276 22.895H141.551ZM146.366 21.455L148.031 19.64H150.416L148.061 21.455H146.366ZM151.203 35.03C150.783 35.03 150.368 34.965 149.958 34.835C149.548 34.705 149.213 34.525 148.953 34.295L149.808 32.63C149.988 32.79 150.193 32.915 150.423 33.005C150.663 33.095 150.898 33.14 151.128 33.14C151.458 33.14 151.718 33.06 151.908 32.9C152.108 32.75 152.288 32.495 152.448 32.135L152.868 31.145L153.048 30.89L155.943 23.93H158.193L154.548 32.495C154.288 33.145 153.988 33.655 153.648 34.025C153.318 34.395 152.948 34.655 152.538 34.805C152.138 34.955 151.693 35.03 151.203 35.03ZM152.583 32.315L148.983 23.93H151.398L154.188 30.68L152.583 32.315ZM166.11 32.12C165.42 32.12 164.755 32.04 164.115 31.88C163.485 31.71 162.985 31.5 162.615 31.25L163.395 29.57C163.765 29.8 164.2 29.99 164.7 30.14C165.21 30.28 165.71 30.35 166.2 30.35C166.74 30.35 167.12 30.285 167.34 30.155C167.57 30.025 167.685 29.845 167.685 29.615C167.685 29.425 167.595 29.285 167.415 29.195C167.245 29.095 167.015 29.02 166.725 28.97C166.435 28.92 166.115 28.87 165.765 28.82C165.425 28.77 165.08 28.705 164.73 28.625C164.38 28.535 164.06 28.405 163.77 28.235C163.48 28.065 163.245 27.835 163.065 27.545C162.895 27.255 162.81 26.88 162.81 26.42C162.81 25.91 162.955 25.46 163.245 25.07C163.545 24.68 163.975 24.375 164.535 24.155C165.095 23.925 165.765 23.81 166.545 23.81C167.095 23.81 167.655 23.87 168.225 23.99C168.795 24.11 169.27 24.285 169.65 24.515L168.87 26.18C168.48 25.95 168.085 25.795 167.685 25.715C167.295 25.625 166.915 25.58 166.545 25.58C166.025 25.58 165.645 25.65 165.405 25.79C165.165 25.93 165.045 26.11 165.045 26.33C165.045 26.53 165.13 26.68 165.3 26.78C165.48 26.88 165.715 26.96 166.005 27.02C166.295 27.08 166.61 27.135 166.95 27.185C167.3 27.225 167.65 27.29 168 27.38C168.35 27.47 168.665 27.6 168.945 27.77C169.235 27.93 169.47 28.155 169.65 28.445C169.83 28.725 169.92 29.095 169.92 29.555C169.92 30.055 169.77 30.5 169.47 30.89C169.17 31.27 168.735 31.57 168.165 31.79C167.605 32.01 166.92 32.12 166.11 32.12ZM176.314 32V30.425L176.164 30.08V27.26C176.164 26.76 176.009 26.37 175.699 26.09C175.399 25.81 174.934 25.67 174.304 25.67C173.874 25.67 173.449 25.74 173.029 25.88C172.619 26.01 172.269 26.19 171.979 26.42L171.139 24.785C171.579 24.475 172.109 24.235 172.729 24.065C173.349 23.895 173.979 23.81 174.619 23.81C175.849 23.81 176.804 24.1 177.484 24.68C178.164 25.26 178.504 26.165 178.504 27.395V32H176.314ZM173.854 32.12C173.224 32.12 172.684 32.015 172.234 31.805C171.784 31.585 171.439 31.29 171.199 30.92C170.959 30.55 170.839 30.135 170.839 29.675C170.839 29.195 170.954 28.775 171.184 28.415C171.424 28.055 171.799 27.775 172.309 27.575C172.819 27.365 173.484 27.26 174.304 27.26H176.449V28.625H174.559C174.009 28.625 173.629 28.715 173.419 28.895C173.219 29.075 173.119 29.3 173.119 29.57C173.119 29.87 173.234 30.11 173.464 30.29C173.704 30.46 174.029 30.545 174.439 30.545C174.829 30.545 175.179 30.455 175.489 30.275C175.799 30.085 176.024 29.81 176.164 29.45L176.524 30.53C176.354 31.05 176.044 31.445 175.594 31.715C175.144 31.985 174.564 32.12 173.854 32.12ZM184.521 32.12C183.661 32.12 182.896 31.94 182.226 31.58C181.566 31.22 181.041 30.73 180.651 30.11C180.271 29.48 180.081 28.765 180.081 27.965C180.081 27.155 180.271 26.44 180.651 25.82C181.041 25.19 181.566 24.7 182.226 24.35C182.896 23.99 183.661 23.81 184.521 23.81C185.371 23.81 186.131 23.99 186.801 24.35C187.471 24.7 187.996 25.185 188.376 25.805C188.756 26.425 188.946 27.145 188.946 27.965C188.946 28.765 188.756 29.48 188.376 30.11C187.996 30.73 187.471 31.22 186.801 31.58C186.131 31.94 185.371 32.12 184.521 32.12ZM184.521 30.2C184.911 30.2 185.261 30.11 185.571 29.93C185.881 29.75 186.126 29.495 186.306 29.165C186.486 28.825 186.576 28.425 186.576 27.965C186.576 27.495 186.486 27.095 186.306 26.765C186.126 26.435 185.881 26.18 185.571 26C185.261 25.82 184.911 25.73 184.521 25.73C184.131 25.73 183.781 25.82 183.471 26C183.161 26.18 182.911 26.435 182.721 26.765C182.541 27.095 182.451 27.495 182.451 27.965C182.451 28.425 182.541 28.825 182.721 29.165C182.911 29.495 183.161 29.75 183.471 29.93C183.781 30.11 184.131 30.2 184.521 30.2ZM192.04 28.355C192.04 28.005 192.095 27.695 192.205 27.425C192.325 27.155 192.47 26.915 192.64 26.705C192.82 26.495 193.01 26.3 193.21 26.12C193.41 25.94 193.595 25.77 193.765 25.61C193.945 25.44 194.09 25.265 194.2 25.085C194.32 24.905 194.38 24.705 194.38 24.485C194.38 24.125 194.23 23.835 193.93 23.615C193.64 23.395 193.25 23.285 192.76 23.285C192.29 23.285 191.87 23.385 191.5 23.585C191.13 23.775 190.825 24.045 190.585 24.395L188.77 23.33C189.17 22.72 189.725 22.235 190.435 21.875C191.145 21.505 192.005 21.32 193.015 21.32C193.765 21.32 194.425 21.43 194.995 21.65C195.565 21.86 196.01 22.17 196.33 22.58C196.66 22.99 196.825 23.495 196.825 24.095C196.825 24.485 196.765 24.83 196.645 25.13C196.525 25.43 196.37 25.69 196.18 25.91C195.99 26.13 195.785 26.335 195.565 26.525C195.355 26.715 195.155 26.9 194.965 27.08C194.775 27.26 194.615 27.45 194.485 27.65C194.365 27.85 194.305 28.085 194.305 28.355H192.04ZM193.18 32.12C192.76 32.12 192.415 31.985 192.145 31.715C191.875 31.445 191.74 31.125 191.74 30.755C191.74 30.375 191.875 30.06 192.145 29.81C192.415 29.55 192.76 29.42 193.18 29.42C193.61 29.42 193.955 29.55 194.215 29.81C194.485 30.06 194.62 30.375 194.62 30.755C194.62 31.125 194.485 31.445 194.215 31.715C193.955 31.985 193.61 32.12 193.18 32.12Z" fill="#828282"/>
</svg>
