<svg width="76" height="51" viewBox="0 0 76 51" fill="none" xmlns="http://www.w3.org/2000/svg">
<rect x="1" y="1" width="74" height="49" rx="22" fill="#91ADCF" stroke="white" stroke-width="2"/>
<path d="M50 15C54.4183 15 58 18.5817 58 23V26.1318C58 29.9689 55.2981 33.1731 51.6934 33.9502L51.9062 36.1494C52.0716 37.8576 50.1496 38.967 48.7529 37.9697L43.5908 34.2832C43.5245 34.2358 43.4627 34.1848 43.4043 34.1318H27C22.5817 34.1318 19 30.5501 19 26.1318V23C19 18.5817 22.5817 15 27 15H50ZM28.9336 21.623C27.5115 21.6233 26.3585 22.7761 26.3584 24.1982C26.3586 25.6204 27.5115 26.7742 28.9336 26.7744C30.3559 26.7744 31.5096 25.6205 31.5098 24.1982C31.5096 22.776 30.3559 21.623 28.9336 21.623ZM38.5 21.623C37.0777 21.6231 35.9249 22.776 35.9248 24.1982C35.925 25.6204 37.0778 26.7734 38.5 26.7734C39.9222 26.7734 41.075 25.6205 41.0752 24.1982C41.0751 22.776 39.9223 21.6231 38.5 21.623ZM47.3301 21.623C45.9079 21.6232 44.755 22.7761 44.7549 24.1982C44.7551 25.6204 45.9079 26.7733 47.3301 26.7734C48.7524 26.7734 49.9061 25.6205 49.9062 24.1982C49.9061 22.7759 48.7524 21.623 47.3301 21.623Z" fill="white"/>
</svg>
