<svg width="25" height="23" viewBox="0 0 25 23" fill="none" xmlns="http://www.w3.org/2000/svg">
<path d="M6.63867 14.2783C7.10713 13.8106 7.86677 13.8101 8.33496 14.2783C8.80304 14.7465 8.80269 15.5062 8.33496 15.9746L4.79199 19.5176H6.2373C7.06532 19.5178 7.73698 20.1896 7.7373 21.0176V21.1123C7.7373 21.9406 7.06552 22.6121 6.2373 22.6123H1.5C1.08596 22.6123 0.710843 22.4451 0.439453 22.1738C0.371543 22.1059 0.310782 22.031 0.256836 21.9512C0.0951006 21.7118 -1.35793e-08 21.423 0 21.1123V16.375C0.000407062 15.547 0.671941 14.8751 1.5 14.875H1.59473C2.42269 14.8752 3.09432 15.5471 3.09473 16.375V17.8232L6.63867 14.2783ZM12.3789 9.28516C13.2336 9.28516 13.9268 9.97836 13.9268 10.833C13.9267 11.6876 13.2335 12.3799 12.3789 12.3799C11.5244 12.3797 10.8321 11.6875 10.832 10.833C10.832 9.97846 11.5244 9.28532 12.3789 9.28516ZM22.6602 0C23.3845 0.000287507 23.9898 0.514248 24.1299 1.19727C24.1499 1.29486 24.1601 1.39651 24.1602 1.5V6.2373C24.1602 7.06551 23.4883 7.73694 22.6602 7.7373H22.5645C21.7362 7.73708 21.0645 7.06559 21.0645 6.2373V4.79004L17.5215 8.33398C17.0531 8.80239 16.2936 8.80239 15.8252 8.33398C15.3571 7.86556 15.3569 7.106 15.8252 6.6377L19.3682 3.09473H17.9229C17.0944 3.09473 16.4229 2.42315 16.4229 1.59473V1.5C16.4231 0.671776 17.0946 -3.62053e-08 17.9229 0H22.6602Z" fill="#76AAAB"/>
</svg>
