<svg width="26" height="26" viewBox="0 0 26 26" fill="none" xmlns="http://www.w3.org/2000/svg">
<circle cx="13" cy="13" r="13" fill="white" fill-opacity="0.65"/>
<path d="M9.28906 15.2266C9.59162 14.9241 10.083 14.9243 10.3857 15.2266C10.6884 15.5292 10.6884 16.0205 10.3857 16.3232L8.0957 18.6123H9C9.5519 18.6125 9.9996 19.0605 10 19.6123C10 20.1645 9.55214 20.6121 9 20.6123H6C5.44787 20.6121 5 20.1645 5 19.6123V16.6123C5.0004 16.0605 5.44812 15.6125 6 15.6123C6.5519 15.6125 6.9996 16.0605 7 16.6123V17.5166L9.28906 15.2266ZM13 12C13.5522 12 13.9998 12.4479 14 13C14 13.5523 13.5523 14 13 14C12.4477 14 12 13.5523 12 13C12.0002 12.4479 12.4478 12 13 12ZM19.7148 6.00488C20.2191 6.05598 20.6131 6.48232 20.6133 7V10C20.6133 10.5521 20.1653 10.9997 19.6133 11C19.0611 10.9999 18.6133 10.5522 18.6133 10V9.09473L16.3232 11.3857C16.0206 11.6884 15.5293 11.6884 15.2266 11.3857C14.9245 11.0832 14.9245 10.5926 15.2266 10.29L17.5166 8H16.6123C16.0603 7.99967 15.6123 7.55208 15.6123 7C15.6125 6.44792 16.0612 6.00006 16.6133 6H19.6133C19.6475 6.00002 19.6815 6.00151 19.7148 6.00488Z" fill="#1E4491"/>
</svg>
