<svg width="26" height="21" viewBox="0 0 26 21" fill="none" xmlns="http://www.w3.org/2000/svg">
<g clip-path="url(#clip0_24_25)">
<path d="M25.9983 1.1365e-06L25.9983 5.98854L18.3299 5.98854L18.3299 8.013e-07L25.9983 1.1365e-06ZM25.9983 7.50573L25.9983 13.4943L18.3299 13.4943L18.3299 7.50573L25.9983 7.50573ZM25.9983 15.0118L25.9983 21L18.3299 21L18.3299 15.0118L25.9983 15.0118ZM16.834 7.35911e-07L16.834 5.98854L9.16557 5.98854L9.16557 4.00714e-07L16.834 7.35911e-07ZM16.834 7.50573L16.834 13.4943L9.16557 13.4943L9.16557 7.50573L16.834 7.50573ZM16.834 15.0118L16.834 21L9.16557 21L9.16557 15.0118L16.834 15.0118ZM7.66779 3.35244e-07L7.66779 5.98854L-0.000228226 5.98854L-0.000227964 0L7.66779 3.35244e-07ZM7.66779 7.50573L7.66779 13.4943L-0.000228554 13.4943L-0.000228292 7.50573L7.66779 7.50573ZM7.66779 15.0118L7.66779 21L-0.000228882 21L-0.00022862 15.0118L7.66779 15.0118Z" fill="#76AAAB"/>
</g>
<defs>
<clipPath id="clip0_24_25">
<rect width="21" height="26" fill="white" transform="translate(26 1.1365e-06) rotate(90)"/>
</clipPath>
</defs>
</svg>
