<svg width="28" height="22" viewBox="0 0 28 22" fill="none" xmlns="http://www.w3.org/2000/svg">
<path d="M15.2461 15.2219L16.9825 16.9584C18.1956 15.7383 18.8803 14.193 18.9853 12.6427C19.0407 11.865 18.9391 11.0841 18.6866 10.3464C18.4258 9.59137 17.9967 8.90558 17.4317 8.34094L14.651 5.55909L12.7234 3.63132L10.6593 1.5681C10.0938 1.00366 9.40764 0.574756 8.65251 0.313625C7.54602 -0.0713319 6.34343 -0.0937421 5.19462 0.201574C3.99521 0.51638 2.90219 1.14719 2.02954 2.02825C0.808519 3.25035 0.11983 4.80113 0.0147592 6.35789C-0.0407904 7.13546 0.0608235 7.91624 0.31354 8.65368C0.57429 9.40936 1.003 10.0961 1.56742 10.6621L8.33979 17.435C8.9053 17.9983 9.59107 18.4261 10.3456 18.6865C11.4516 19.0709 12.6537 19.0938 13.8025 18.799C14.1935 18.6972 14.5745 18.5604 14.9408 18.3901L13.0132 16.4624C12.8368 16.5003 12.6579 16.5258 12.4779 16.5386C12.0294 16.5719 11.5787 16.5146 11.1528 16.3702C10.748 16.2307 10.3802 16.001 10.0772 15.6984L3.30483 8.92559C3.00198 8.62234 2.7721 8.25416 2.63257 7.84891C2.42094 7.24185 2.39455 6.5292 2.57929 5.81009C2.78535 5.03568 3.19511 4.33064 3.76595 3.76827C4.57415 2.95802 5.58104 2.52874 6.5217 2.46649C6.97012 2.43344 7.42061 2.49103 7.8463 2.63581C8.25158 2.77557 8.61999 3.00524 8.9239 3.30762L10.6812 5.06607L12.4186 6.80261L15.6953 10.0805C15.9982 10.3835 16.228 10.7518 16.367 11.1571C16.5787 11.7637 16.6051 12.4759 16.4203 13.1955C16.2155 13.9631 15.8103 14.6625 15.2461 15.2219Z" fill="#76AAAB"/>
<path d="M12.7539 6.77844L11.0165 5.04196C9.80452 6.26203 9.11983 7.80728 9.01476 9.35752C8.9592 10.1352 9.06081 10.9162 9.31354 11.6537C9.57441 12.4087 10.0033 13.0946 10.5679 13.6596L13.3484 16.4409L15.276 18.3686L17.3395 20.4318C17.9048 20.9965 18.591 21.4255 19.3463 21.6862C20.4527 22.0711 21.6543 22.094 22.8031 21.7982C24.0035 21.4835 25.0975 20.8526 25.971 19.9711C27.192 18.7496 27.8807 17.1978 27.9853 15.6421C28.0408 14.8644 27.9392 14.0835 27.6865 13.3459C27.4254 12.5911 26.9966 11.9055 26.4321 11.3405L19.66 4.56788C19.0945 4.00346 18.4083 3.57457 17.6532 3.31345C16.5468 2.9295 15.3447 2.90609 14.196 3.2004C13.805 3.30276 13.4241 3.43993 13.0576 3.61025L14.9852 5.53796C15.1621 5.50001 15.3415 5.47455 15.522 5.46176C15.9706 5.42884 16.4212 5.48642 16.8471 5.63108C17.2523 5.77035 17.6204 6.00009 17.9236 6.30286L24.6958 13.0755C24.9989 13.3786 25.229 13.7468 25.3685 14.1521C25.5797 14.7587 25.6065 15.4718 25.4208 16.1904C25.2155 16.9646 24.8064 17.6697 24.2362 18.2321C23.4265 19.0414 22.4196 19.4711 21.4805 19.5329C21.032 19.5663 20.5814 19.5091 20.1555 19.3646C19.7499 19.2253 19.3814 18.9956 19.0779 18.6928L17.3196 16.9344L15.5833 15.1979L12.3067 11.9202C12.0038 11.6171 11.774 11.2489 11.635 10.8435C11.4229 10.237 11.397 9.52484 11.5817 8.80525C11.7853 8.03744 12.1899 7.33781 12.7539 6.77844Z" fill="#76AAAB"/>
</svg>
