<svg width="40" height="40" viewBox="0 0 40 40" fill="none" xmlns="http://www.w3.org/2000/svg">
<circle cx="20" cy="20" r="20" fill="white" fill-opacity="0.75"/>
<path fill-rule="evenodd" clip-rule="evenodd" d="M12.7031 10.2033C13.1162 9.87882 13.7145 9.95042 14.0391 10.3634L28.2881 28.507C28.6126 28.9201 28.5411 29.5184 28.1279 29.8429C27.7148 30.1673 27.1165 30.0949 26.792 29.6818L14.248 13.7111V13.7101L12.543 11.5392C12.2185 11.126 12.29 10.5278 12.7031 10.2033ZM28.1934 10.4074C28.5266 10.303 28.8866 10.3385 29.1943 10.506C30.6497 11.2992 31.8716 12.5636 32.7266 14.1623C33.5643 15.729 34.0042 17.5338 33.999 19.38C33.9938 21.215 33.5489 23.0068 32.7119 24.5607C31.8687 26.1259 30.6712 27.3673 29.249 28.1574C29.1986 28.0657 29.1419 27.9757 29.0752 27.8908L27.6367 26.0587C27.7305 25.9602 27.8392 25.8756 27.96 25.8097C30.0231 24.6853 31.3622 22.158 31.3701 19.3722C31.3778 16.5653 30.0387 14.0188 27.96 12.8859C27.8078 12.8029 27.6732 12.6892 27.5635 12.5529C27.4538 12.4164 27.3708 12.2591 27.3203 12.09C27.2699 11.9209 27.2521 11.7426 27.2686 11.5665C27.2851 11.3906 27.336 11.2188 27.417 11.0626C27.5808 10.7475 27.8602 10.5118 28.1934 10.4074ZM19.7178 22.2941V25.2287C19.7176 27.1351 17.799 28.2523 16.4023 27.1593L11.2656 23.1388H8.0625C7.47566 23.1388 7.00014 22.6304 7 22.004V17.091C7.00021 16.4647 7.47592 15.9572 8.0625 15.9572H11.2969C11.3234 15.9572 11.3501 15.958 11.376 15.9601L13.46 14.3273L19.7178 22.2941ZM25.4268 13.257C25.5991 13.2671 25.7683 13.3119 25.9238 13.3888C27.03 13.9357 27.9605 14.8113 28.6143 15.9201C29.2604 17.0161 29.5995 18.28 29.5957 19.5744C29.5917 20.8609 29.2492 22.1162 28.6035 23.2033C28.1535 23.9609 27.5733 24.6089 26.8965 25.1164L25.2432 23.0119C26.2993 22.2738 26.9614 20.9761 26.9658 19.5656C26.9706 17.947 26.1136 16.4751 24.7812 15.8165C24.4672 15.6613 24.2254 15.3844 24.1104 15.047C23.9956 14.7098 24.0167 14.3394 24.168 14.0177C24.243 13.8584 24.3478 13.7146 24.4766 13.5968C24.6053 13.4791 24.7561 13.3885 24.9189 13.3302C25.0819 13.272 25.2545 13.2469 25.4268 13.257ZM22.7324 16.0206C22.9049 16.0265 23.0752 16.0668 23.2324 16.1398C24.6208 16.785 25.5151 18.2107 25.5098 19.7716C25.5067 20.6903 25.189 21.5604 24.6455 22.2511L22.8584 19.9757C22.8704 19.9057 22.8795 19.8345 22.8799 19.7628C22.8802 19.5167 22.8106 19.2755 22.6807 19.0685C22.5506 18.8615 22.3652 18.6965 22.1465 18.5949C21.9895 18.5219 21.8474 18.4182 21.7295 18.2892C21.6116 18.1601 21.5198 18.0075 21.459 17.8419C21.3983 17.6765 21.3694 17.5 21.375 17.3234C21.3807 17.1466 21.421 16.9718 21.4922 16.8107C21.5634 16.6498 21.6652 16.5047 21.791 16.3839C21.917 16.263 22.065 16.1679 22.2266 16.1056C22.388 16.0434 22.56 16.0149 22.7324 16.0206ZM16.5371 11.9279C17.9191 11.0044 19.7176 12.1106 19.7178 13.9562V15.9757L16.5371 11.9279Z" fill="#76AAAB"/>
</svg>
