<svg width="40" height="40" viewBox="0 0 40 40" fill="none" xmlns="http://www.w3.org/2000/svg">
<circle cx="20" cy="20" r="20" fill="white" fill-opacity="0.75"/>
<path d="M28.5 16.667H16.583V25.4414C17.28 25.3711 18.0052 25.333 18.75 25.333C24.1343 25.333 28.4992 27.2731 28.5 29.666C28.5 32.0592 24.1348 34 18.75 34L18.248 33.9941C13.0965 33.878 9 31.9844 9 29.666C9.00056 27.9648 11.2069 26.4931 14.417 25.7842V9C14.417 8.44772 14.8647 8 15.417 8H28.5V16.667ZM18.75 27.333C17.9934 27.333 17.2676 27.3755 16.583 27.4521V29.75C16.583 30.3023 16.1353 30.75 15.583 30.75H15.417C14.8647 30.75 14.417 30.3023 14.417 29.75V27.8398C13.7606 28.0063 13.1723 28.2056 12.668 28.4297C11.9387 28.7538 11.4719 29.0883 11.2148 29.3584C11.0533 29.5282 11.0118 29.6305 11.002 29.666C11.0113 29.7006 11.0519 29.8034 11.2148 29.9746C11.4719 30.2447 11.9387 30.5792 12.668 30.9033C14.1218 31.5494 16.2706 32 18.75 32C21.2294 32 23.3782 31.5494 24.832 30.9033C25.5613 30.5792 26.0281 30.2447 26.2852 29.9746C26.4477 29.8038 26.4876 29.7009 26.4971 29.666C26.4871 29.6303 26.4463 29.5278 26.2852 29.3584C26.0281 29.0883 25.5613 28.7538 24.832 28.4297C23.3782 27.7836 21.2294 27.333 18.75 27.333Z" fill="#76AAAB"/>
</svg>
