<svg width="28" height="28" viewBox="0 0 28 28" fill="none" xmlns="http://www.w3.org/2000/svg">
<path d="M27.0924 16.0696L26.4409 15.6417C25.237 14.8513 25.237 13.1487 26.4409 12.3583L27.0924 11.9305C28.8007 10.8089 27.9312 8.24461 25.8613 8.29945L25.0716 8.32038C23.6129 8.35906 22.568 6.9817 23.0578 5.66408L23.3226 4.95079C24.0167 3.08122 21.7404 1.49637 20.0995 2.70676L19.4736 3.1685C18.3171 4.02157 16.6275 3.49545 16.2151 2.15384L15.9918 1.4277C15.4067 -0.475901 12.5931 -0.475901 12.0079 1.4277L11.7846 2.15384C11.3723 3.49545 9.68264 4.02157 8.52613 3.1685L7.90023 2.70676C6.25922 1.49637 3.98311 3.08122 4.67722 4.95079L4.94201 5.66408C5.43124 6.9817 4.38688 8.35906 2.92815 8.32038L2.13836 8.29945C0.0684191 8.24461 -0.800946 10.8089 0.90738 11.9305L1.55883 12.3583C2.76273 13.1487 2.76273 14.8513 1.55883 15.6417L0.90738 16.0696C-0.800946 17.1912 0.0684191 19.7555 2.13836 19.7006L2.92815 19.6797C4.38688 19.641 5.43175 21.0184 4.94201 22.336L4.67722 23.0493C3.98311 24.9188 6.25922 26.5037 7.90023 25.2933L8.52613 24.8316C9.68264 23.9785 11.3723 24.5047 11.7846 25.8462L12.0079 26.5724C12.5931 28.476 15.4067 28.476 15.9918 26.5724L16.2151 25.8462C16.6275 24.5047 18.3171 23.9785 19.4736 24.8316L20.0995 25.2933C21.7404 26.5037 24.0167 24.9188 23.3226 23.0493L23.0578 22.336C22.5685 21.0184 23.6129 19.641 25.0716 19.6797L25.8613 19.7006C27.9312 19.7555 28.8007 17.1912 27.0924 16.0696ZM13.9996 21.1632C9.87143 21.1632 6.52491 17.956 6.52491 14.0001C6.52491 10.0442 9.87156 6.83689 13.9996 6.83689C18.1276 6.83689 21.4744 10.044 21.4744 14.0001C21.4744 17.9561 18.128 21.1632 13.9997 21.1632H13.9996Z" fill="#76AAAB"/>
</svg>
