<svg width="40" height="40" viewBox="0 0 40 40" fill="none" xmlns="http://www.w3.org/2000/svg">
<circle cx="20" cy="20" r="20" fill="white" fill-opacity="0.75"/>
<g clip-path="url(#clip0_253_497)">
<path d="M15.4021 12.6783L10.3755 16.6128C10.3497 16.6107 10.3235 16.6097 10.297 16.6097H7.0623C6.47559 16.6097 5.99976 17.1176 5.99976 17.744V22.6574C5.99976 23.2839 6.47538 23.7916 7.0623 23.7916H10.2653L15.4021 27.8125C16.7989 28.9058 18.718 27.7883 18.718 25.8817V14.609C18.718 12.7025 16.7989 11.5851 15.4021 12.6783Z" fill="#76AAAB"/>
<path d="M21.6904 24.1509C21.4375 24.151 21.1899 24.0764 20.9773 23.936C20.7648 23.7956 20.5962 23.5953 20.4918 23.3592C20.4205 23.198 20.3809 23.0239 20.3752 22.847C20.3695 22.6701 20.3979 22.4938 20.4587 22.3281C20.5195 22.1624 20.6116 22.0107 20.7296 21.8815C20.8476 21.7522 20.9893 21.6481 21.1466 21.575C21.3641 21.4738 21.5488 21.3108 21.6787 21.1053C21.8086 20.8998 21.8784 20.6605 21.8798 20.4157C21.8802 20.1693 21.8112 19.9281 21.6811 19.721C21.5511 19.5139 21.3655 19.3496 21.1466 19.2479C20.9893 19.1748 20.8476 19.0707 20.7296 18.9415C20.6116 18.8123 20.5195 18.6605 20.4587 18.4948C20.3979 18.3291 20.3695 18.1528 20.3752 17.9759C20.3809 17.799 20.4205 17.625 20.4918 17.4637C20.5631 17.3025 20.6647 17.1573 20.7908 17.0363C20.9168 16.9153 21.0649 16.821 21.2266 16.7587C21.3882 16.6963 21.5602 16.6673 21.7328 16.6731C21.9054 16.6789 22.0752 16.7195 22.2325 16.7926C23.6212 17.4379 24.5154 18.8635 24.5098 20.4247C24.5048 21.9746 23.6109 23.39 22.2325 24.0302C22.0623 24.1096 21.8774 24.1508 21.6904 24.1509Z" fill="#76AAAB"/>
<path d="M24.3535 26.5017C24.1059 26.5019 23.8633 26.4304 23.6536 26.2955C23.4439 26.1605 23.2756 25.9677 23.1681 25.7391C23.0166 25.4171 22.996 25.0467 23.1109 24.7092C23.2258 24.3717 23.4668 24.0949 23.7809 23.9395C25.1032 23.2859 25.9607 21.8254 25.9656 20.2186C25.9706 18.5998 25.1135 17.1284 23.7809 16.4699C23.4667 16.3146 23.2257 16.0377 23.1107 15.7003C22.9957 15.3628 23.0162 14.9923 23.1677 14.6703C23.2427 14.5108 23.3477 14.3681 23.4765 14.2502C23.6054 14.1323 23.7557 14.0416 23.9187 13.9833C24.0818 13.9249 24.2545 13.9001 24.427 13.9101C24.5994 13.9202 24.7683 13.965 24.9238 14.042C26.0301 14.5889 26.9604 15.4641 27.6143 16.5731C28.2605 17.6692 28.6 18.9328 28.5961 20.2273C28.5921 21.514 28.2489 22.7687 27.6031 23.8559C26.9499 24.9558 26.0234 25.8243 24.9237 26.3683C24.7459 26.4563 24.5509 26.5019 24.3535 26.5017Z" fill="#76AAAB"/>
<path d="M27.5787 28.9999C27.3398 29.0001 27.1054 28.9336 26.9007 28.8076C26.6959 28.6816 26.5285 28.5008 26.4164 28.2846C26.2528 27.969 26.2182 27.5998 26.3202 27.2581C26.4222 26.9163 26.6524 26.6301 26.9602 26.4623C29.0235 25.3378 30.3618 22.811 30.3696 20.0249C30.3774 17.2178 29.0391 14.6719 26.9602 13.539C26.8077 13.4559 26.6727 13.3428 26.5628 13.2062C26.4529 13.0697 26.3704 12.9122 26.3199 12.743C26.2694 12.5737 26.252 12.3959 26.2685 12.2197C26.2851 12.0435 26.3353 11.8723 26.4164 11.716C26.5801 11.4006 26.8594 11.1646 27.1928 11.0601C27.5262 10.9556 27.8864 10.9911 28.1943 11.1588C29.6498 11.952 30.8711 13.2164 31.7261 14.8151C32.564 16.382 33.0043 18.1862 32.999 20.0327C32.9939 21.8679 32.5486 23.6595 31.7114 25.2136C30.8572 26.7994 29.641 28.0543 28.1942 28.8427C28.0047 28.9461 27.7933 29.0001 27.5787 28.9999Z" fill="#76AAAB"/>
</g>
<defs>
<clipPath id="clip0_253_497">
<rect width="27" height="18" fill="white" transform="translate(6 11)"/>
</clipPath>
</defs>
</svg>
