<svg width="27" height="18" viewBox="0 0 27 18" fill="none" xmlns="http://www.w3.org/2000/svg">
<g clip-path="url(#clip0_24_19)">
<path d="M9.40212 1.67835L4.37555 5.61281C4.34967 5.61073 4.32347 5.60969 4.29696 5.60969H1.0623C0.475587 5.60969 -0.000244141 6.11756 -0.000244141 6.74405V11.6574C-0.000244141 12.2839 0.475376 12.7916 1.0623 12.7916H4.26529L9.40212 16.8125C10.7989 17.9058 12.718 16.7883 12.718 14.8817V3.60903C12.718 1.7025 10.7989 0.585072 9.40212 1.67835Z" fill="#76AAAB"/>
<path d="M15.6904 13.1509C15.4375 13.151 15.1899 13.0764 14.9773 12.936C14.7648 12.7956 14.5962 12.5953 14.4918 12.3592C14.4205 12.198 14.3809 12.0239 14.3752 11.847C14.3695 11.6701 14.3979 11.4938 14.4587 11.3281C14.5195 11.1624 14.6116 11.0107 14.7296 10.8815C14.8476 10.7522 14.9893 10.6481 15.1466 10.575C15.3641 10.4738 15.5488 10.3108 15.6787 10.1053C15.8086 9.89984 15.8784 9.66052 15.8798 9.41567C15.8802 9.16935 15.8112 8.92815 15.6811 8.721C15.5511 8.51386 15.3655 8.34959 15.1466 8.24788C14.9893 8.1748 14.8476 8.07068 14.7296 7.94147C14.6116 7.81226 14.5195 7.66048 14.4587 7.49481C14.3979 7.32914 14.3695 7.15281 14.3752 6.9759C14.3809 6.79899 14.4205 6.62496 14.4918 6.46374C14.5631 6.30253 14.6647 6.15728 14.7908 6.03631C14.9168 5.91533 15.0649 5.82099 15.2266 5.75867C15.3882 5.69635 15.5602 5.66727 15.7328 5.67309C15.9054 5.67892 16.0752 5.71953 16.2325 5.79262C17.6212 6.43786 18.5154 7.86347 18.5098 9.42473C18.5048 10.9746 17.6109 12.39 16.2325 13.0302C16.0623 13.1096 15.8774 13.1508 15.6904 13.1509Z" fill="#76AAAB"/>
<path d="M18.3535 15.5017C18.1059 15.5019 17.8633 15.4304 17.6536 15.2955C17.4439 15.1605 17.2756 14.9677 17.1681 14.7391C17.0166 14.4171 16.996 14.0467 17.1109 13.7092C17.2258 13.3717 17.4668 13.0949 17.7809 12.9395C19.1032 12.2859 19.9607 10.8254 19.9656 9.21864C19.9706 7.59981 19.1135 6.12837 17.7809 5.46986C17.4667 5.31457 17.2257 5.03774 17.1107 4.70026C16.9957 4.36277 17.0162 3.99229 17.1677 3.6703C17.2427 3.51084 17.3477 3.36808 17.4765 3.2502C17.6054 3.13232 17.7557 3.04161 17.9187 2.98326C18.0818 2.92491 18.2545 2.90007 18.427 2.91014C18.5994 2.92022 18.7683 2.96502 18.9238 3.04198C20.0301 3.58889 20.9604 4.46414 21.6143 5.57305C22.2605 6.66924 22.6 7.93278 22.5961 9.22727C22.5921 10.514 22.2489 11.7687 21.6031 12.8559C20.9499 13.9558 20.0234 14.8243 18.9237 15.3683C18.7459 15.4563 18.5509 15.5019 18.3535 15.5017Z" fill="#76AAAB"/>
<path d="M21.5787 17.9999C21.3398 18.0001 21.1054 17.9336 20.9007 17.8076C20.6959 17.6816 20.5285 17.5008 20.4164 17.2846C20.2528 16.969 20.2182 16.5998 20.3202 16.2581C20.4222 15.9163 20.6524 15.6301 20.9602 15.4623C23.0235 14.3378 24.3618 11.811 24.3696 9.0249C24.3774 6.21779 23.0391 3.67195 20.9602 2.53899C20.8077 2.45589 20.6727 2.34283 20.5628 2.20624C20.4529 2.06966 20.3704 1.91223 20.3199 1.74295C20.2694 1.57367 20.252 1.39586 20.2685 1.21966C20.2851 1.04346 20.3353 0.872322 20.4164 0.71603C20.5801 0.400556 20.8594 0.16464 21.1928 0.0601424C21.5262 -0.0443548 21.8864 -0.00887928 22.1943 0.15877C23.6498 0.95196 24.8711 2.21636 25.7261 3.81514C26.564 5.38201 27.0043 7.1862 26.999 9.03266C26.9939 10.8679 26.5486 12.6595 25.7114 14.2136C24.8572 15.7994 23.641 17.0543 22.1942 17.8427C22.0047 17.9461 21.7933 18.0001 21.5787 17.9999Z" fill="#76AAAB"/>
</g>
<defs>
<clipPath id="clip0_24_19">
<rect width="27" height="18" fill="white"/>
</clipPath>
</defs>
</svg>
