<svg width="208" height="54" viewBox="0 0 208 54" fill="none" xmlns="http://www.w3.org/2000/svg">
<g filter="url(#filter0_d_114_13)">
<rect x="8" y="6" width="198" height="38" rx="19" fill="#122F6A" fill-opacity="0.74" shape-rendering="crispEdges"/>
</g>
<path d="M59.452 28C59.792 28 60.152 27.78 60.372 27.56V29.68C60.132 29.86 59.592 30.2 58.612 30.2C56.852 30.2 56.312 29.2 56.312 28.24V27.88C55.912 29.06 54.652 30.2 52.632 30.2C51.112 30.2 49.992 29.52 49.992 27.88C50.012 25.48 52.352 24.8 56.172 23.92V23.74C56.172 23 55.532 22.4 54.252 22.4C52.512 22.4 51.292 23.22 50.572 24.24V21.84C51.072 21.08 52.292 20.22 54.492 20.22C56.612 20.22 58.852 21.1 58.852 23.86V27.08C58.852 27.42 58.912 28 59.452 28ZM53.792 28.24C55.172 28.24 56.172 27.1 56.172 25.8V25.42C53.972 25.94 52.712 26.34 52.712 27.3C52.712 27.9 53.032 28.24 53.792 28.24ZM61.8005 26.52V20.5H64.4805V25.54C64.4805 26.68 64.6805 27.96 66.3205 27.96C67.5805 27.96 68.4205 26.82 68.4205 25.36V20.5H71.0805V30H68.5005V27.92C68.0805 29.3 67.0205 30.28 65.3005 30.28C63.1805 30.28 61.8005 28.98 61.8005 26.52ZM78.256 30.28C74.636 30.28 74.636 27.46 74.636 26.4V22.62H72.816V20.5H74.636V17.56H77.316V20.5H81.276V22.62H77.316V26.4C77.316 27 77.396 28.1 78.936 28.1C80.096 28.1 80.716 27.42 81.336 26.56V29.02C80.976 29.52 80.076 30.28 78.256 30.28ZM87.9668 30.26C84.8268 30.26 82.7468 28.36 82.7468 25.22C82.7468 22.06 84.8268 20.22 87.9668 20.22C91.1068 20.22 93.1868 22.06 93.1868 25.22C93.1868 28.36 91.1068 30.26 87.9668 30.26ZM87.9668 28.04C89.4668 28.04 90.4468 26.92 90.4468 25.22C90.4468 23.54 89.4668 22.42 87.9668 22.42C86.4668 22.42 85.4868 23.54 85.4868 25.22C85.4868 26.92 86.4668 28.04 87.9668 28.04ZM99.319 30.26C96.999 30.26 95.739 29.58 95.059 28.94V26.38C96.079 27.64 97.639 28.1 99.259 28.1C100.879 28.1 101.619 27.72 101.619 26.9C101.619 26.42 101.339 26.04 100.579 26.04C99.699 26.04 99.059 26.48 97.699 26.48C95.459 26.48 94.759 24.96 94.759 23.54C94.759 21.24 96.639 20.22 99.479 20.2C101.859 20.2 102.999 20.9 103.439 21.38V23.64C102.899 23.04 101.779 22.34 99.799 22.34C98.019 22.34 97.259 22.78 97.259 23.48C97.259 24 97.579 24.42 98.239 24.42C99.199 24.42 100.199 23.94 101.319 23.94C103.419 23.94 104.159 25.44 104.159 26.88C104.159 28.96 102.639 30.26 99.319 30.26ZM115.057 28C115.397 28 115.757 27.78 115.977 27.56V29.68C115.737 29.86 115.197 30.2 114.217 30.2C112.457 30.2 111.917 29.2 111.917 28.24V27.88C111.517 29.06 110.257 30.2 108.237 30.2C106.717 30.2 105.597 29.52 105.597 27.88C105.617 25.48 107.957 24.8 111.777 23.92V23.74C111.777 23 111.137 22.4 109.857 22.4C108.117 22.4 106.897 23.22 106.177 24.24V21.84C106.677 21.08 107.897 20.22 110.097 20.22C112.217 20.22 114.457 21.1 114.457 23.86V27.08C114.457 27.42 114.517 28 115.057 28ZM109.397 28.24C110.777 28.24 111.777 27.1 111.777 25.8V25.42C109.577 25.94 108.317 26.34 108.317 27.3C108.317 27.9 108.637 28.24 109.397 28.24ZM123.375 30H119.415L116.055 20.5H118.875L121.375 28.14L123.835 20.5H126.635L123.375 30ZM132.692 30.26C129.492 30.26 127.532 28.62 127.532 25.24C127.532 22.06 129.352 20.22 132.412 20.22C135.312 20.22 136.952 22.1 136.952 25.26C136.952 25.56 136.932 25.84 136.932 26H130.272C130.352 27.44 131.372 28.12 133.072 28.12C134.732 28.12 136.012 27.46 136.632 26.74V29.1C135.992 29.72 134.632 30.26 132.692 30.26ZM130.332 24.4H134.452C134.452 23.12 133.752 22.3 132.492 22.3C131.112 22.3 130.332 23.16 130.332 24.4Z" fill="white"/>
<path fill-rule="evenodd" clip-rule="evenodd" d="M39.5 25.8574C40.3282 25.8576 41 26.5291 41 27.3574C41 27.4297 40.9933 27.5007 40.9834 27.5703C40.9936 27.6408 41 27.7128 41 27.7861V32.5C41 33.3284 40.3284 34 39.5 34C38.6716 34 38 33.3284 38 32.5V31.5928C36.2277 33.0873 33.9256 33.8289 31.7031 33.8887L31.4102 33.8926C28.3011 33.8924 25.0191 32.5479 23.3975 29.5752C23.0013 28.8482 23.2685 27.9368 23.9951 27.54C24.7222 27.1434 25.6335 27.4118 26.0303 28.1387C26.98 29.8798 29.0554 30.8924 31.4102 30.8926C33.3852 30.8926 35.2837 30.1724 36.5293 28.8574H34.7861C33.9578 28.8574 33.2863 28.1857 33.2861 27.3574C33.2861 26.529 33.9577 25.8574 34.7861 25.8574H39.5ZM24.5 16C25.3284 16 26 16.6716 26 17.5V18.5127C27.4469 17.2756 29.2999 16.5379 31.1553 16.292L31.4463 16.2578C34.4608 15.9405 37.7901 16.8578 39.9229 19.3975C40.4556 20.0318 40.3736 20.979 39.7393 21.5117C39.1447 22.0108 38.2757 21.9688 37.7305 21.4395L37.626 21.3262C36.2341 19.6688 33.8773 18.9582 31.5498 19.2666C29.948 19.4789 28.5397 20.1465 27.583 21.1426H29.2139C30.0422 21.1426 30.7137 21.8143 30.7139 22.6426C30.7139 23.471 30.0423 24.1426 29.2139 24.1426H24.5C23.6718 24.1424 23 23.4709 23 22.6426C23 22.5703 23.0067 22.4993 23.0166 22.4297C23.0064 22.3592 23 22.2872 23 22.2139V17.5C23 16.6716 23.6716 16 24.5 16Z" fill="white"/>
<defs>
<filter id="filter0_d_114_13" x="0" y="6" width="208" height="48" filterUnits="userSpaceOnUse" color-interpolation-filters="sRGB">
<feFlood flood-opacity="0" result="BackgroundImageFix"/>
<feColorMatrix in="SourceAlpha" type="matrix" values="0 0 0 0 0 0 0 0 0 0 0 0 0 0 0 0 0 0 127 0" result="hardAlpha"/>
<feMorphology radius="1" operator="dilate" in="SourceAlpha" result="effect1_dropShadow_114_13"/>
<feOffset dx="-3" dy="5"/>
<feGaussianBlur stdDeviation="2"/>
<feComposite in2="hardAlpha" operator="out"/>
<feColorMatrix type="matrix" values="0 0 0 0 0 0 0 0 0 0 0 0 0 0 0 0 0 0 0.25 0"/>
<feBlend mode="normal" in2="BackgroundImageFix" result="effect1_dropShadow_114_13"/>
<feBlend mode="normal" in="SourceGraphic" in2="effect1_dropShadow_114_13" result="shape"/>
</filter>
</defs>
</svg>
