<svg width="19" height="23" viewBox="0 0 19 23" fill="none" xmlns="http://www.w3.org/2000/svg">
<path d="M16.3877 22.0273H1.82129L0 4.58887H18.208L16.3877 22.0273ZM4.79004 6.48047C4.26209 6.5118 3.86082 6.96535 3.89453 7.49316L4.5957 18.4062C4.62979 18.934 5.08531 19.3365 5.61328 19.3057C6.14152 19.2745 6.5427 18.821 6.50879 18.293L5.80762 7.38086C5.77368 6.85293 5.31811 6.4496 4.79004 6.48047ZM14.2383 6.48047C13.7103 6.44976 13.2546 6.853 13.2207 7.38086L12.5195 18.293C12.4856 18.8209 12.887 19.2743 13.415 19.3057C13.9432 19.3367 14.3985 18.9342 14.4326 18.4062L15.1338 7.49316C15.1675 6.96519 14.7665 6.51158 14.2383 6.48047ZM9.58398 6.4248C9.05494 6.42504 8.62506 6.85373 8.625 7.38281V18.3154C8.62504 18.8445 9.05493 19.2732 9.58398 19.2734C10.113 19.2732 10.542 18.8445 10.542 18.3154V7.38281C10.5419 6.85375 10.113 6.42507 9.58398 6.4248ZM16.3877 0L18.209 2.75293H0L1.82129 0H16.3877Z" fill="#ABABAB"/>
</svg>
