<svg width="115" height="43" viewBox="0 0 115 43" fill="none" xmlns="http://www.w3.org/2000/svg">
<rect width="115" height="43" rx="21.5" fill="url(#paint0_radial_114_10)"/>
<path d="M30.9774 28H25.5174V14.48H30.3974C35.6974 14.48 37.5974 17.64 37.5974 21.3C37.5974 25.2 35.2974 28 30.9774 28ZM28.2374 25.56H30.4774C31.7574 25.56 34.7574 25.26 34.7574 21.26C34.7574 17.42 32.1574 16.92 30.3774 16.92H28.2374V25.56ZM47.7068 22.82L51.5268 28H48.1668L44.6668 23.02H42.8468V28H40.1268V14.48H46.2468C49.1868 14.48 51.1268 16.12 51.1268 18.74C51.1268 21.26 49.7268 22.42 47.7068 22.82ZM45.6268 16.92H42.8468V20.64H45.5868C46.9468 20.64 48.3068 20.4 48.3068 18.74C48.3068 17.1 46.9868 16.92 45.6268 16.92ZM55.2391 28H52.3591L56.9991 14.48H61.2191L66.0991 28H63.1991L62.1991 24.94H56.2391L55.2391 28ZM59.1391 16.1L57.0191 22.54H61.3191L59.1391 16.1ZM70.6007 28H67.8807V14.48H78.1407V16.92H70.6007V20.16H77.4407V22.6H70.6007V28ZM86.3774 28H83.6174L83.6374 16.92H79.1974V14.48H90.7974V16.92H86.3774V28Z" fill="white"/>
<defs>
<radialGradient id="paint0_radial_114_10" cx="0" cy="0" r="1" gradientTransform="matrix(-62.5 -2.38889 3 -49.7685 57.5 21.5)" gradientUnits="userSpaceOnUse">
<stop offset="0.257392" stop-color="#FFAD29"/>
<stop offset="1" stop-color="#999999" stop-opacity="0"/>
</radialGradient>
</defs>
</svg>
