<svg width="40" height="40" viewBox="0 0 40 40" fill="none" xmlns="http://www.w3.org/2000/svg">
<circle cx="20" cy="20" r="20" fill="white" fill-opacity="0.75"/>
<path d="M15.1383 15.9334H13.3246C12.9733 15.9334 12.6364 15.7831 12.388 15.5155C12.1396 15.2479 12 14.885 12 14.5065V13.1378C12 12.8404 12.0863 12.5505 12.2468 12.3085L14.0439 9.59757C14.1664 9.41275 14.3282 9.26211 14.5157 9.15817C14.7032 9.05424 14.911 9.00001 15.1218 9H24.5558C24.7666 9.00001 24.9744 9.05424 25.1619 9.15817C25.3494 9.26211 25.5111 9.41275 25.6337 9.59757L25.7533 9.77797C25.9137 10.02 25.9999 10.3099 26 10.6073V15.1356C26 15.4196 25.9213 15.6972 25.774 15.9328L22.2608 21.5511C22.1136 21.7867 22.0349 22.0642 22.0348 22.3483V24.2642C22.0348 24.6426 21.8953 25.0055 21.6468 25.2731C21.3984 25.5407 21.0615 25.6911 20.7102 25.6911H18.6318C18.2805 25.6911 17.9436 25.5407 17.6952 25.2731C17.4468 25.0055 17.3072 24.6426 17.3072 24.2642V22.3259C17.3072 22.056 17.3782 21.7918 17.512 21.5636L20.61 16.2822C20.7439 16.0541 20.8149 15.7898 20.8149 15.5199C20.8149 15.1415 20.6753 14.7786 20.4269 14.511C20.1785 14.2434 19.8416 14.093 19.4903 14.093H17.6157C17.353 14.093 17.0963 14.1772 16.8781 14.3347C16.6599 14.4923 16.4902 14.7162 16.3904 14.9779L16.3635 15.0482C16.2638 15.31 16.0941 15.534 15.8759 15.6916C15.6577 15.8492 15.401 15.9334 15.1383 15.9334ZM18.6318 28.0573H20.7102C21.0615 28.0573 21.3984 28.2076 21.6468 28.4752C21.8953 28.7428 22.0348 29.1058 22.0348 29.4842V30.5731C22.0348 30.7605 22.0006 30.946 21.934 31.1192C21.8675 31.2923 21.7699 31.4496 21.6469 31.5821C21.5239 31.7146 21.3779 31.8197 21.2171 31.8914C21.0564 31.9631 20.8842 32 20.7102 32H18.6318C18.2805 32 17.9436 31.8497 17.6952 31.5821C17.4468 31.3145 17.3072 30.9515 17.3072 30.5731V29.4842C17.3072 29.1058 17.4468 28.7428 17.6952 28.4752C17.9436 28.2076 18.2805 28.0573 18.6318 28.0573Z" fill="#76AAAB"/>
</svg>
