<svg width="33" height="30" viewBox="0 0 33 30" fill="none" xmlns="http://www.w3.org/2000/svg">
<rect width="33" height="30" rx="7" fill="#182D58"/>
<line x1="16.6313" y1="4" x2="16.6313" y2="26" stroke="#68E5E3" stroke-width="2" stroke-linecap="round"/>
<path d="M21.1987 14.2707C20.7777 14.6657 20.7777 15.3342 21.1987 15.7292L26.3161 20.5304C26.9547 21.1295 28.0003 20.6767 28.0003 19.8011L28.0003 10.1988C28.0003 9.32322 26.9547 8.87044 26.3161 9.46955L21.1987 14.2707Z" stroke="#68E5E3" stroke-width="2"/>
<path d="M12.3281 14.2707C12.7492 14.6657 12.7492 15.3342 12.3281 15.7292L7.21073 20.5304C6.57216 21.1295 5.52652 20.6767 5.52652 19.8011L5.52652 10.1988C5.52652 9.32322 6.57216 8.87044 7.21073 9.46955L12.3281 14.2707Z" stroke="#68E5E3" stroke-width="2"/>
</svg>
