<svg width="74" height="72" viewBox="0 0 74 72" fill="none" xmlns="http://www.w3.org/2000/svg">
<rect x="1" y="1" width="72" height="70" rx="10" fill="url(#paint0_radial_118_52)" stroke="white" stroke-width="2"/>
<path d="M58.34 39.9177V28.9052C57.2562 18.8528 47.9907 11 36.7202 11C25.2618 11 15.878 19.1186 15.054 29.4117V31.5909H15.0372V40.0545C15.0124 40.4399 15 40.8286 15 41.2204C15 41.6123 15.0124 42.0009 15.0372 42.3864C15.6346 51.758 23.3879 59.3797 33.3896 60.773C34.483 60.9247 35.5873 61.0008 36.6931 61.0007C37.7989 61.0008 38.9031 60.9247 39.9966 60.773C49.9495 59.3855 57.6753 51.8327 58.34 42.5239C58.3709 42.0935 58.3861 41.6583 58.3861 41.2208C58.3861 40.7832 58.3709 40.348 58.34 39.9177ZM48.9238 42.9745L42.7154 46.1029C42.3698 46.2771 42.0856 46.5389 41.8966 46.8573L38.5011 52.5776C37.7196 53.8947 35.6662 53.8947 34.8843 52.5776L31.4888 46.8573C31.2998 46.5389 31.0156 46.2771 30.67 46.1029L24.4616 42.9745C23.0325 42.2543 23.0325 40.3624 24.4616 39.6423L30.67 36.5139C31.0156 36.3396 31.2997 36.0778 31.4888 35.7594L31.9314 35.0146C30.8145 34.3052 29.9016 33.3563 29.2711 32.2496C28.6407 31.1429 28.3116 29.9116 28.3123 28.6617C28.3123 24.3972 32.0642 20.9402 36.6927 20.9402C41.3212 20.9402 45.0732 24.3972 45.0732 28.6617C45.0738 29.9115 44.7448 31.1428 44.1144 32.2495C43.4841 33.3562 42.5712 34.3051 41.4544 35.0146L41.8966 35.7594C42.0857 36.0778 42.3698 36.3396 42.7154 36.5139L48.9238 39.6423C50.3544 40.3624 50.3544 42.254 48.9245 42.9745H48.9238Z" fill="white"/>
<defs>
<radialGradient id="paint0_radial_118_52" cx="0" cy="0" r="1" gradientUnits="userSpaceOnUse" gradientTransform="translate(37 36.6316) rotate(90) scale(43.5789 44.7895)">
<stop stop-color="#7C88F9"/>
<stop offset="1" stop-color="#61B6FF"/>
</radialGradient>
</defs>
</svg>
