<svg width="33" height="30" viewBox="0 0 33 30" fill="none" xmlns="http://www.w3.org/2000/svg">
<rect width="33" height="30" rx="7" fill="#182D58"/>
<line x1="25.5127" y1="14.7959" x2="7.00022" y2="14.7959" stroke="#68E5E3" stroke-width="2" stroke-linecap="round"/>
<path d="M16.9858 18.6671C16.5908 18.246 15.9222 18.246 15.5272 18.6671L11.7593 22.6832C11.1602 23.3218 11.613 24.3674 12.4886 24.3674H20.0244C20.9 24.3674 21.3528 23.3218 20.7537 22.6832L16.9858 18.6671Z" stroke="#68E5E3" stroke-width="2"/>
<path d="M16.9858 10.8595C16.5908 11.2806 15.9222 11.2806 15.5272 10.8595L11.7593 6.84343C11.1602 6.20485 11.613 5.15922 12.4886 5.15922L20.0244 5.15922C20.9 5.15922 21.3528 6.20485 20.7537 6.84343L16.9858 10.8595Z" stroke="#68E5E3" stroke-width="2"/>
</svg>
