<svg width="23" height="23" viewBox="0 0 23 23" fill="none" xmlns="http://www.w3.org/2000/svg">
<path d="M0.992338 21.9591C0.423636 21.953 -0.0271928 21.535 0.00127803 21.0409L0.329685 15.3978C0.374304 14.6344 1.44941 14.2955 2.05294 14.8546L4.35393 16.9875L10.5619 11.848C11.0598 11.4365 11.85 11.4553 12.3265 11.8909C12.8029 12.3265 12.7855 13.0141 12.2884 13.4262L6.0684 18.5756L8.21774 20.5662C8.82082 21.1253 8.3648 22.0363 7.48625 22.027L0.992338 21.9591Z" fill="#ABABAB"/>
<path d="M22.0074 21.8895C22.5763 21.8834 23.0275 21.4655 22.9987 20.9712L22.6701 15.3288C22.6257 14.5653 21.551 14.2263 20.9474 14.7854L14.7822 20.4965C14.1786 21.0556 14.6349 21.9674 15.5136 21.9581L22.0074 21.8895Z" fill="#ABABAB"/>
<path d="M19.8672 19.8381C20.3439 19.4023 20.3269 18.7149 19.8291 18.3028L13.2317 12.841C12.7338 12.4293 11.9437 12.4482 11.4671 12.8839C10.9906 13.3196 11.0079 14.0071 11.5052 14.4192L18.1026 19.8811C18.6004 20.2931 19.3904 20.2739 19.8672 19.8381Z" fill="#ABABAB"/>
<path d="M10.7887 0.239853C11.1502 -0.0827114 11.7008 -0.0795715 12.0574 0.247121L16.4505 4.27115C17.0797 4.8476 16.6623 5.8897 15.8041 5.88476L12.3668 5.86478V13.2396C12.3666 13.8817 11.8406 14.4026 11.1917 14.4026C10.5428 14.4025 10.0168 13.8817 10.0166 13.2396V5.85115L6.95659 5.83388C6.09847 5.8289 5.69713 4.78215 6.33505 4.21301L10.7887 0.239853Z" fill="#ABABAB"/>
</svg>
