<svg width="33" height="30" viewBox="0 0 33 30" fill="none" xmlns="http://www.w3.org/2000/svg">
<rect width="33" height="30" rx="7" fill="#182D58"/>
<path d="M6.99234 25.5361C6.42364 25.5301 5.97281 25.112 6.00128 24.6179L6.32968 18.9748C6.3743 18.2114 7.44941 17.8725 8.05294 18.4316L10.3539 20.5645L16.5619 15.425C17.0598 15.0135 17.85 15.0323 18.3265 15.4679C18.8029 15.9036 18.7855 16.5911 18.2884 17.0033L12.0684 22.1526L14.2177 24.1432C14.8208 24.7023 14.3648 25.6133 13.4863 25.604L6.99234 25.5361Z" fill="#68E5E3"/>
<path d="M28.0074 25.4665C28.5763 25.4605 29.0275 25.0426 28.9987 24.5482L28.6701 18.9058C28.6257 18.1423 27.551 17.8033 26.9474 18.3624L20.7822 24.0735C20.1786 24.6326 20.6349 25.5444 21.5136 25.5351L28.0074 25.4665Z" fill="#68E5E3"/>
<path d="M25.8672 23.4152C26.3439 22.9794 26.3269 22.292 25.8291 21.8799L19.2317 16.418C18.7338 16.0063 17.9437 16.0253 17.4671 16.4609C16.9906 16.8966 17.0079 17.5841 17.5052 17.9962L24.1026 23.4581C24.6004 23.8702 25.3904 23.8509 25.8672 23.4152Z" fill="#68E5E3"/>
<path d="M16.7887 3.81688C17.1502 3.49431 17.7008 3.49745 18.0574 3.82415L22.4505 7.84818C23.0797 8.42462 22.6623 9.46672 21.8041 9.46179L18.3668 9.4418V16.8166C18.3666 17.4587 17.8406 17.9796 17.1917 17.9796C16.5428 17.9796 16.0168 17.4587 16.0166 16.8166V9.42817L12.9566 9.41091C12.0985 9.40593 11.6971 8.35917 12.335 7.79003L16.7887 3.81688Z" fill="#68E5E3"/>
</svg>
