<svg width="178" height="54" viewBox="0 0 178 54" fill="none" xmlns="http://www.w3.org/2000/svg">
<g filter="url(#filter0_d_12_324)">
<rect x="8" y="6" width="155" height="38" rx="19" fill="#122F6A" fill-opacity="0.74" shape-rendering="crispEdges"/>
</g>
<path d="M65.5898 34.4H62.9298V20.5H65.4698V22.34C66.0298 20.9 67.1498 20.22 68.7498 20.22C71.4298 20.22 72.8898 22.4 72.8898 25.26C72.8898 28.08 71.4498 30.26 68.7498 30.26C67.2698 30.26 66.2098 29.72 65.5898 28.48V34.4ZM67.8698 28.08C69.3098 28.08 70.1498 26.98 70.1498 25.24C70.1498 23.5 69.3098 22.38 67.8698 22.38C66.3898 22.38 65.4498 23.36 65.4498 25.24C65.4498 27.04 66.3698 28.08 67.8698 28.08ZM77.6992 30H75.0392V20.5H77.5192V23.14C77.8792 21.2 78.9392 20.24 80.1592 20.24C81.2592 20.24 81.8592 20.8 82.1392 21.4V24.24C81.7392 23.5 81.0992 22.84 80.0792 22.84C78.7792 22.84 77.6992 23.94 77.6992 25.66V30ZM88.565 30.26C85.365 30.26 83.405 28.62 83.405 25.24C83.405 22.06 85.225 20.22 88.285 20.22C91.185 20.22 92.825 22.1 92.825 25.26C92.825 25.56 92.805 25.84 92.805 26H86.145C86.225 27.44 87.245 28.12 88.945 28.12C90.605 28.12 91.885 27.46 92.505 26.74V29.1C91.865 29.72 90.505 30.26 88.565 30.26ZM86.205 24.4H90.325C90.325 23.12 89.625 22.3 88.365 22.3C86.985 22.3 86.205 23.16 86.205 24.4ZM101.045 30H97.0853L93.7253 20.5H96.5453L99.0453 28.14L101.505 20.5H104.305L101.045 30ZM108.597 18.8H105.977V16.02H108.597V18.8ZM108.617 30H105.957V20.5H108.617V30ZM115.987 30.26C112.787 30.26 110.827 28.62 110.827 25.24C110.827 22.06 112.647 20.22 115.707 20.22C118.607 20.22 120.247 22.1 120.247 25.26C120.247 25.56 120.227 25.84 120.227 26H113.567C113.647 27.44 114.667 28.12 116.367 28.12C118.027 28.12 119.307 27.46 119.927 26.74V29.1C119.287 29.72 117.927 30.26 115.987 30.26ZM113.627 24.4H117.747C117.747 23.12 117.047 22.3 115.787 22.3C114.407 22.3 113.627 23.16 113.627 24.4ZM132.724 28.12L134.284 20.5H136.924L134.724 30H130.864L129.164 22.94L127.564 30H123.724L121.404 20.5H124.084L125.704 28.12L127.484 20.5H130.864L132.724 28.12Z" fill="white"/>
<path d="M52.7594 23.5478C48.8858 17.8562 42.1636 14.5963 35.2165 15.0403C33.0479 15.1779 30.9225 15.6819 28.9401 16.5287C27.3311 17.2147 25.7951 18.1302 24.3752 19.2497C21.9889 21.1301 20.6182 23.0442 20.2548 23.5859C20.0837 23.8405 20.0022 24.1402 20.022 24.4417C19.9606 24.7908 20.038 25.1491 20.2392 25.4468C20.6037 25.9878 21.9789 27.8993 24.3692 29.7749C25.7921 30.8916 27.3301 31.8039 28.9406 32.4868C30.925 33.3296 33.0516 33.8293 35.2205 33.9626C35.6284 33.9879 36.0349 34.0004 36.4403 34.0003C42.9459 34.0003 49.11 30.7845 52.7434 25.4198C52.9171 25.1642 53.0001 24.8623 52.9801 24.5586C53.042 24.2072 52.9633 23.8466 52.7594 23.5478ZM38.4576 26.3138C38.2042 26.5562 37.9027 26.7485 37.5707 26.8795C37.2386 27.0105 36.8825 27.0775 36.523 27.0768H36.5203C35.7951 27.0761 35.0999 26.8021 34.5869 26.3149C34.0739 25.8277 33.7849 25.1671 33.7833 24.4777C33.7833 23.7879 34.0712 23.1262 34.5837 22.6379C35.0963 22.1496 35.7916 21.8746 36.5172 21.8731H36.5203C37.2454 21.8739 37.9406 22.1479 38.4536 22.6351C38.9666 23.1222 39.2556 23.7829 39.2572 24.4722C39.2586 24.8144 39.1886 25.1533 39.0512 25.4695C38.9138 25.7857 38.7118 26.0729 38.4568 26.3143L38.4576 26.3138ZM26.2847 27.5678C25.1433 26.6717 24.1177 25.65 23.2295 24.5242C24.1191 23.3877 25.1484 22.3564 26.2954 21.452C28.0612 20.0604 29.9714 19.0675 32.003 18.4843C31.6573 18.7202 31.3326 18.9827 31.0321 19.2692C30.3251 19.9411 29.762 20.7371 29.3742 21.613C28.9707 22.5212 28.7641 23.4975 28.767 24.4834C28.7661 25.4692 28.9745 26.4449 29.3798 27.3523C29.7695 28.2275 30.3344 29.0224 31.0429 29.6929C31.3837 30.0163 31.7553 30.309 32.153 30.567C30.0622 29.9945 28.0976 28.9914 26.2839 27.5683L26.2847 27.5678ZM40.979 30.507C41.3462 30.2608 41.6903 29.985 42.0074 29.6824C42.7144 29.0105 43.2775 28.2144 43.6653 27.3384C44.0688 26.4302 44.2753 25.4539 44.2725 24.468C44.2732 23.482 44.0645 22.5061 43.659 21.5987C43.2692 20.7235 42.7044 19.9287 41.9958 19.2583C41.7088 18.9858 41.3998 18.7352 41.0716 18.5086C44.5133 19.4953 47.5981 21.572 49.782 24.4744C47.5851 27.4193 44.4631 29.5222 40.9783 30.5074L40.979 30.507Z" fill="white"/>
<defs>
<filter id="filter0_d_12_324" x="0" y="6" width="165" height="48" filterUnits="userSpaceOnUse" color-interpolation-filters="sRGB">
<feFlood flood-opacity="0" result="BackgroundImageFix"/>
<feColorMatrix in="SourceAlpha" type="matrix" values="0 0 0 0 0 0 0 0 0 0 0 0 0 0 0 0 0 0 127 0" result="hardAlpha"/>
<feMorphology radius="1" operator="dilate" in="SourceAlpha" result="effect1_dropShadow_12_324"/>
<feOffset dx="-3" dy="5"/>
<feGaussianBlur stdDeviation="2"/>
<feComposite in2="hardAlpha" operator="out"/>
<feColorMatrix type="matrix" values="0 0 0 0 0 0 0 0 0 0 0 0 0 0 0 0 0 0 0.25 0"/>
<feBlend mode="normal" in2="BackgroundImageFix" result="effect1_dropShadow_12_324"/>
<feBlend mode="normal" in="SourceGraphic" in2="effect1_dropShadow_12_324" result="shape"/>
</filter>
</defs>
</svg>
