<svg width="26" height="12" viewBox="0 0 26 12" fill="none" xmlns="http://www.w3.org/2000/svg">
<path d="M10.8929 0.00263072C6.95138 0.0808685 2.86381 1.688 0.458557 4.98522L0.224308 5.32063C-0.195637 5.94574 -0.00889397 6.77994 0.642122 7.18319C1.25232 7.5606 2.05331 7.42554 2.49694 6.89249L2.58051 6.77937C4.38599 4.09245 7.79538 2.67328 11.2683 2.69386C14.5532 2.71341 17.5744 4.01288 19.141 6.37161L16.2286 9.19832C15.348 10.0538 15.9884 11.5047 17.241 11.4923L24.6123 11.416C25.3813 11.4081 26.0003 10.8075 26 10.0691L25.9973 2.99113C25.9968 1.78788 24.4785 1.18873 23.5972 2.04407L21.1492 4.42093C18.8825 1.43831 15.0344 0.0223829 11.2861 0L10.8929 0.00263072Z" fill="#ABABAB"/>
</svg>
