<svg width="33" height="30" viewBox="0 0 33 30" fill="none" xmlns="http://www.w3.org/2000/svg">
<rect width="33" height="30" rx="7" fill="#182D58"/>
<path d="M13.8929 11.2835C9.95138 11.3618 5.86381 12.9689 3.45856 16.2661L3.22431 16.6015C2.80436 17.2266 2.99111 18.0608 3.64212 18.4641C4.25232 18.8415 5.05331 18.7064 5.49694 18.1734L5.5805 18.0603C7.38599 15.3733 10.7954 13.9542 14.2683 13.9747C17.5532 13.9943 20.5744 15.2938 22.141 17.6525L19.2286 20.4792C18.348 21.3347 18.9884 22.7856 20.241 22.7732L27.6123 22.6969C28.3813 22.689 29.0003 22.0884 29 21.35L28.9973 14.272C28.9968 13.0688 27.4785 12.4696 26.5972 13.325L24.1492 15.7018C21.8825 12.7192 18.0344 11.3033 14.2861 11.2809L13.8929 11.2835Z" fill="#68E5E3"/>
</svg>
