<svg width="33" height="30" viewBox="0 0 33 30" fill="none" xmlns="http://www.w3.org/2000/svg">
<rect width="33" height="30" rx="7" fill="#182D58"/>
<path d="M17.249 4.59167C19.2681 4.79629 21.0025 7.15225 21.8887 10.5331C26.0943 11.4549 28.9995 13.4221 29 15.7001L28.9961 15.8485C28.8727 18.0677 25.9922 19.9723 21.8652 20.8719C20.9306 24.3667 19.0869 26.7458 16.9629 26.746L16.6768 26.7313C14.7117 26.5324 13.0158 24.2962 12.1094 21.0604C10.9845 20.8671 9.93718 20.6004 8.99316 20.2753L7.32812 20.8192C6.45079 21.1053 5.68592 20.2061 6.13672 19.4188L6.35156 19.0419C4.87212 18.1017 4.00016 16.9478 4 15.7001L4.00391 15.5526C4.13616 13.1663 7.45665 11.1432 12.0869 10.3427C13.0306 6.90683 14.8608 4.57703 16.9629 4.57703L17.249 4.59167ZM19.666 21.2391C18.6548 21.36 17.5939 21.4257 16.5 21.4257C15.7462 21.4257 15.0081 21.3924 14.291 21.3339C14.4519 21.7944 14.63 22.2197 14.8223 22.6034C15.7201 24.3947 16.5919 24.746 16.9629 24.746C17.334 24.7458 18.2059 24.3944 19.1035 22.6034C19.3089 22.1936 19.4967 21.7362 19.666 21.2391ZM16.5 11.9745C15.5357 11.9745 14.6073 12.0286 13.7275 12.1278C13.5238 13.2074 13.4073 14.3981 13.4072 15.662C13.4073 16.9558 13.5294 18.1727 13.7422 19.2723C14.6177 19.3704 15.541 19.4257 16.5 19.4257C17.813 19.4257 19.0592 19.3236 20.207 19.1454C20.3241 18.5144 20.4099 17.8458 20.4619 17.1473H20.2832C19.3598 17.1449 18.935 15.9986 19.6328 15.3925L20.4922 14.6454C20.4499 13.8053 20.357 13.0044 20.2217 12.2557C19.0699 12.076 17.8186 11.9745 16.5 11.9745ZM11.6426 12.4647C10.4414 12.7214 9.37679 13.0663 8.49414 13.4706C6.37472 14.4414 6.00047 15.3769 6 15.7001C6.00021 15.9527 6.2302 16.5798 7.3457 17.3065L7.67773 16.7274C8.12848 15.9403 9.32888 16.0775 9.54785 16.9413L9.9375 18.4843C10.4708 18.6551 11.0451 18.8067 11.6543 18.9364C11.521 18.0752 11.4379 17.169 11.4141 16.2323L11.4072 15.662C11.4072 14.5506 11.49 13.477 11.6426 12.4647ZM22.3154 12.6962C22.3737 13.1156 22.4174 13.5455 22.4512 13.9833C22.4733 13.9997 22.4946 14.0175 22.5156 14.036L24.0693 15.4042C24.7614 16.014 24.3257 17.1576 23.4023 17.1552L22.4648 17.1522C22.4285 17.6829 22.3757 18.2018 22.3037 18.7059C23.1224 18.4856 23.8628 18.2251 24.5059 17.9305C26.6259 16.9594 26.9997 16.023 27 15.7001C26.9995 15.3769 26.6253 14.4414 24.5059 13.4706C23.8657 13.1774 23.1296 12.916 22.3154 12.6962ZM16.9629 6.57703C16.5919 6.57703 15.7201 6.92842 14.8223 8.7196C14.6192 9.12469 14.4315 9.57577 14.2637 10.0663C14.9893 10.0062 15.7366 9.97449 16.5 9.97449L17.1436 9.9823C18.0204 10.0027 18.8733 10.065 19.6934 10.1639C19.5173 9.6357 19.3199 9.15128 19.1035 8.7196C18.2059 6.92886 17.334 6.57721 16.9629 6.57703Z" fill="#68E5E3"/>
</svg>
