<svg width="25" height="23" viewBox="0 0 25 23" fill="none" xmlns="http://www.w3.org/2000/svg">
<path d="M13.249 0.0146484C15.2681 0.219266 17.0025 2.57523 17.8887 5.95605C22.0943 6.87783 24.9995 8.84509 25 11.123L24.9961 11.2715C24.8727 13.4906 21.9922 15.3953 17.8652 16.2949C16.9306 19.7897 15.0869 22.1687 12.9629 22.1689L12.6768 22.1543C10.7117 21.9554 9.01576 19.7192 8.10938 16.4834C6.98453 16.2901 5.93718 16.0234 4.99316 15.6982L3.32812 16.2422C2.45079 16.5283 1.68592 15.6291 2.13672 14.8418L2.35156 14.4648C0.872118 13.5247 0.000158959 12.3708 0 11.123L0.00390625 10.9756C0.136164 8.58925 3.45665 6.56622 8.08691 5.76562C9.03063 2.32981 10.8608 0 12.9629 0L13.249 0.0146484ZM15.666 16.6621C14.6548 16.783 13.5939 16.8486 12.5 16.8486C11.7462 16.8486 11.0081 16.8154 10.291 16.7568C10.4519 17.2174 10.63 17.6427 10.8223 18.0264C11.7201 19.8177 12.5919 20.1689 12.9629 20.1689C13.334 20.1688 14.2059 19.8174 15.1035 18.0264C15.3089 17.6166 15.4967 17.1591 15.666 16.6621ZM12.5 7.39746C11.5357 7.39746 10.6073 7.45153 9.72754 7.55078C9.52385 8.63033 9.40725 9.8211 9.40723 11.085C9.40726 12.3788 9.52942 13.5957 9.74219 14.6953C10.6177 14.7934 11.541 14.8486 12.5 14.8486C13.813 14.8486 15.0592 14.7465 16.207 14.5684C16.3241 13.9373 16.4099 13.2688 16.4619 12.5703H16.2832C15.3598 12.5678 14.935 11.4216 15.6328 10.8154L16.4922 10.0684C16.4499 9.2283 16.357 8.42739 16.2217 7.67871C15.0699 7.49895 13.8186 7.39746 12.5 7.39746ZM7.64258 7.8877C6.44144 8.14438 5.37679 8.48929 4.49414 8.89355C2.37472 9.86436 2.00047 10.7999 2 11.123C2.00021 11.3757 2.2302 12.0028 3.3457 12.7295L3.67773 12.1504C4.12848 11.3632 5.32888 11.5005 5.54785 12.3643L5.9375 13.9072C6.47079 14.0781 7.04508 14.2297 7.6543 14.3594C7.52099 13.4982 7.43788 12.592 7.41406 11.6553L7.40723 11.085C7.40725 9.97355 7.49 8.89995 7.64258 7.8877ZM18.3154 8.11914C18.3737 8.53853 18.4174 8.9685 18.4512 9.40625C18.4733 9.4227 18.4946 9.44047 18.5156 9.45898L20.0693 10.8271C20.7614 11.437 20.3257 12.5806 19.4023 12.5781L18.4648 12.5752C18.4285 13.1058 18.3757 13.6247 18.3037 14.1289C19.1224 13.9086 19.8628 13.6481 20.5059 13.3535C22.6259 12.3824 22.9997 11.4459 23 11.123C22.9995 10.7999 22.6253 9.86437 20.5059 8.89355C19.8657 8.60036 19.1296 8.33901 18.3154 8.11914ZM12.9629 2C12.5919 2 11.7201 2.3514 10.8223 4.14258C10.6192 4.54767 10.4315 4.99875 10.2637 5.48926C10.9893 5.42922 11.7366 5.39746 12.5 5.39746L13.1436 5.40527C14.0204 5.42564 14.8733 5.48796 15.6934 5.58691C15.5173 5.05867 15.3199 4.57426 15.1035 4.14258C14.2059 2.35183 13.334 2.00019 12.9629 2Z" fill="#ABABAB"/>
</svg>
