<svg width="157" height="54" viewBox="0 0 157 54" fill="none" xmlns="http://www.w3.org/2000/svg">
<g filter="url(#filter0_d_12_323)">
<rect x="19" y="6" width="94" height="38" rx="19" fill="#60CBE8"/>
</g>
<path d="M61.9655 30.26C59.6455 30.26 58.3855 29.58 57.7055 28.94V26.38C58.7255 27.64 60.2855 28.1 61.9055 28.1C63.5255 28.1 64.2655 27.72 64.2655 26.9C64.2655 26.42 63.9855 26.04 63.2255 26.04C62.3455 26.04 61.7055 26.48 60.3455 26.48C58.1055 26.48 57.4055 24.96 57.4055 23.54C57.4055 21.24 59.2855 20.22 62.1255 20.2C64.5055 20.2 65.6455 20.9 66.0855 21.38V23.64C65.5455 23.04 64.4255 22.34 62.4455 22.34C60.6655 22.34 59.9055 22.78 59.9055 23.48C59.9055 24 60.2255 24.42 60.8855 24.42C61.8455 24.42 62.8455 23.94 63.9655 23.94C66.0655 23.94 66.8055 25.44 66.8055 26.88C66.8055 28.96 65.2855 30.26 61.9655 30.26ZM77.7039 28C78.0439 28 78.4039 27.78 78.6239 27.56V29.68C78.3839 29.86 77.8439 30.2 76.8639 30.2C75.1039 30.2 74.5639 29.2 74.5639 28.24V27.88C74.1639 29.06 72.9039 30.2 70.8839 30.2C69.3639 30.2 68.2439 29.52 68.2439 27.88C68.2639 25.48 70.6039 24.8 74.4239 23.92V23.74C74.4239 23 73.7839 22.4 72.5039 22.4C70.7639 22.4 69.5439 23.22 68.8239 24.24V21.84C69.3239 21.08 70.5439 20.22 72.7439 20.22C74.8639 20.22 77.1039 21.1 77.1039 23.86V27.08C77.1039 27.42 77.1639 28 77.7039 28ZM72.0439 28.24C73.4239 28.24 74.4239 27.1 74.4239 25.8V25.42C72.2239 25.94 70.9639 26.34 70.9639 27.3C70.9639 27.9 71.2839 28.24 72.0439 28.24ZM86.0219 30H82.0619L78.7019 20.5H81.5219L84.0219 28.14L86.4819 20.5H89.2819L86.0219 30ZM95.3384 30.26C92.1384 30.26 90.1784 28.62 90.1784 25.24C90.1784 22.06 91.9984 20.22 95.0584 20.22C97.9584 20.22 99.5984 22.1 99.5984 25.26C99.5984 25.56 99.5784 25.84 99.5784 26H92.9184C92.9984 27.44 94.0184 28.12 95.7184 28.12C97.3784 28.12 98.6584 27.46 99.2784 26.74V29.1C98.6384 29.72 97.2784 30.26 95.3384 30.26ZM92.9784 24.4H97.0984C97.0984 23.12 96.3984 22.3 95.1384 22.3C93.7584 22.3 92.9784 23.16 92.9784 24.4Z" fill="white"/>
<path d="M48.6041 16.7529L46.7999 15.3153C46.5465 15.1134 46.2027 15 45.8444 15H34.1526C33.9752 15 33.7995 15.0278 33.6356 15.0819C33.4716 15.136 33.3227 15.2153 33.1972 15.3153L31.3952 16.7511C31.2698 16.851 31.1702 16.9697 31.1024 17.1003C31.0345 17.2309 30.9995 17.3709 30.9995 17.5123V31.9235C30.9995 32.209 31.1419 32.4828 31.3952 32.6847C31.6486 32.8866 31.9923 33 32.3506 33H35.1386C35.3161 33 35.4918 32.9722 35.6557 32.9181C35.8197 32.864 35.9686 32.7847 36.0941 32.6847C36.2196 32.5848 36.3191 32.4661 36.387 32.3355C36.455 32.2049 36.4899 32.0649 36.4899 31.9235V28.2808C36.4899 27.9953 36.6323 27.7214 36.8856 27.5196C37.139 27.3177 37.4827 27.2043 37.841 27.2043H42.2522C42.4297 27.2042 42.6054 27.2321 42.7693 27.2862C42.9333 27.3403 43.0822 27.4196 43.2077 27.5195C43.3331 27.6195 43.4327 27.7382 43.5006 27.8688C43.5684 27.9994 43.6034 28.1394 43.6034 28.2808V31.9235C43.6034 32.0649 43.6383 32.2049 43.7062 32.3355C43.7741 32.4661 43.8737 32.5848 43.9991 32.6847C44.1246 32.7847 44.2736 32.864 44.4375 32.9181C44.6015 32.9722 44.7772 33 44.9546 33H47.6482C47.8257 33 48.0014 32.9722 48.1653 32.9181C48.3293 32.864 48.4783 32.7847 48.6037 32.6847C48.7292 32.5848 48.8287 32.4661 48.8967 32.3355C48.9646 32.2049 48.9995 32.0649 48.9995 31.9235V17.5141C48.9996 17.3728 48.9647 17.2328 48.8969 17.1022C48.829 16.9716 48.7295 16.8529 48.6041 16.7529ZM40 23.3287C38.3926 23.3287 37.0896 22.2904 37.0896 21.0098C37.0896 19.7292 38.3926 18.6908 40 18.6908C41.6074 18.6908 42.9104 19.7291 42.9104 21.0098C42.9104 22.2905 41.6076 23.3287 40 23.3287Z" fill="white"/>
<path d="M47.0816 32.0376H33.4185V32.9925H47.0816V32.0376Z" fill="white"/>
<defs>
<filter id="filter0_d_12_323" x="11" y="6" width="104" height="48" filterUnits="userSpaceOnUse" color-interpolation-filters="sRGB">
<feFlood flood-opacity="0" result="BackgroundImageFix"/>
<feColorMatrix in="SourceAlpha" type="matrix" values="0 0 0 0 0 0 0 0 0 0 0 0 0 0 0 0 0 0 127 0" result="hardAlpha"/>
<feMorphology radius="1" operator="dilate" in="SourceAlpha" result="effect1_dropShadow_12_323"/>
<feOffset dx="-3" dy="5"/>
<feGaussianBlur stdDeviation="2"/>
<feComposite in2="hardAlpha" operator="out"/>
<feColorMatrix type="matrix" values="0 0 0 0 0 0 0 0 0 0 0 0 0 0 0 0 0 0 0.25 0"/>
<feBlend mode="normal" in2="BackgroundImageFix" result="effect1_dropShadow_12_323"/>
<feBlend mode="normal" in="SourceGraphic" in2="effect1_dropShadow_12_323" result="shape"/>
</filter>
</defs>
</svg>
