<svg width="25" height="23" viewBox="0 0 25 23" fill="none" xmlns="http://www.w3.org/2000/svg">
<path d="M7.47168 10.5347H3C2.4478 10.5347 2.00013 10.9636 2 11.4924V19.154C2.00008 19.6828 2.44777 20.1117 3 20.1117H11.7061C12.2583 20.1117 12.706 19.6828 12.7061 19.154V16.2809H14.7061V19.154L14.7021 19.3017C14.6243 20.7709 13.3945 21.9491 11.8604 22.0233L11.7061 22.0271H3L2.8457 22.0233C1.31171 21.9489 0.0816938 20.7708 0.00390625 19.3017L0 19.154V11.4924C0.000133196 9.90573 1.34323 8.61929 3 8.61929H7.47168V10.5347Z" fill="#ABABAB"/>
<path fill-rule="evenodd" clip-rule="evenodd" d="M21.5713 0C23.2279 0.000252694 24.5713 1.28649 24.5713 2.8731V12.1761C24.5713 13.7627 23.2279 15.0489 21.5713 15.0492H11.8574C10.2006 15.0492 8.85645 13.7628 8.85645 12.1761V2.8731C8.85645 1.28633 10.2006 1.23401e-07 11.8574 0H21.5713ZM11.8574 1.9154C11.3051 1.9154 10.8574 2.34417 10.8574 2.8731V12.1761C10.8574 12.705 11.3051 13.1338 11.8574 13.1338H21.5713C22.1233 13.1335 22.5713 12.7048 22.5713 12.1761V2.8731C22.5713 2.34433 22.1234 1.91565 21.5713 1.9154H11.8574Z" fill="#ABABAB"/>
<path d="M17.5224 4.80995C18.0706 4.81265 18.5146 5.23799 18.5175 5.76297L18.54 10.0418C18.5446 10.8973 17.4647 11.3295 16.8329 10.7245L15.2597 9.21779L8.1181 16.1518L9.01752 17.0131C9.64885 17.6182 9.19788 18.6524 8.30463 18.6479L4.93256 18.6311C4.3843 18.6284 3.94027 18.2032 3.93744 17.6781L3.91986 14.4487C3.91526 13.5933 4.9951 13.1616 5.62689 13.7659L6.70404 14.7975L13.8456 7.86355L12.3417 6.42326C11.7103 5.81823 12.1613 4.78403 13.0546 4.78844L17.5224 4.80995Z" fill="#ABABAB"/>
</svg>
