<svg width="33" height="30" viewBox="0 0 33 30" fill="none" xmlns="http://www.w3.org/2000/svg">
<rect width="33" height="30" rx="7" fill="#182D58"/>
<path d="M11.4712 15.0694H6.99951C6.44731 15.0694 5.99964 15.4982 5.99951 16.0271V23.6886C5.99959 24.2175 6.44728 24.6463 6.99951 24.6463H15.7056C16.2578 24.6463 16.7055 24.2175 16.7056 23.6886V20.8155H18.7056V23.6886L18.7017 23.8364C18.6239 25.3056 17.394 26.4837 15.8599 26.558L15.7056 26.5617H6.99951L6.84521 26.558C5.31122 26.4836 4.08121 25.3055 4.00342 23.8364L3.99951 23.6886V16.0271C3.99964 14.4404 5.34274 13.154 6.99951 13.154H11.4712V15.0694Z" fill="#68E5E3"/>
<path fill-rule="evenodd" clip-rule="evenodd" d="M25.5708 4.53467C27.2274 4.53492 28.5708 5.82115 28.5708 7.40776V16.7107C28.5708 18.2973 27.2274 19.5836 25.5708 19.5838H15.8569C14.2001 19.5838 12.856 18.2975 12.856 16.7107V7.40776C12.856 5.821 14.2001 4.53467 15.8569 4.53467H25.5708ZM15.8569 6.45007C15.3047 6.45007 14.8569 6.87884 14.8569 7.40776V16.7107C14.8569 17.2396 15.3046 17.6684 15.8569 17.6684H25.5708C26.1229 17.6682 26.5708 17.2395 26.5708 16.7107V7.40776C26.5708 6.879 26.1229 6.45032 25.5708 6.45007H15.8569Z" fill="#68E5E3"/>
<path d="M21.5219 9.34462C22.0701 9.34732 22.5141 9.77266 22.517 10.2976L22.5395 14.5764C22.5441 15.432 21.4642 15.8642 20.8325 15.2592L19.2592 13.7525L12.1176 20.6864L13.017 21.5478C13.6484 22.1528 13.1974 23.187 12.3041 23.1826L8.93207 23.1658C8.38381 23.1631 7.93978 22.7378 7.93695 22.2128L7.91937 18.9833C7.91477 18.128 8.99462 17.6963 9.62641 18.3006L10.7036 19.3322L17.8452 12.3982L16.3412 10.9579C15.7098 10.3529 16.1608 9.3187 17.0541 9.32311L21.5219 9.34462Z" fill="#68E5E3"/>
</svg>
