<svg width="33" height="30" viewBox="0 0 33 30" fill="none" xmlns="http://www.w3.org/2000/svg">
<rect width="33" height="30" rx="7" fill="#182D58"/>
<path d="M13.8867 17.6648C14.6953 17.7225 15.4799 18.0081 16.138 18.4844C16.7962 18.9606 17.2974 19.6053 17.5764 20.3345L20.3721 27.6417C20.3858 27.6773 20.4104 27.7088 20.4425 27.7321C20.4691 27.7513 20.5 27.7643 20.5324 27.7698C20.5648 27.7753 20.5977 27.7732 20.6281 27.7636C20.6586 27.7541 20.6856 27.7374 20.7068 27.715C20.728 27.6927 20.7427 27.6655 20.7495 27.6357L25.5334 6.85011C25.5414 6.81518 25.5383 6.77824 25.5244 6.74384C25.5106 6.70944 25.4866 6.67908 25.4553 6.65648C25.4241 6.63389 25.387 6.62005 25.3487 6.61667C25.3103 6.61328 25.2724 6.62051 25.2395 6.63745L5.66883 16.7238C5.64084 16.7383 5.61748 16.7592 5.60085 16.7849C5.58422 16.8105 5.57484 16.84 5.57356 16.8706C5.57228 16.9013 5.57915 16.9322 5.59353 16.9605C5.60791 16.9889 5.62936 17.0138 5.65594 17.033L5.67316 17.0455C5.70536 17.0687 5.7437 17.0827 5.78323 17.0856L13.8867 17.6648Z" fill="#68E5E3"/>
</svg>
