<svg width="40" height="40" viewBox="0 0 40 40" fill="none" xmlns="http://www.w3.org/2000/svg">
<circle cx="20" cy="20" r="20" fill="white" fill-opacity="0.75"/>
<path d="M33.0929 22.0696L32.4414 21.6417C31.2375 20.8513 31.2375 19.1487 32.4414 18.3583L33.0929 17.9305C34.8012 16.8089 33.9317 14.2446 31.8618 14.2994L31.0721 14.3204C29.6134 14.3591 28.5685 12.9817 29.0582 11.6641L29.323 10.9508C30.0172 9.08122 27.7409 7.49637 26.1 8.70676L25.4741 9.1685C24.3176 10.0216 22.6279 9.49545 22.2156 8.15384L21.9923 7.4277C21.4072 5.5241 18.5936 5.5241 18.0084 7.4277L17.7851 8.15384C17.3728 9.49545 15.6831 10.0216 14.5266 9.1685L13.9007 8.70676C12.2597 7.49637 9.9836 9.08122 10.6777 10.9508L10.9425 11.6641C11.4317 12.9817 10.3874 14.3591 8.92864 14.3204L8.13885 14.2994C6.06891 14.2446 5.19954 16.8089 6.90787 17.9305L7.55932 18.3583C8.76322 19.1487 8.76322 20.8513 7.55932 21.6417L6.90787 22.0696C5.19954 23.1912 6.06891 25.7555 8.13885 25.7006L8.92864 25.6797C10.3874 25.641 11.4322 27.0184 10.9425 28.336L10.6777 29.0493C9.9836 30.9188 12.2597 32.5037 13.9007 31.2933L14.5266 30.8316C15.6831 29.9785 17.3728 30.5047 17.7851 31.8462L18.0084 32.5724C18.5936 34.476 21.4072 34.476 21.9923 32.5724L22.2156 31.8462C22.6279 30.5047 24.3176 29.9785 25.4741 30.8316L26.1 31.2933C27.7409 32.5037 30.0172 30.9188 29.323 29.0493L29.0582 28.336C28.569 27.0184 29.6134 25.641 31.0721 25.6797L31.8618 25.7006C33.9317 25.7555 34.8012 23.1912 33.0929 22.0696ZM20.0001 27.1632C15.8719 27.1632 12.5254 23.956 12.5254 20.0001C12.5254 16.0442 15.8721 12.8369 20.0001 12.8369C24.1281 12.8369 27.4748 16.044 27.4748 20.0001C27.4748 23.9561 24.1284 27.1632 20.0002 27.1632H20.0001Z" fill="#76AAAB"/>
</svg>
