<svg width="33" height="30" viewBox="0 0 33 30" fill="none" xmlns="http://www.w3.org/2000/svg">
<rect width="33" height="30" rx="7" fill="#182D58"/>
<path d="M24.3877 26.6044H9.82129L8 9.16589H26.208L24.3877 26.6044ZM12.79 11.0575C12.2621 11.0888 11.8608 11.5424 11.8945 12.0702L12.5957 22.9833C12.6298 23.5111 13.0853 23.9136 13.6133 23.8827C14.1415 23.8515 14.5427 23.3981 14.5088 22.87L13.8076 11.9579C13.7737 11.43 13.3181 11.0266 12.79 11.0575ZM22.2383 11.0575C21.7103 11.0268 21.2546 11.43 21.2207 11.9579L20.5195 22.87C20.4856 23.398 20.887 23.8514 21.415 23.8827C21.9432 23.9138 22.3985 23.5112 22.4326 22.9833L23.1338 12.0702C23.1675 11.5422 22.7665 11.0886 22.2383 11.0575ZM17.584 11.0018C17.0549 11.0021 16.6251 11.4308 16.625 11.9598V22.8925C16.625 23.4216 17.0549 23.8502 17.584 23.8505C18.113 23.8502 18.542 23.4215 18.542 22.8925V11.9598C18.5419 11.4308 18.113 11.0021 17.584 11.0018ZM24.3877 4.57703L26.209 7.32996H8L9.82129 4.57703H24.3877Z" fill="#68E5E3"/>
</svg>
