<svg width="33" height="30" viewBox="0 0 33 30" fill="none" xmlns="http://www.w3.org/2000/svg">
<rect width="33" height="30" rx="7" fill="#182D58"/>
<path d="M19.1071 10.3259C23.0486 10.4041 27.1362 12.0112 29.5414 15.3085L29.7757 15.6439C30.1956 16.269 30.0089 17.1032 29.3579 17.5064C28.7477 17.8838 27.9467 17.7488 27.5031 17.2157L27.4195 17.1026C25.614 14.4157 22.2046 12.9965 18.7317 13.0171C15.4468 13.0367 12.4256 14.3361 10.859 16.6948L13.7714 19.5216C14.652 20.3771 14.0116 21.8279 12.759 21.8155L5.38769 21.7393C4.61869 21.7313 3.99975 21.1308 4 20.3923L4.00274 13.3144C4.00325 12.1111 5.52153 11.512 6.40277 12.3673L8.85075 14.7442C11.1175 11.7615 14.9656 10.3456 18.7139 10.3232L19.1071 10.3259Z" fill="#68E5E3"/>
</svg>
