<svg width="26" height="12" viewBox="0 0 26 12" fill="none" xmlns="http://www.w3.org/2000/svg">
<path d="M15.1071 0.00263072C19.0486 0.0808685 23.1362 1.688 25.5414 4.98522L25.7757 5.32063C26.1956 5.94574 26.0089 6.77994 25.3579 7.18319C24.7477 7.5606 23.9467 7.42554 23.5031 6.89249L23.4195 6.77937C21.614 4.09245 18.2046 2.67328 14.7317 2.69386C11.4468 2.71341 8.42564 4.01288 6.859 6.37161L9.77137 9.19832C10.652 10.0538 10.0116 11.5047 8.75902 11.4923L1.38769 11.416C0.618688 11.4081 -0.000254994 10.8075 7.88101e-08 10.0691L0.00273984 2.99113C0.00324555 1.78788 1.52153 1.18873 2.40277 2.04407L4.85075 4.42093C7.11746 1.43831 10.9656 0.0223829 14.7139 0L15.1071 0.00263072Z" fill="#ABABAB"/>
</svg>
